<svg width="20" height="20" fill="none" xmlns="http://www.w3.org/2000/svg"><g clip-path="url(#a)"><path d="M10.008 6.535v6.93M6.54 10h6.93" stroke="#fff" stroke-linecap="round" stroke-linejoin="round"/><path d="M14.23 2.25H5.776a1.41 1.41 0 0 0-1.409 1.41v12.68c0 .779.631 1.41 1.41 1.41h8.453a1.41 1.41 0 0 0 1.41-1.41V3.66a1.41 1.41 0 0 0-1.41-1.41Z" fill="#101010"/><path d="M7.188 5.773h5.635M7.188 9.296h5.635m-5.635 3.522h2.817" stroke="#fff" stroke-linecap="round" stroke-linejoin="round"/><circle cx="13.75" cy="15" r="5" fill="#101010" stroke="#fff" stroke-width=".8"/><path d="M13.75 13.334v3.333M12.086 15h3.333" stroke="#fff" stroke-width=".667" stroke-linecap="round" stroke-linejoin="round"/></g><defs><clipPath id="a"><path fill="#fff" d="M0 0h20v20H0z"/></clipPath></defs></svg>