<svg width="24" height="24" fill="none" xmlns="http://www.w3.org/2000/svg"><path fill-rule="evenodd" clip-rule="evenodd" d="M8.797 4.03a4.874 4.874 0 0 0-3.316 1.779c-.335.417-.6.923-1.02 1.952l-.365.895-1.423.016-1.422.015-.13.146c-.163.184-.163.242.011.969.193.803.23.836.943.836.292 0 .53.014.53.031 0 .018-.108.149-.241.292-.279.3-.528.776-.614 1.175-.078.365-.078 2.679.001 3.039.072.33.304.831.499 1.079l.14.179v1.22c0 .791.023 1.291.065 1.425.085.275.472.683.756.797.297.119 1.698.17 2.155.078.453-.09.783-.327.98-.701.158-.298.164-.336.182-1.132l.02-.823h10.96l.018.823c.019.796.025.834.182 1.132.198.374.528.61.98.7.454.092 1.861.043 2.142-.074.295-.122.554-.372.706-.682.123-.251.127-.303.128-1.522v-1.261l.197-.265a3.23 3.23 0 0 0 .334-.611c.131-.333.137-.4.157-1.703.013-.845-.001-1.472-.038-1.663-.078-.407-.307-.87-.61-1.23l-.248-.293.512-.018c.48-.017.521-.027.637-.158.082-.091.173-.335.265-.706.173-.7.173-.747.001-.944l-.138-.16-1.403-.013-1.403-.014-.386-.962c-.546-1.36-.704-1.633-1.292-2.23-.613-.622-1.447-1.089-2.351-1.315-.436-.11-.565-.114-3.575-.126-1.717-.007-3.304.005-3.526.028Zm-.199 2.75a2.5 2.5 0 0 0-.504.243c-.417.28-.569.526-1.076 1.748a28.253 28.253 0 0 0-.482 1.2c0 .023 2.471.042 5.491.042 3.02 0 5.492-.018 5.492-.04 0-.132-.954-2.31-1.094-2.498a2.146 2.146 0 0 0-.976-.691c-.28-.095-.468-.1-3.434-.1-2.876.002-3.16.01-3.417.096Zm-3.893 5.256c-.554.174-.88.555-.947 1.111-.07.576.257 1.178.76 1.399.178.078.358.095 1.053.096 1.278.002 1.611-.138 1.611-.674 0-.55-.727-1.468-1.423-1.797-.332-.157-.795-.217-1.054-.135Zm13.771.054c-.787.298-1.603 1.254-1.603 1.878 0 .528.338.675 1.551.675.886 0 1.105-.047 1.412-.3.393-.326.545-.796.43-1.334-.17-.784-1.007-1.214-1.79-.918Z" fill="#101010"/></svg>