<svg width="16" height="16" fill="none" xmlns="http://www.w3.org/2000/svg"><g clip-path="url(#a)" stroke="#ACACAC" stroke-linecap="round" stroke-linejoin="round"><path d="M1.726 15.43h12.571c.631 0 1.143-.512 1.143-1.143V1.715c0-.63-.512-1.142-1.143-1.142H1.726c-.631 0-1.143.511-1.143 1.142v12.572c0 .631.512 1.143 1.143 1.143Z"/><path d="M10.571 7.43a2 2 0 1 0 0-4 2 2 0 0 0 0 4Zm.172 8a8.412 8.412 0 0 0-8.457-6.858 9.006 9.006 0 0 0-1.715.16"/><path d="M15.429 11.326a8.917 8.917 0 0 0-2.858-.469 9.018 9.018 0 0 0-3.577.732"/></g><defs><clipPath id="a"><path fill="#fff" d="M0 0h16v16H0z"/></clipPath></defs></svg>