<svg width="684" height="488" fill="none" xmlns="http://www.w3.org/2000/svg"><path d="m203.506 40.322 5.222-13.478a12.14 12.14 0 0 1 11.292-7.771h9.958a12.143 12.143 0 0 1 11.292 7.77l5.222 13.48 17.728 10.2 14.329-2.186a12.141 12.141 0 0 1 12.143 5.95l4.857 8.5a12.143 12.143 0 0 1-.971 13.721l-8.865 11.293v20.4l9.107 11.293a12.142 12.142 0 0 1 .972 13.721l-4.857 8.5a12.148 12.148 0 0 1-12.143 5.95l-14.329-2.186-17.728 10.2-5.222 13.479a12.136 12.136 0 0 1-11.293 7.771h-10.2a12.143 12.143 0 0 1-11.292-7.771l-5.222-13.479-17.728-10.2-14.329 2.186a12.144 12.144 0 0 1-12.143-5.95l-4.857-8.5a12.143 12.143 0 0 1 .971-13.721l8.865-11.293v-20.4l-9.107-11.293a12.143 12.143 0 0 1-.972-13.721l4.857-8.5a12.144 12.144 0 0 1 12.143-5.95l14.329 2.185 17.971-10.2Zm-2.793 57.679a24.29 24.29 0 0 0 14.992 22.437 24.289 24.289 0 0 0 26.467-5.265 24.284 24.284 0 0 0-3.681-37.365 24.284 24.284 0 0 0-30.665 3.02 24.288 24.288 0 0 0-7.113 17.173Z" fill="#F4F4F4"/><g clip-path="url(#a)"><path d="m107.481 231.439 3.864-22.629a19.294 19.294 0 0 1 5.137-10.172 19.292 19.292 0 0 1 9.982-5.496l15.498-3.149a19.289 19.289 0 0 1 20.034 8.525l12.389 19.327 30.82 10.269 21.61-7.934a19.292 19.292 0 0 1 20.781 5.421l10.248 11.693a19.286 19.286 0 0 1 2.827 21.664l-10.225 20.38 6.452 31.751 17.746 14.696a19.288 19.288 0 0 1 5.851 21.05l-4.871 14.765a19.289 19.289 0 0 1-17.018 13.101l-22.993 1.13-24.367 21.482-3.864 22.63a19.291 19.291 0 0 1-15.119 15.667l-15.876 3.226a19.289 19.289 0 0 1-20.034-8.524l-12.389-19.327-30.819-10.269-21.61 7.933a19.284 19.284 0 0 1-20.782-5.42l-10.248-11.694a19.284 19.284 0 0 1-2.827-21.663l10.225-20.38-6.452-31.752-17.746-14.696a19.284 19.284 0 0 1-5.851-21.049l4.871-14.766a19.288 19.288 0 0 1 17.018-13.101l22.993-1.13 24.745-21.559Zm13.895 90.656a38.567 38.567 0 0 0 30.429 30.181 38.568 38.568 0 0 0 45.941-38.02 38.577 38.577 0 0 0-23.958-35.537 38.573 38.573 0 0 0-52.412 43.376Z" fill="#F4F4F4"/></g><g clip-path="url(#b)"><path d="m350.292 139.713.637-32.304a27.137 27.137 0 0 1 17.759-24.971l20.909-7.63a27.142 27.142 0 0 1 29.668 7.667l21.291 24.303 45.043 7.836 28.414-15.568a27.144 27.144 0 0 1 30.057 3.19l16.712 14.128a27.142 27.142 0 0 1 8.474 29.558l-9.962 30.505 15.63 42.838 27.776 16.736a27.137 27.137 0 0 1 12.553 28.069l-3.687 21.57a27.15 27.15 0 0 1-7.154 14.084 27.148 27.148 0 0 1-13.785 7.714l-31.763 6.389-29.413 35.002-.638 32.304a27.145 27.145 0 0 1-17.759 24.971l-21.419 7.815a27.141 27.141 0 0 1-29.668-7.667l-21.291-24.302-45.043-7.836-28.414 15.568a27.145 27.145 0 0 1-30.057-3.191l-16.712-14.127a27.145 27.145 0 0 1-8.473-29.558l9.961-30.505-15.63-42.838-27.776-16.736a27.14 27.14 0 0 1-12.553-28.069l3.687-21.57a27.14 27.14 0 0 1 20.94-21.798l31.763-6.389 29.923-35.188Zm38.327 123.258a54.291 54.291 0 0 0 48.672 35.629 54.288 54.288 0 0 0 42.32-90.943 54.283 54.283 0 0 0-58.602-14.29 54.288 54.288 0 0 0-32.39 69.604Z" fill="#F4F4F4"/></g><defs><clipPath id="a"><path fill="#fff" transform="rotate(-11.486 1039.091 104.5)" d="M0 0h270v270H0z"/></clipPath><clipPath id="b"><path fill="#fff" transform="rotate(-20.045 468.61 -489)" d="M0 0h380v380H0z"/></clipPath></defs></svg>