<svg width="175" height="29" fill="none" xmlns="http://www.w3.org/2000/svg"><g clip-path="url(#a)"><mask id="b" style="mask-type:luminance" maskUnits="userSpaceOnUse" x="0" y="1" width="80" height="24"><path d="M80 1.1H0v23.82h80V1.1Z" fill="#fff"/></mask><g mask="url(#b)" fill="#F8EB00"><path d="M28.88 24.541h-8.856c-.01-.27-.01-.251.288-.3.482-.087.982-.164 1.444-.32.693-.222 1.117-.754 1.271-1.45.25-1.075.462-2.16.654-3.243.347-1.907.665-3.823.992-5.74.347-2.042.703-4.074 1.05-6.116l.548-3.117c.02-.087.029-.184.038-.27-.019-.01-.038-.01-.057-.02-.174.29-.347.58-.51.88-.877 1.51-1.743 3.02-2.619 4.54-.808 1.403-1.607 2.807-2.416 4.21-.799 1.384-1.607 2.768-2.397 4.162-.74 1.287-1.472 2.574-2.204 3.852a514.441 514.441 0 0 1-1.829 3.165.341.341 0 0 1-.26.145c-.279.02-.558.01-.856.01-1.839-6.563-3.687-13.124-5.526-19.677-.019 0-.038 0-.067.01l-.231 1.326c-.385 2.216-.77 4.442-1.155 6.668-.376 2.226-.76 4.443-1.117 6.669-.125.813-.125 1.635.068 2.448.211.852.76 1.365 1.569 1.588.51.135 1.03.203 1.55.3.105.019.22.019.356.029-.01.097-.02.184-.03.261H.003c-.02-.213.096-.28.308-.3 1.357-.136 2.358-.803 2.994-2.033.53-1.025.789-2.138.991-3.261a757.456 757.456 0 0 0 1.608-9.204c.26-1.549.49-3.097.674-4.656.077-.619.028-1.258-.03-1.877-.076-.842-.644-1.346-1.559-1.462-.385-.048-.76-.077-1.184-.116.01-.087.01-.193.02-.329h.26c1.982-.02 3.946-.02 5.91-.029.202 0 .27.068.317.252.924 3.31 1.848 6.61 2.782 9.92.77 2.74 1.53 5.468 2.291 8.207.096.33.193.659.298 1.055.193-.319.357-.6.52-.88.924-1.597 1.839-3.185 2.763-4.782.674-1.16 1.338-2.332 2.012-3.493.847-1.481 1.703-2.952 2.56-4.433.674-1.162 1.338-2.333 2.012-3.494.424-.745.857-1.49 1.29-2.226.029-.058.125-.107.183-.107 1.973-.01 3.946 0 5.92 0 .019 0 .048.01.067.02.038.222-.02.32-.28.339-.51.048-1.02.125-1.51.232-.732.155-1.165.658-1.358 1.355a21.422 21.422 0 0 0-.452 2.071c-.337 1.868-.664 3.746-.992 5.614l-1.241 7.094c-.193 1.123-.405 2.236-.578 3.358a6.042 6.042 0 0 0-.048 1.181c.048.764.308 1.248 1.04 1.48.423.136 1.347.281 1.732.291m-7.671-.116c1.232.02 2.271-.59 3.205-1.558 1.107-1.142 1.896-2.517 2.666-3.891.722-1.287 1.454-2.565 2.176-3.842.645-1.142 1.28-2.294 1.925-3.436l2.743-4.85c.645-1.131 1.27-2.273 1.916-3.416.375-.658.75-1.326 1.136-1.984.028-.058.096-.125.144-.125.49-.01.972-.01 1.473-.01.173.92.337 1.82.5 2.72l1.184 6.474c.328 1.79.645 3.572.972 5.362.385 2.09.77 4.172 1.175 6.253.077.425.23.841.394 1.238.27.64.8.968 1.464 1.065.173.029.346.048.52.068.067.232-.02.116-.251.106-1.386-.029-2.772.126-4.158.126-1.367 0-2.724.039-4.091.068h-.289c.01-.107.02-.184.038-.339.395 0 .78.01 1.175 0 .279-.01.558-.039.837-.087.645-.116.905-.484.819-1.123-.106-.735-.222-1.461-.337-2.187-.25-1.51-.51-3.03-.751-4.54-.03-.174-.077-.232-.27-.241-1.251-.03-2.502-.097-3.744-.097-1.358-.01-2.705.048-4.062.058-.154 0-.212.077-.27.184-.414.765-.837 1.539-1.251 2.303-.52.968-1.059 1.926-1.57 2.894a4.56 4.56 0 0 0-.413 1.094c-.135.552.096 1.006.587 1.306.558.34 1.184.436 1.82.475.086.01.173.01.279.02-.01.096-.02.183-.03.25h-7.7M36.234 4.808c-1.945 3.504-3.86 6.95-5.795 10.433 2.56.078 5.073.126 7.604-.058-.597-3.436-1.193-6.871-1.81-10.375Z"/><path d="M38.877 24.541c-.02-.222.115-.28.327-.29.674-.058 1.348-.145 1.983-.416.645-.28 1.088-.765 1.27-1.423.27-1.016.492-2.052.684-3.087.356-1.897.664-3.804 1.001-5.71.53-3.05 1.059-6.088 1.57-9.137.086-.523.134-1.055-.01-1.578-.154-.551-.55-.87-1.079-.996-.558-.136-1.126-.204-1.732-.31 0-.058.01-.165.019-.232h2.474c2.204-.01 4.408-.01 6.613-.04 1.973-.028 3.946 0 5.881.475 1.521.368 2.936.949 4.158 1.955 1.435 1.171 2.359 2.671 2.782 4.481.308 1.326.318 2.662.222 4.007-.116 1.587-.433 3.126-1.04 4.588a11.577 11.577 0 0 1-1.935 3.136c-1.395 1.616-3.138 2.72-5.12 3.474-1.483.561-3.013.88-4.582 1.065-1.839.213-3.678.154-5.516.106-2.021-.048-4.033-.039-6.055-.058-.654-.02-1.28-.01-1.915-.01ZM52.17 1.991l-2.464.232c-.202.02-.28.106-.308.31-.145.89-.299 1.78-.462 2.661-.385 2.217-.78 4.443-1.175 6.659-.385 2.216-.78 4.423-1.155 6.64-.163.948-.74 4.248-.828 5.206h2.792c1.733 0 2.888.097 5.294-.484 2.166-.56 3.398-1.49 4.794-3.261 1.05-1.336 1.733-2.846 2.156-4.481.424-1.646.568-3.31.54-5.004-.02-1.278-.222-2.526-.723-3.717-.857-2.051-2.33-3.445-4.418-4.18-1.3-.475-2.657-.61-4.043-.581Z"/><path d="M76.579 24.628s-18 0-17.972-.019c-.038-.271.125-.31.328-.329.683-.058 1.347-.145 1.982-.426.665-.29 1.098-.793 1.28-1.48.241-.9.443-1.81.607-2.73.558-3.145 1.107-6.3 1.646-9.446.327-1.868.655-3.726.963-5.594.067-.407.077-.833.067-1.249-.02-.764-.452-1.277-1.232-1.452-.54-.125-1.088-.183-1.656-.28.01-.068.02-.165.03-.271 2.906 0 5.794.029 8.682-.01 2.887-.039 5.785.116 8.682-.242-.375 2.11-.75 4.21-1.126 6.33h-.212c-.058-.426-.106-.862-.173-1.287-.106-.659-.212-1.317-.558-1.907-.434-.745-1.088-1.2-1.877-1.49-1.194-.436-2.445-.562-3.706-.6-.953-.03-1.906-.02-2.86-.04-.182 0-.26.03-.298.233-.558 3.223-1.126 6.436-1.694 9.659-.01.068-.01.136-.02.223.059.01.097.019.136.019 1.164-.039 2.33-.01 3.475-.136 1.28-.135 2.425-.638 3.292-1.654.452-.533.712-1.172.924-1.84.058-.193.067-.193.317-.154-.067.338-.144.668-.211 1.006a1056.72 1056.72 0 0 0-.857 4.898 55.307 55.307 0 0 0-.327 2.148c-.03.194-.106.233-.26.194 0-.31.01-.63 0-.94-.039-.696-.164-1.364-.713-1.857-.433-.387-.962-.571-1.52-.659a16.311 16.311 0 0 0-1.82-.174c-.866-.029-1.732-.01-2.608-.01-.126.707-.26 1.404-.385 2.1-.241 1.346-.491 2.691-.713 4.046-.134.843-.23 1.694-.086 2.546.173 1.035.693 1.587 1.723 1.82 1.02.232 2.05.222 3.09.212.808-.01 1.607-.106 2.387-.358 1.26-.397 2.233-1.19 3.032-2.226a12.955 12.955 0 0 0 1.511-2.536c.077-.174.183-.26.356-.193-.577 2.149-1.058 4.065-1.626 6.155Z"/></g></g><path d="m95.463 14.784 4.68 6.216h-1.896l-3.744-4.944L90.759 21h-1.896l4.704-6.216L89.175 9h1.896l3.432 4.536L97.935 9h1.896l-4.368 5.784Z" fill="#fff"/><g clip-path="url(#c)"><path d="M110.767 20.194v-6.68h5.177c3.15 0 4.747 1.124 4.747 3.34 0 2.123-1.521 3.34-4.172 3.34h-5.752Zm0-13.85h4.948c2.846 0 4.229 1.032 4.229 3.158 0 2.095-1.355 3.114-4.143 3.114h-5.034V6.343Zm11.228 10.51c0-1.838-1.055-3.207-2.894-3.757l-.432-.128.416-.173c1.338-.557 2.105-1.75 2.105-3.27 0-2.661-1.924-4.126-5.418-4.126h-6.28v15.76h7.113c3.375 0 5.39-1.61 5.39-4.307Zm4.637-8.774 6.315 8.443h.222l6.286-8.445V21.16h1.218V5.376h-.518l-7.111 9.527-7.111-9.527h-.519v15.785h1.218V8.08Zm25.64 13.306c3.496 0 6.237-1.583 7.518-4.343.377-.828.598-1.753.678-2.798h-7.843v.854h6.54c-.031.16-.062.32-.102.473l-.022.09h-.005c-.815 2.978-3.249 4.713-6.764 4.713-4.465 0-7.13-2.67-7.13-7.14 0-4.373 2.665-7.025 7.13-7.095 3.187 0 5.176 1.1 6.255 3.46h1.243c-1.086-2.855-3.736-4.427-7.469-4.427-2.382 0-4.523.768-6.03 2.165-1.572 1.456-2.404 3.496-2.404 5.897 0 4.875 3.378 8.151 8.405 8.151Zm-42.78 2.954h50.973v-.864h-50.973v.865Z" fill="#fff"/><mask id="d" style="mask-type:luminance" maskUnits="userSpaceOnUse" x="153" y="1" width="22" height="13"><path d="m156.005 1.987.009-.019-.01.02c-.019.041-.012.028 0 0-.052.121 2.836.89 5.745 1.922 2.91 1.033 5.839 2.327 5.859 3.498-.022 1.254-3.679 2.537-7.295 3.588-3.615 1.05-7.189 1.868-7.043 2.19.264.583 1.736.708 3.794.533 2.058-.175 4.702-.65 7.309-1.265 5.213-1.23 10.278-3.02 10.216-4.098-.059-.99-4.533-2.95-9.078-4.48-3.548-1.193-7.139-2.123-8.708-2.123-.441 0-.722.073-.798.234Zm.015-.033-.006.014.034-.074-.028.06Z" fill="#fff"/></mask><g mask="url(#d)"><path d="M156.005 1.988c-.057.12 2.834.89 5.744 1.922 2.91 1.033 5.839 2.327 5.859 3.498-.022 1.254-3.679 2.537-7.295 3.588-3.615 1.05-7.189 1.868-7.043 2.19.264.583 1.736.708 3.794.533 2.058-.175 4.702-.65 7.309-1.265 5.213-1.23 10.279-3.021 10.216-4.098-.058-.99-4.533-2.951-9.078-4.48-4.545-1.529-9.163-2.626-9.506-1.888.123-.265-.059.126 0 0Z" fill="#BD1176"/><path d="M156.023 1.987c.122-.26-.058.124.001 0 .346-.727 4.911.358 9.405 1.867 4.489 1.51 8.909 3.443 8.984 4.423.08 1.066-4.918 2.714-9.999 4.052-.938.247-1.921.509-2.91.701l-.118.027a36.734 36.734 0 0 1-3.504.562 31.77 31.77 0 0 1-.709.073c-.602.054-1.157.084-1.649.084-.801 0-1.433-.076-1.829-.246-.21-.09-.351-.205-.418-.347-.134-.32 3.406-1.131 6.987-2.171 3.582-1.04 7.224-2.309 7.244-3.55.02-1.158-2.886-2.38-5.712-3.46-.454-.174-.911-.362-1.378-.527-1.818-.643-3.509-1.12-4.159-1.364-.158-.06-.242-.102-.236-.124Z" fill="#D01181"/><path d="M156.041 1.985c.121-.256-.057.122.003 0 .348-.716 4.861.357 9.303 1.847 4.432 1.488 8.801 3.396 8.891 4.366.099 1.054-4.842 2.539-9.782 4.006-.847.251-1.774.554-2.746.748-.039.007-.076.018-.119.03-1.195.293-2.446.464-3.583.604a31.4 31.4 0 0 1-.726.079 19.99 19.99 0 0 1-1.688.096c-.818.005-1.467-.067-1.876-.236-.219-.088-.365-.203-.434-.345-.122-.318 3.385-1.123 6.931-2.153 3.547-1.03 7.152-2.284 7.194-3.51.039-1.146-2.827-2.29-5.565-3.424-.421-.174-.845-.384-1.305-.558-1.785-.673-3.537-1.16-4.253-1.424-.16-.06-.247-.103-.245-.126Z" fill="#BF1176"/><path d="M156.06 1.984c.119-.252-.056.12.003 0 .351-.706 4.813.356 9.203 1.827 4.375 1.468 8.69 3.35 8.797 4.309.116 1.042-4.779 2.344-9.565 3.959-.759.256-1.626.603-2.583.795-.038.007-.074.02-.12.033-1.185.322-2.478.495-3.661.646-.253.033-.501.06-.742.085-.628.063-1.21.1-1.728.108-.835.01-1.501-.058-1.923-.224-.229-.087-.378-.203-.449-.344-.112-.317 3.362-1.115 6.875-2.135 3.512-1.019 7.08-2.258 7.143-3.472.058-1.132-2.774-2.192-5.419-3.386-.387-.175-.777-.406-1.232-.589-1.751-.702-3.563-1.197-4.347-1.485-.162-.059-.251-.103-.252-.127Z" fill="#C01176"/><path d="M156.079 1.983c.117-.248-.055.117.004 0 .354-.695 4.763.354 9.101 1.806 4.319 1.447 8.581 3.302 8.704 4.252.134 1.03-4.736 2.12-9.348 3.912-.675.263-1.478.653-2.42.842-.037.008-.072.023-.12.037-1.176.342-2.511.524-3.74.689-.258.034-.512.063-.759.09-.641.067-1.236.109-1.768.12-.851.015-1.534-.05-1.968-.213-.239-.087-.393-.202-.466-.343-.1-.315 3.341-1.107 6.819-2.116 3.478-1.009 7.009-2.234 7.092-3.434.078-1.12-2.727-2.087-5.271-3.349-.356-.176-.711-.428-1.159-.62-1.717-.731-3.591-1.237-4.441-1.544-.164-.06-.255-.104-.26-.129Z" fill="#C01177"/><path d="M156.089 1.982c.116-.244-.054.115.006 0 .357-.685 4.713.353 8.999 1.786 4.263 1.426 8.472 3.255 8.612 4.195.151 1.018-4.425 2.7-9.132 3.865-.536.374-1.33.7-2.256.89-.036.007-.071.023-.121.039-1.166.37-2.544.553-3.818.731a26.94 26.94 0 0 1-.777.096 21.59 21.59 0 0 1-1.807.132c-.869.02-1.568-.04-2.015-.202-.248-.085-.406-.2-.481-.34-.089-.315 3.318-1.1 6.762-2.099 3.444-.998 6.938-2.209 7.042-3.395.098-1.107-2.687-1.978-5.125-3.312-.325-.178-.643-.45-1.085-.65-1.683-.761-3.618-1.276-4.536-1.606-.165-.059-.259-.105-.268-.13Z" fill="#C11177"/><path d="M156.108 1.98c.114-.24-.053.113.007.001.36-.674 4.664.351 8.898 1.765 4.206 1.406 8.362 3.208 8.518 4.139.169 1.006-4.309 2.665-8.914 3.818-.437.4-1.183.744-2.094.936-.035.008-.069.025-.121.043-1.157.39-2.577.581-3.896.773-.27.039-.535.072-.794.102-.666.076-1.289.126-1.847.144-.886.025-1.601-.032-2.061-.192-.258-.084-.42-.2-.498-.338-.076-.313 3.298-1.092 6.706-2.08 3.41-.988 6.867-2.184 6.992-3.357.117-1.094-2.438-2.304-4.978-3.275a4.21 4.21 0 0 0-1.011-.68c-1.65-.79-3.647-1.314-4.631-1.666-.166-.06-.263-.106-.276-.132Z" fill="#C21177"/><path d="M156.127 1.98c.112-.236-.053.11.007 0 .363-.665 4.615.35 8.798 1.744 4.148 1.386 8.252 3.162 8.424 4.082.186.995-4.193 2.631-8.697 3.772-.338.426-1.035.793-1.931.983-.034.007-.067.027-.121.046-1.149.407-2.61.61-3.976.815a28.043 28.043 0 0 1-2.696.264c-.903.031-1.635-.023-2.108-.18-.268-.084-.434-.2-.514-.337-.065-.313 3.276-1.084 6.65-2.062 3.376-.977 6.796-2.16 6.942-3.319.136-1.082-2.353-2.277-4.831-3.238a3.188 3.188 0 0 0-.939-.71c-1.615-.819-3.673-1.353-4.725-1.727-.168-.06-.267-.107-.283-.134Z" fill="#C31177"/><path d="M156.145 1.978c.111-.231-.051.108.009.001.366-.654 4.565.348 8.696 1.723 4.092 1.366 8.142 3.115 8.331 4.025.204.983-4.077 2.598-8.48 3.726-.239.452-.887.838-1.767 1.03-.034.007-.066.028-.122.049-1.14.425-2.643.639-4.054.858-.28.043-.557.08-.827.113a23.91 23.91 0 0 1-1.926.168c-.92.037-1.669-.014-2.154-.17-.277-.082-.448-.197-.53-.335-.054-.31 3.254-1.076 6.594-2.043 3.341-.967 6.724-2.134 6.891-3.28.156-1.07-2.267-2.25-4.684-3.2a2.475 2.475 0 0 0-.866-.744c-1.58-.845-3.701-1.39-4.819-1.785-.169-.06-.271-.108-.292-.136Z" fill="#C31177"/><path d="M156.164 1.977c.109-.227-.05.106.01.001.368-.644 4.516.347 8.595 1.703 4.035 1.345 8.032 3.067 8.237 3.968.222.971-3.962 2.564-8.263 3.678-.14.479-.739.884-1.604 1.078-.033.007-.064.03-.123.052-1.131.443-2.674.67-4.131.9-.286.045-.569.083-.845.119a24.82 24.82 0 0 1-1.965.18c-.937.042-1.703-.005-2.2-.159-.288-.08-.463-.196-.546-.333-.043-.31 3.232-1.068 6.537-2.025 3.307-.957 6.653-2.11 6.84-3.242.176-1.057-2.182-2.223-4.537-3.164-.142-.259-.374-.537-.792-.773-1.545-.872-3.728-1.43-4.913-1.846-.171-.06-.276-.109-.3-.137Z" fill="#C41177"/><path d="M156.183 1.976c.107-.223-.049.103.011 0 .371-.635 4.466.346 8.494 1.683 3.978 1.324 7.922 3.02 8.144 3.911.239.96-3.846 2.53-8.046 3.633-.041.504-.592.933-1.441 1.123-.033.008-.062.031-.123.056-1.124.458-2.708.697-4.211.942-.291.048-.579.088-.861.126-.718.095-1.395.16-2.005.19-.954.048-1.736.005-2.247-.146-.297-.08-.476-.196-.562-.332-.03-.309 3.211-1.06 6.482-2.007 3.272-.946 6.581-2.086 6.79-3.203.195-1.045-2.097-2.197-4.391-3.127-.104-.27-.307-.559-.718-.804-1.511-.898-3.756-1.469-5.008-1.907-.173-.06-.28-.109-.308-.138Z" fill="#C51177"/><path d="M156.202 1.974c.106-.218-.048.102.012.002.374-.625 4.417.344 8.392 1.66 3.922 1.306 7.813 2.974 8.051 3.856.257.947-3.73 2.496-7.829 3.585.059.53-.444.978-1.277 1.17-.032.008-.061.034-.124.06-1.116.473-2.74.726-4.289.985-.297.05-.591.09-.879.13-.73.098-1.421.17-2.044.203-.971.052-1.77.014-2.293-.136-.307-.08-.49-.194-.578-.33-.02-.307 3.189-1.052 6.425-1.988 3.238-.936 6.51-2.061 6.74-3.165.214-1.032-2.012-2.17-4.244-3.09-.065-.278-.239-.58-.645-.834-1.476-.924-3.784-1.507-5.102-1.967-.174-.06-.285-.11-.316-.14Z" fill="#C61177"/><path d="M156.213 1.973c.104-.214-.047.099.013.001.377-.615 4.368.343 8.292 1.641 3.864 1.284 7.702 2.927 7.957 3.798.273.935-3.615 2.463-7.612 3.539.158.556-.297 1.024-1.114 1.217-.032.008-.06.034-.125.063-1.108.487-2.773.755-4.367 1.027a30.99 30.99 0 0 1-.896.136 27.34 27.34 0 0 1-2.084.215c-.988.058-1.803.022-2.339-.125-.316-.078-.504-.193-.594-.328-.008-.306 3.168-1.045 6.369-1.97 3.204-.926 6.438-2.037 6.689-3.126.234-1.02-1.926-2.144-4.097-3.053-.026-.289-.171-.601-.572-.865-1.44-.95-3.81-1.546-5.196-2.028-.176-.06-.289-.111-.324-.142Z" fill="#C61177"/><path d="M156.232 1.972c.102-.21-.046.096.014.001.381-.606 4.318.342 8.19 1.62 3.808 1.264 7.593 2.88 7.864 3.742.291.922-3.499 2.428-7.395 3.492.257.582-.148 1.068-.951 1.264-.031.008-.057.035-.125.066-1.1.5-2.806.783-4.446 1.069-.307.053-.612.099-.913.142-.755.109-1.473.186-2.123.227-1.005.062-1.837.03-2.385-.114-.327-.077-.518-.192-.61-.327.003-.304 3.146-1.036 6.313-1.951 3.169-.916 6.366-2.012 6.637-3.088.255-1.008-1.84-2.117-3.949-3.016.012-.298-.104-.622-.499-.896-1.405-.973-3.838-1.585-5.29-2.087a1.452 1.452 0 0 1-.332-.144Z" fill="#C71177"/><path d="M156.251 1.97c.101-.205-.044.095.015.002.384-.596 4.269.34 8.089 1.6 3.751 1.243 7.483 2.832 7.771 3.684.308.91-3.384 2.395-7.178 3.446.356.608 0 1.117-.788 1.311-.03.008-.056.037-.126.07-1.091.515-2.838.81-4.524 1.11-.313.056-.624.103-.93.148-.768.11-1.5.196-2.163.24-1.022.067-1.87.039-2.431-.104-.336-.076-.532-.191-.627-.325.015-.303 3.124-1.029 6.257-1.933 3.135-.905 6.295-1.988 6.588-3.05.273-.995-1.755-2.09-3.803-2.978.05-.308-.036-.643-.426-.927-1.37-.998-3.864-1.623-5.384-2.147a1.588 1.588 0 0 1-.34-.146Z" fill="#C81177"/><path d="M156.27 1.97c.099-.202-.043.091.016 0 .388-.586 4.219.34 7.988 1.58 3.694 1.223 7.373 2.785 7.677 3.628.325.899-3.268 2.36-6.961 3.398.455.634.148 1.163-.624 1.358-.03.008-.054.039-.127.073-1.085.526-2.871.84-4.602 1.153-.319.058-.636.107-.947.154-.781.115-1.527.203-2.202.25-1.039.073-1.904.05-2.479-.091-.345-.075-.545-.19-.642-.323.027-.302 3.102-1.021 6.201-1.915 3.1-.895 6.224-1.963 6.537-3.012.293-.982-1.67-2.062-3.656-2.94.089-.318.032-.665-.352-.958-1.335-1.021-3.891-1.666-5.479-2.208a1.697 1.697 0 0 1-.348-.148Z" fill="#C81177"/><path d="M156.288 1.968c.098-.198-.041.09.018.001.391-.578 4.17.338 7.887 1.56 3.637 1.201 7.262 2.737 7.584 3.57.342.886-3.153 2.326-6.745 3.352.554.66.296 1.207-.46 1.405-.029.007-.053.04-.128.076-1.077.539-2.904.868-4.681 1.195-.324.06-.646.112-.963.16-.794.12-1.554.211-2.242.262-1.056.078-1.938.058-2.525-.08-.355-.074-.559-.19-.658-.322.038-.3 3.081-1.013 6.144-1.897 3.066-.884 6.153-1.938 6.487-2.973.312-.97-1.585-2.035-3.509-2.903.127-.327.1-.685-.279-.989-1.3-1.043-3.919-1.703-5.573-2.268a1.922 1.922 0 0 1-.357-.15Z" fill="#C91178"/><path d="M156.308 1.967c.096-.193-.041.087.019.002.395-.569 4.12.335 7.785 1.538 3.581 1.182 7.152 2.69 7.491 3.514.359.874-3.037 2.293-6.528 3.305.654.686.445 1.257-.297 1.452-.028.008-.052.04-.128.08-1.072.547-2.937.896-4.76 1.237-.329.061-.657.115-.98.165-.807.124-1.58.22-2.282.274-1.073.083-1.971.067-2.571-.07-.365-.072-.573-.187-.674-.32.049-.298 3.059-1.004 6.088-1.877 3.032-.874 6.082-1.914 6.436-2.935.333-.957-1.499-2.008-3.361-2.867.165-.336.167-.704-.206-1.019-1.266-1.065-3.946-1.742-5.668-2.328a2.078 2.078 0 0 1-.364-.151Z" fill="#CA1178"/><path d="M156.319 1.965c.095-.188-.039.085.02.002.398-.56 4.071.335 7.684 1.518 3.524 1.161 7.042 2.644 7.397 3.457.377.862-2.921 2.259-6.31 3.259.752.712.592 1.302-.135 1.499-.027.008-.049.042-.128.083-1.066.558-2.97.925-4.838 1.28a33.6 33.6 0 0 1-.997.17c-.82.13-1.607.229-2.322.286-1.089.088-2.005.076-2.617-.059-.374-.071-.587-.187-.69-.318.061-.297 3.037-.997 6.032-1.86 2.997-.863 6.01-1.889 6.385-2.896.353-.946-1.414-1.981-3.215-2.83.204-.345.236-.725-.132-1.05-1.231-1.086-3.974-1.78-5.762-2.388a2.18 2.18 0 0 1-.372-.153Z" fill="#CB1178"/><path d="M156.338 1.964c.093-.184-.038.083.021.002.403-.55 4.021.334 7.583 1.497 3.468 1.141 6.932 2.597 7.304 3.4.393.85-2.806 2.226-6.094 3.213.852.738.741 1.347.029 1.546-.027.007-.048.043-.128.086-1.059.57-3.003.953-4.917 1.322-.341.065-.68.122-1.015.176-.832.133-1.633.238-2.36.298-1.108.093-2.039.085-2.664-.047-.384-.071-.601-.186-.706-.317.072-.296 3.015-.99 5.976-1.841 2.963-.853 5.939-1.866 6.334-2.858.373-.934-1.328-1.955-3.067-2.793.242-.355.303-.745-.059-1.08-1.197-1.108-4.001-1.821-5.857-2.45a2.427 2.427 0 0 1-.38-.154Z" fill="#CC1178"/><path d="M156.357 1.963c.092-.18-.037.08.022.002.407-.542 3.972.332 7.482 1.476 3.41 1.12 6.821 2.55 7.21 3.344.411.838-2.69 2.191-5.876 3.166.95.763.891 1.4.192 1.593-.026.007-.047.044-.129.089-1.052.581-3.036.98-4.996 1.364-.345.067-.691.126-1.031.182-.845.137-1.659.246-2.4.31-1.124.097-2.073.093-2.71-.037-.394-.07-.615-.185-.723-.315.084-.295 2.995-.981 5.92-1.823 2.929-.842 5.867-1.841 6.285-2.82.39-.92-1.244-1.927-2.921-2.755.281-.365.37-.765.014-1.11-1.163-1.128-4.028-1.861-5.95-2.51a2.6 2.6 0 0 1-.389-.156Z" fill="#CC1278"/><path d="M156.376 1.961c.09-.176-.035.078.023.003.412-.534 3.923.33 7.381 1.456 3.354 1.1 6.711 2.501 7.117 3.286.428.826-2.574 2.158-5.659 3.119 1.049.79 1.039 1.446.355 1.64-.026.007-.045.046-.13.093-1.047.588-3.068 1.01-5.074 1.406-.351.07-.702.13-1.048.188-.858.141-1.686.254-2.44.322-1.141.102-2.106.102-2.756-.026-.403-.069-.629-.184-.739-.313.096-.294 2.973-.974 5.864-1.805 2.895-.832 5.796-1.816 6.234-2.78.411-.91-1.158-1.901-2.774-2.72.319-.374.438-.784.087-1.141-1.128-1.147-4.054-1.9-6.044-2.57a2.773 2.773 0 0 1-.397-.158Z" fill="#CD1278"/><path d="M156.395 1.96c.088-.171-.034.076.024.003.416-.525 3.873.329 7.279 1.435 3.297 1.08 6.601 2.455 7.024 3.23.444.814-2.458 2.124-5.442 3.072 1.148.816 1.187 1.491.519 1.687-.025.007-.044.046-.131.097-1.041.599-3.101 1.037-5.152 1.447a36.74 36.74 0 0 1-1.065.194c-.872.148-1.713.263-2.48.334-1.158.107-2.139.111-2.802-.015-.414-.067-.644-.182-.755-.31.107-.293 2.951-.967 5.807-1.788 2.861-.822 5.726-1.792 6.184-2.742.431-.897-1.073-1.874-2.627-2.681.358-.385.506-.805.16-1.173-1.095-1.167-4.082-1.94-6.138-2.63a3.059 3.059 0 0 1-.405-.16Z" fill="#CE1178"/><path d="M156.414 1.96c.087-.169-.033.072.026.001.419-.516 3.823.328 7.177 1.415 3.241 1.06 6.491 2.408 6.931 3.173.461.802-2.343 2.09-5.225 3.026 1.247.842 1.335 1.536.682 1.734-.025.007-.042.047-.132.1-1.035.608-3.134 1.066-5.23 1.49-.362.073-.725.139-1.082.2-.884.151-1.739.27-2.52.345-1.175.112-2.173.12-2.849-.004-.422-.066-.656-.181-.77-.309.118-.291 2.929-.959 5.751-1.769 2.826-.811 5.656-1.768 6.133-2.703.452-.885-.987-1.848-2.48-2.645.397-.394.573-.824.234-1.203-1.062-1.185-4.109-1.98-6.233-2.69a3.375 3.375 0 0 1-.413-.162Z" fill="#CE1278"/><path d="M156.425 1.958c.085-.163-.03.071.027.003.425-.508 3.774.326 7.076 1.394 3.184 1.038 6.38 2.36 6.838 3.116.477.79-2.228 2.056-5.008 2.98 1.346.867 1.483 1.579.844 1.78-.023.007-.04.048-.131.103-1.031.615-3.167 1.094-5.309 1.532a40.618 40.618 0 0 1-3.658.563c-1.192.117-2.207.129-2.896.007-.432-.066-.67-.18-.786-.308.13-.29 2.907-.95 5.695-1.75 2.792-.8 5.585-1.743 6.082-2.665.473-.873-.901-1.82-2.333-2.608.435-.403.641-.843.307-1.234-1.028-1.202-4.135-2.02-6.327-2.75a3.652 3.652 0 0 1-.421-.163Z" fill="#CF1278"/><path d="M156.444 1.957c.084-.16-.029.069.028.002.43-.5 3.724.326 6.975 1.374 3.127 1.019 6.27 2.313 6.744 3.06.494.777-2.112 2.022-4.791 2.932 1.446.894 1.634 1.63 1.008 1.828-.023.006-.039.05-.132.106-1.025.625-3.2 1.122-5.388 1.575a38.89 38.89 0 0 1-1.116.21c-.91.159-1.792.288-2.598.37-1.209.122-2.241.138-2.942.018-.442-.064-.684-.18-.802-.306.141-.288 2.885-.942 5.639-1.732 2.757-.79 5.514-1.718 6.031-2.627.494-.86-.816-1.793-2.186-2.57.474-.413.709-.863.38-1.265-.995-1.22-4.162-2.058-6.421-2.81a3.945 3.945 0 0 1-.429-.165Z" fill="#D01278"/><path d="M156.463 1.956c.082-.155-.016.075.029.002.516-.406 3.675.324 6.874 1.353 3.07.998 6.159 2.267 6.651 3.003.51.766-1.997 1.988-4.575 2.886 1.545.92 1.783 1.674 1.172 1.874-.023.007-.038.051-.133.11-1.021.632-3.233 1.15-5.466 1.617-.379.079-.758.15-1.133.216-.923.163-1.818.297-2.638.382-1.226.126-2.274.147-2.988.03-.452-.065-.698-.18-.818-.305.152-.288 2.863-.935 5.582-1.714 2.723-.78 5.442-1.695 5.981-2.588.512-.85-.731-1.767-2.039-2.534.512-.422.776-.881.454-1.295-.963-1.238-4.19-2.098-6.516-2.87a4.169 4.169 0 0 1-.437-.167Z" fill="#D11278"/><path d="M156.482 1.955c.081-.151-.014.073.03.003.523-.395 3.626.322 6.773 1.332 3.014.977 6.049 2.219 6.557 2.946.528.753-1.88 1.954-4.357 2.839 1.644.946 1.932 1.723 1.335 1.921-.022.007-.036.052-.133.114-1.015.642-3.266 1.177-5.545 1.658-.384.081-.769.154-1.15.223-.935.167-1.844.304-2.678.393-1.242.131-2.307.155-3.033.04-.462-.062-.713-.178-.836-.302.165-.287 2.843-.927 5.527-1.696 2.689-.77 5.372-1.67 5.931-2.55.532-.837-.646-1.74-1.893-2.496.551-.432.844-.9.527-1.326-.931-1.255-4.216-2.138-6.61-2.931a4.649 4.649 0 0 1-.445-.168Z" fill="#D21279"/><path d="M156.501 1.953c.079-.146-.012.072.031.003.529-.381 3.577.32 6.672 1.312 2.957.957 5.938 2.172 6.464 2.889.544.741-1.765 1.92-4.14 2.792 1.742.973 2.08 1.768 1.497 1.969-.02.007-.035.053-.133.116-1.012.648-3.3 1.205-5.624 1.701-.389.083-.78.158-1.166.229-.949.173-1.872.313-2.717.404-1.26.137-2.342.165-3.081.052-.472-.061-.727-.177-.851-.301.176-.285 2.821-.919 5.471-1.677 2.654-.76 5.3-1.647 5.88-2.512.552-.824-.561-1.713-1.746-2.459.589-.441.91-.92.6-1.357-.899-1.27-4.244-2.177-6.704-2.991a4.8 4.8 0 0 1-.453-.17Z" fill="#D21279"/><path d="M156.52 1.951c.078-.142-.01.07.033.003.535-.368 3.526.32 6.57 1.292 2.9.936 5.827 2.125 6.37 2.832.561.73-1.649 1.887-3.923 2.746 1.842.998 2.23 1.813 1.661 2.015-.02.007-.033.054-.134.12-1.006.659-3.332 1.232-5.702 1.743a42.65 42.65 0 0 1-1.184.234 40.41 40.41 0 0 1-2.756.417c-1.277.142-2.375.173-3.127.063-.481-.06-.74-.176-.867-.3.187-.284 2.799-.91 5.414-1.658 2.62-.75 5.23-1.623 5.83-2.474.572-.812-.475-1.686-1.599-2.422.628-.45.977-.938.674-1.388-.869-1.287-4.271-2.219-6.799-3.051a5.298 5.298 0 0 1-.461-.172Z" fill="#D31279"/><path d="M156.531 1.95c.076-.138-.008.068.034.003.542-.356 3.477.319 6.469 1.272 2.843.916 5.716 2.077 6.277 2.775.577.717-1.534 1.853-3.706 2.699 1.941 1.024 2.38 1.862 1.824 2.062-.02.007-.032.055-.134.123-1.002.666-3.366 1.261-5.781 1.786-.4.087-.802.165-1.201.24-.973.182-1.924.329-2.796.428-1.294.146-2.409.182-3.173.074-.491-.06-.754-.175-.883-.298.199-.282 2.777-.903 5.358-1.64 2.586-.739 5.16-1.598 5.779-2.435.593-.8-.39-1.66-1.452-2.385.667-.46 1.044-.957.747-1.418-.838-1.304-4.297-2.26-6.893-3.113a5.718 5.718 0 0 1-.469-.173Z" fill="#D41279"/><path d="M156.55 1.95c.074-.134-.007.065.035.003.549-.344 3.428.316 6.368 1.25 2.786.896 5.605 2.03 6.183 2.718.594.706-1.418 1.82-3.489 2.653 2.04 1.05 2.53 1.906 1.988 2.109-.019.007-.03.056-.136.127-.997.673-3.398 1.288-5.858 1.827a44.5 44.5 0 0 1-1.218.246 41.97 41.97 0 0 1-2.836.44c-1.311.151-2.442.191-3.219.085-.501-.059-.768-.173-.899-.296.21-.281 2.755-.895 5.301-1.622 2.552-.728 5.089-1.573 5.729-2.397.613-.788-.304-1.632-1.305-2.347.705-.47 1.111-.976.82-1.45-.807-1.318-4.324-2.298-6.987-3.172a6.156 6.156 0 0 1-.477-.175Z" fill="#D51279"/><path d="M156.569 1.948c.073-.13-.005.064.036.003.555-.33 3.378.316 6.267 1.23 2.729.875 5.494 1.984 6.09 2.662.61.694-1.302 1.785-3.272 2.606 2.139 1.076 2.633 1.86 2.151 2.155-.02.004-.029.058-.136.13-.993.682-3.431 1.317-5.938 1.87a45.753 45.753 0 0 1-4.11.704c-1.328.156-2.475.2-3.266.096-.509-.057-.781-.173-.914-.295.221-.28 2.733-.887 5.245-1.603 2.517-.718 5.018-1.55 5.678-2.358.633-.777-.219-1.605-1.158-2.31.744-.48 1.178-.995.894-1.481-.778-1.333-4.352-2.337-7.082-3.232a6.437 6.437 0 0 1-.485-.177Z" fill="#D51279"/><path d="M156.588 1.946c.072-.125-.003.063.037.003.562-.317 3.331.31 6.165 1.21 2.675.85 5.385 1.937 5.998 2.604.626.683-1.187 1.752-3.055 2.56 2.238 1.102 2.78 1.905 2.314 2.202-.019.004-.028.058-.137.134-.989.69-3.464 1.344-6.016 1.912-.416.093-.836.177-1.252.257a44.552 44.552 0 0 1-2.914.464c-1.346.158-2.51.21-3.312.107-.52-.056-.796-.171-.932-.292.234-.279 2.713-.88 5.19-1.586 2.483-.707 4.948-1.525 5.627-2.32.654-.764-.133-1.578-1.01-2.273.781-.49 1.243-1.013.966-1.51-.749-1.35-4.378-2.38-7.175-3.294a7.217 7.217 0 0 1-.494-.178Z" fill="#D61279"/><path d="M156.607 1.946c.07-.122-.002.06.038.003.569-.305 3.28.313 6.064 1.189 2.616.834 5.273 1.89 5.904 2.548.642.67-1.071 1.717-2.838 2.512 2.337 1.128 2.927 1.949 2.477 2.25-.018.003-.027.058-.137.137-.985.697-3.497 1.37-6.094 1.954-.422.095-.848.18-1.269.263a45.39 45.39 0 0 1-2.955.476c-1.362.162-2.542.218-3.358.118-.529-.056-.81-.17-.947-.291.245-.278 2.69-.872 5.134-1.567 2.447-.697 4.877-1.501 5.576-2.282.674-.751-.048-1.551-.864-2.236.82-.499 1.31-1.03 1.04-1.541-.719-1.365-4.405-2.417-7.27-3.353a7.965 7.965 0 0 1-.501-.18Z" fill="#D71279"/><path d="M156.626 1.944c.068-.117 0 .058.039.004.576-.293 3.232.306 5.963 1.168 2.561.809 5.162 1.843 5.81 2.491.659.659-.955 1.684-2.621 2.466 2.436 1.154 3.074 1.992 2.641 2.297-.018.003-.025.06-.138.14-.981.705-3.529 1.4-6.173 1.996-.428.096-.858.184-1.286.269a45.007 45.007 0 0 1-2.993.487c-1.379.171-2.577.227-3.405.13-.539-.055-.824-.17-.963-.29.256-.276 2.669-.863 5.077-1.548 2.414-.687 4.807-1.477 5.527-2.244.694-.74.036-1.524-.718-2.199.859-.508 1.376-1.049 1.114-1.572-.691-1.38-4.433-2.457-7.365-3.413a8.885 8.885 0 0 1-.509-.182Z" fill="#D81279"/><path d="M156.638 1.943c.066-.112.001.056.04.004.582-.28 3.182.304 5.861 1.147 2.505.788 5.051 1.796 5.717 2.434.675.647-.84 1.65-2.404 2.42 2.535 1.18 3.221 2.035 2.804 2.343-.017.003-.024.06-.138.144-.977.712-3.562 1.428-6.252 2.038a49.044 49.044 0 0 1-4.336.774c-1.396.173-2.61.236-3.451.14-.549-.053-.837-.168-.979-.287.268-.275 2.647-.856 5.021-1.53 2.38-.677 4.736-1.453 5.476-2.206.714-.727.122-1.497-.57-2.161.897-.518 1.441-1.067 1.187-1.604-.663-1.393-4.459-2.5-7.459-3.473a8.542 8.542 0 0 1-.517-.183Z" fill="#D81279"/><path d="M156.656 1.941c.065-.108.003.055.041.005.589-.267 3.134.303 5.761 1.127 2.448.767 4.94 1.749 5.624 2.377.691.635-.725 1.616-2.187 2.372 2.634 1.207 3.368 2.08 2.967 2.39-.016.004-.023.062-.139.148-.973.72-3.596 1.455-6.33 2.08a44.32 44.32 0 0 1-1.32.28c-1.063.211-2.109.39-3.073.512-1.412.18-2.644.245-3.497.151-.558-.052-.851-.167-.995-.285.279-.274 2.625-.849 4.964-1.513 2.345-.665 4.667-1.427 5.426-2.166.735-.715.207-1.47-.424-2.125.936-.528 1.507-1.085 1.26-1.633-.634-1.41-4.486-2.54-7.553-3.534a9.497 9.497 0 0 1-.525-.186Z" fill="#D91279"/><path d="M156.675 1.94c.063-.104.005.052.043.004.595-.254 3.084.302 5.659 1.106 2.391.747 4.829 1.703 5.53 2.321.708.624-.608 1.583-1.97 2.326 2.733 1.233 3.515 2.123 3.131 2.438-.016.002-.022.061-.14.15-.969.728-3.629 1.482-6.408 2.123-.444.102-.892.196-1.337.285a48.564 48.564 0 0 1-3.112.524c-1.431.183-2.678.254-3.544.162-.568-.051-.866-.166-1.011-.284.29-.272 2.603-.84 4.908-1.494 2.311-.655 4.596-1.403 5.375-2.128.756-.703.293-1.443-.276-2.087.974-.538 1.572-1.104 1.333-1.665-.608-1.424-4.514-2.577-7.647-3.594-.217-.07-.4-.135-.534-.187Z" fill="#DA1279"/><path d="M156.694 1.939c.062-.1.007.05.044.004.602-.241 3.034.3 5.558 1.086 2.334.727 4.718 1.656 5.437 2.264.723.612-.493 1.548-1.754 2.279 2.833 1.259 3.663 2.167 3.294 2.484-.015.003-.02.063-.14.154-.966.735-3.662 1.51-6.487 2.165a51.321 51.321 0 0 1-4.505.827c-1.448.187-2.711.263-3.59.173-.578-.05-.88-.165-1.028-.282.302-.271 2.582-.833 4.853-1.476 2.276-.645 4.525-1.379 5.324-2.09.776-.69.378-1.416-.129-2.05 1.012-.547 1.637-1.122 1.406-1.695-.58-1.439-4.54-2.62-7.742-3.655-.218-.07-.403-.136-.541-.188Z" fill="#DB127A"/><path d="M156.714 1.937c.059-.095.008.05.044.004.609-.228 2.985.3 5.457 1.066 2.278.706 4.607 1.609 5.344 2.207.739.6-.378 1.515-1.537 2.233 2.932 1.284 3.809 2.21 3.457 2.53-.014.004-.019.064-.14.158-.962.744-3.695 1.537-6.565 2.207-.455.106-.914.204-1.371.298a50.189 50.189 0 0 1-3.192.546c-1.464.193-2.744.272-3.636.185-.588-.05-.893-.165-1.044-.28.314-.27 2.561-.826 4.797-1.458 2.242-.635 4.455-1.355 5.274-2.051.797-.678.463-1.39.017-2.014 1.051-.556 1.703-1.14 1.48-1.726-.554-1.453-4.568-2.657-7.836-3.714a12.344 12.344 0 0 1-.549-.19Z" fill="#DC127A"/><path d="M156.733 1.936c.058-.091.009.047.045.005.615-.216 2.936.297 5.356 1.044 2.221.686 4.496 1.563 5.25 2.15.756.59-.261 1.481-1.319 2.187 3.03 1.31 3.956 2.254 3.62 2.578-.014.003-.018.064-.141.16-.959.751-3.728 1.566-6.644 2.25a53.658 53.658 0 0 1-4.619.861c-1.481.198-2.778.281-3.683.196-.597-.048-.906-.163-1.059-.28.325-.267 2.539-.815 4.74-1.438 2.208-.624 4.385-1.33 5.223-2.013.818-.665.55-1.362.165-1.976 1.09-.566 1.768-1.159 1.553-1.757-.527-1.468-4.593-2.7-7.93-3.774a12.861 12.861 0 0 1-.557-.193Z" fill="#DC137A"/><path d="M156.744 1.935c.056-.087.011.045.047.004.621-.202 2.886.297 5.254 1.025 2.164.665 4.385 1.516 5.156 2.093.773.578-.145 1.447-1.101 2.14 3.129 1.336 4.102 2.297 3.783 2.625-.013.002-.017.064-.142.164-.955.758-3.76 1.592-6.722 2.29-.466.11-.936.212-1.405.31a51.409 51.409 0 0 1-3.27.57c-1.499.203-2.812.29-3.73.207-.606-.047-.92-.162-1.075-.277.336-.267 2.517-.81 4.684-1.421 2.174-.614 4.315-1.305 5.173-1.974.838-.654.634-1.336.311-1.94 1.128-.575 1.833-1.177 1.626-1.787-.501-1.484-4.62-2.74-8.024-3.835-.222-.071-.416-.14-.565-.194Z" fill="#DD137A"/><path d="M156.763 1.934c.055-.083.013.043.047.004.629-.19 2.837.295 5.154 1.004 2.107.645 4.273 1.47 5.063 2.037.789.566-.03 1.413-.885 2.092 3.228 1.363 4.25 2.341 3.947 2.672-.013.003-.016.066-.143.168-.952.765-3.793 1.62-6.8 2.333a55.1 55.1 0 0 1-4.732.897c-1.516.208-2.846.299-3.776.218-.616-.046-.935-.161-1.091-.276.348-.265 2.495-.8 4.628-1.402 2.139-.603 4.245-1.28 5.122-1.936.859-.641.719-1.31.458-1.902 1.167-.585 1.897-1.195 1.7-1.819-.475-1.499-4.648-2.78-8.119-3.894a15.71 15.71 0 0 1-.573-.196Z" fill="#DE137A"/><path d="M156.782 1.933c.053-.079.014.04.049.005.635-.178 2.787.293 5.052.983 2.05.624 4.163 1.423 4.97 1.98.804.554.085 1.378-.668 2.045 3.327 1.389 4.396 2.385 4.11 2.72-.012.002-.015.066-.143.17-.95.773-3.827 1.648-6.879 2.376-.478.113-.959.22-1.439.32a53.72 53.72 0 0 1-3.35.595c-1.533.212-2.879.306-3.822.228-.626-.045-.948-.16-1.107-.274.359-.264 2.473-.793 4.572-1.384 2.104-.593 4.174-1.256 5.071-1.897.88-.63.805-1.282.605-1.865 1.205-.595 1.962-1.214 1.773-1.85-.449-1.514-4.674-2.82-8.213-3.955a16.44 16.44 0 0 1-.581-.197Z" fill="#DF137A"/><path d="M156.801 1.932c.052-.075.016.038.05.004.641-.165 2.737.292 4.95.963 1.994.604 4.052 1.376 4.877 1.923.821.543.201 1.345-.451 1.999 3.427 1.415 4.544 2.428 4.273 2.766-.011.002-.013.067-.143.174-.946.78-3.86 1.675-6.958 2.418-.482.115-.97.223-1.455.326a53.978 53.978 0 0 1-3.39.606c-1.549.218-2.913.316-3.868.24-.636-.044-.963-.16-1.124-.273.371-.262 2.453-.784 4.516-1.365 2.071-.582 4.104-1.232 5.021-1.86.9-.616.89-1.255.752-1.827 1.244-.604 2.026-1.232 1.846-1.88-.424-1.53-4.701-2.859-8.307-4.015a18.7 18.7 0 0 1-.589-.2Z" fill="#DF137A"/><path d="M156.82 1.93c.05-.07.018.037.051.005.648-.152 2.688.29 4.849.942 1.937.584 3.941 1.33 4.784 1.866.837.532.316 1.312-.234 1.953 3.525 1.44 4.691 2.472 4.436 2.813-.01.002-.012.067-.144.177-.944.788-3.893 1.703-7.036 2.46a57.71 57.71 0 0 1-4.901.95c-1.567.222-2.947.325-3.915.251-.646-.043-.977-.158-1.14-.27.383-.263 2.431-.778 4.46-1.348 2.036-.572 4.034-1.207 4.97-1.82.921-.604.976-1.229.899-1.792 1.283-.613 2.091-1.25 1.92-1.91-.4-1.546-4.728-2.899-8.402-4.076a21.473 21.473 0 0 1-.597-.2Z" fill="#E0137A"/><path d="M156.831 1.929c.048-.066.019.035.052.004.655-.139 2.639.29 4.748.922 1.881.564 3.83 1.284 4.69 1.81.853.52.433 1.277-.017 1.906 3.625 1.466 4.838 2.515 4.6 2.859-.01.002-.011.068-.145.181-.94.795-3.926 1.73-7.114 2.502a58.325 58.325 0 0 1-4.958.968c-1.584.227-2.98.334-3.961.261-.655-.041-.99-.157-1.156-.269.394-.26 2.409-.769 4.403-1.329 2.002-.561 3.965-1.182 4.92-1.782.942-.59 1.061-1.201 1.047-1.753 1.32-.624 2.154-1.268 1.992-1.942-.375-1.561-4.753-2.946-8.496-4.136a24.94 24.94 0 0 1-.605-.202Z" fill="#E1137A"/><path d="M156.85 1.927c.047-.061.022.034.054.005.661-.126 2.589.289 4.646.901 1.824.543 3.719 1.238 4.598 1.753.869.51.547 1.243.199 1.859 3.724 1.493 4.985 2.56 4.763 2.907-.009.002-.01.068-.145.184-.938.803-3.959 1.758-7.193 2.544-.499.121-1.004.235-1.507.344-1.204.258-2.4.478-3.508.642-1.6.231-3.014.342-4.007.272-.665-.04-1.004-.156-1.172-.267.406-.26 2.387-.761 4.347-1.31 1.968-.552 3.894-1.158 4.87-1.745.962-.579 1.146-1.174 1.193-1.716 1.359-.633 2.218-1.287 2.065-1.972-.35-1.578-4.779-2.985-8.589-4.197a24.611 24.611 0 0 1-.614-.204Z" fill="#E2137A"/><path d="M156.869 1.926c.045-.057.023.032.055.005.667-.114 2.539.287 4.545.88 1.767.524 3.608 1.192 4.504 1.697.885.498.663 1.21.416 1.812 3.823 1.519 5.132 2.603 4.927 2.954-.009.001-.01.07-.146.187-.936.81-3.992 1.787-7.272 2.587a60.3 60.3 0 0 1-5.071 1.003c-1.617.237-3.047.352-4.054.284-.674-.04-1.018-.155-1.187-.266.417-.258 2.365-.754 4.291-1.292 1.933-.541 3.824-1.133 4.819-1.706.983-.566 1.231-1.147 1.34-1.68 1.398-.642 2.281-1.305 2.139-2.002-.326-1.594-4.807-3.026-8.684-4.257a25.66 25.66 0 0 1-.622-.206Z" fill="#E2137B"/><path d="M156.888 1.925c.044-.053.025.03.056.005.674-.1 2.49.286 4.444.86 1.71.502 3.497 1.145 4.41 1.639.902.487.779 1.176.634 1.766 3.922 1.545 5.278 2.647 5.09 3-.009.002-.009.07-.147.192-.932.817-4.025 1.813-7.35 2.628-.51.125-1.025.243-1.54.355-1.23.267-2.453.496-3.587.666-1.635.241-3.082.36-4.101.295-.684-.04-1.031-.154-1.203-.264.428-.257 2.344-.746 4.235-1.274 1.899-.531 3.753-1.108 4.768-1.667 1.004-.554 1.317-1.121 1.487-1.642 1.436-.653 2.345-1.325 2.212-2.034-.301-1.61-4.834-3.064-8.778-4.317a27.992 27.992 0 0 1-.63-.208Z" fill="#E3137B"/><path d="M156.907 1.923c.042-.048.026.028.056.006.682-.088 2.441.284 4.344.839 1.653.482 3.385 1.1 4.316 1.583.918.476.895 1.141.851 1.719 4.022 1.57 5.426 2.69 5.253 3.047-.007.002-.008.07-.147.194-.93.826-4.06 1.835-7.429 2.671a67.45 67.45 0 0 1-1.557.36 58.023 58.023 0 0 1-3.627.679c-1.651.246-3.114.368-4.146.305-.694-.038-1.046-.153-1.219-.262.439-.255 2.321-.738 4.178-1.255 1.864-.521 3.684-1.084 4.718-1.63 1.025-.54 1.402-1.093 1.633-1.605 1.475-.661 2.409-1.342 2.286-2.064-.278-1.626-4.861-3.104-8.873-4.377a35.18 35.18 0 0 1-.637-.21Z" fill="#E4137B"/><path d="M156.926 1.922c.041-.044.028.026.058.006.688-.075 2.391.283 4.242.819 1.596.462 3.275 1.053 4.223 1.525.934.465 1.01 1.108 1.068 1.673 4.121 1.597 5.573 2.734 5.416 3.094-.007.001-.007.071-.147.198-.928.832-4.093 1.862-7.507 2.712a69.22 69.22 0 0 1-1.575.367 58.933 58.933 0 0 1-3.666.69c-1.669.25-3.148.378-4.193.316-.703-.037-1.06-.151-1.236-.26.452-.254 2.301-.73 4.123-1.237 1.83-.51 3.614-1.058 4.667-1.59 1.046-.529 1.488-1.068 1.781-1.569 1.513-.671 2.472-1.361 2.359-2.095-.254-1.643-4.888-3.145-8.967-4.437a33.783 33.783 0 0 1-.646-.212Z" fill="#E5137B"/><path d="M156.937 1.921c.039-.04.03.024.059.006.695-.063 2.342.281 4.141.798 1.54.442 3.164 1.007 4.13 1.469.95.454 1.126 1.074 1.284 1.626 4.22 1.623 5.72 2.777 5.58 3.14-.006.002-.006.072-.148.202-.926.84-4.126 1.89-7.586 2.755-.526.13-1.059.255-1.591.373-1.269.279-2.532.52-3.706.7-1.686.257-3.182.388-4.239.328-.713-.035-1.073-.151-1.252-.259.463-.252 2.279-.722 4.066-1.219 1.796-.499 3.544-1.033 4.617-1.551 1.067-.516 1.573-1.04 1.928-1.531 1.552-.681 2.536-1.38 2.432-2.126-.23-1.66-4.914-3.188-9.061-4.498-.24-.075-.463-.149-.654-.213Z" fill="#E6137B"/><path d="M156.956 1.92c.038-.036.032.022.06.006.701-.05 2.293.28 4.04.778 1.483.42 3.052.96 4.036 1.411.967.443 1.242 1.04 1.502 1.58 4.319 1.648 5.867 2.82 5.743 3.188-.006.001-.005.072-.149.204-.923.848-4.158 1.919-7.664 2.797-.532.132-1.07.258-1.608.378a59.49 59.49 0 0 1-3.746.713c-1.702.262-3.215.396-4.285.34-.723-.035-1.088-.15-1.268-.258.474-.251 2.257-.714 4.01-1.2 1.761-.49 3.474-1.01 4.566-1.514 1.088-.503 1.659-1.013 2.075-1.494 1.59-.69 2.599-1.398 2.505-2.156-.206-1.678-4.94-3.229-9.155-4.559a46.06 46.06 0 0 1-.662-.214Z" fill="#E6137B"/><path d="M156.975 1.919c.036-.032.033.02.062.005.707-.037 2.242.28 3.938.758 1.426.4 2.941.914 3.943 1.354.983.432 1.357 1.007 1.719 1.534 4.417 1.674 6.013 2.864 5.906 3.234-.005.001-.004.073-.149.208-.921.856-4.192 1.947-7.743 2.839a67.34 67.34 0 0 1-1.625.384 61.3 61.3 0 0 1-3.785.725c-1.72.266-3.25.406-4.332.35-.733-.034-1.102-.149-1.284-.255.486-.25 2.235-.707 3.954-1.183 1.727-.478 3.403-.983 4.516-1.474 1.108-.49 1.743-.987 2.221-1.458 1.629-.7 2.662-1.417 2.579-2.187-.184-1.695-4.968-3.266-9.25-4.618a58.38 58.38 0 0 1-.67-.216Z" fill="#E7137B"/><path d="M156.994 1.918c.034-.028.035.017.062.006.715-.025 2.193.278 3.837.736 1.37.381 2.831.869 3.85 1.298.999.421 1.473.973 1.936 1.486 4.517 1.701 6.16 2.908 6.069 3.282-.004 0-.003.073-.15.211-.918.863-4.224 1.975-7.821 2.882-.542.135-1.092.266-1.642.39a61.089 61.089 0 0 1-3.825.736c-1.736.272-3.282.414-4.378.362-.742-.034-1.115-.149-1.299-.255.497-.248 2.213-.698 3.897-1.163 1.693-.469 3.334-.959 4.466-1.437 1.129-.477 1.764-1.046 2.368-1.42 1.539-.953 2.725-1.436 2.652-2.218-.16-1.712-4.992-3.318-9.344-4.679a77.143 77.143 0 0 1-.678-.217Z" fill="#E8147B"/><path d="M157.013 1.916c.033-.023.035.01.064.006.709-.127 2.143.278 3.735.716 1.313.36 2.72.822 3.757 1.241 1.015.41 1.589.939 2.153 1.44 4.615 1.726 6.307 2.951 6.232 3.329-.004 0-.002.074-.15.214-.917.87-4.258 2.003-7.9 2.924a72.92 72.92 0 0 1-1.659.395 62.23 62.23 0 0 1-3.864.748c-1.754.277-3.317.423-4.424.373-.752-.032-1.13-.147-1.316-.252.508-.248 2.191-.691 3.841-1.146 1.659-.458 3.264-.934 4.415-1.398 1.149-.465 1.863-1.009 2.515-1.383 1.605-.92 2.788-1.455 2.725-2.249-.137-1.73-5.018-3.358-9.438-4.739-.246-.077-.48-.152-.686-.219Z" fill="#E9147B"/><path d="M157.032 1.915c.031-.02.037.002.065.006.72.106 2.094.278 3.634.696 1.256.341 2.609.776 3.664 1.184 1.031.4 1.642 1.001 2.369 1.393 4.426 2.384 6.454 2.995 6.396 3.376-.003 0-.001.074-.151.218-.914.878-4.29 2.03-7.978 2.966a70.81 70.81 0 0 1-1.676.4 62.465 62.465 0 0 1-3.904.76c-1.771.282-3.35.433-4.471.384-.761-.03-1.143-.145-1.332-.25.521-.246 2.171-.683 3.786-1.128 1.624-.447 3.193-.908 4.364-1.36 1.171-.45 1.961-.97 2.662-1.345 1.667-.89 2.852-1.474 2.799-2.28-.114-1.747-5.046-3.397-9.533-4.799a145.38 145.38 0 0 1-.694-.22Z" fill="#E9147B"/><path d="M157.043 1.914c.03-.015.04.003.066.006.728.097 2.044.276 3.533.675a41.84 41.84 0 0 1 3.57 1.128c1.048.388 1.776.95 2.587 1.346 4.61 2.25 6.601 3.039 6.559 3.422-.003 0-.001.075-.152.222-.913.885-4.323 2.058-8.056 3.007-.56.142-1.127.279-1.693.407a63.787 63.787 0 0 1-3.944.773c-1.788.286-3.383.44-4.517.394-.771-.03-1.157-.145-1.348-.249.532-.245 2.149-.675 3.729-1.109 1.59-.437 3.124-.881 4.314-1.321 1.192-.436 2.056-.931 2.809-1.309 1.726-.863 2.914-1.493 2.872-2.31-.091-1.766-5.073-3.438-9.627-4.86a146.03 146.03 0 0 1-.702-.222Z" fill="#EA147B"/><path d="M157.062 1.912c.028-.01.042.003.067.006.735.094 1.995.279 3.432.655 1.141.303 2.387.685 3.476 1.07 1.065.378 1.906.898 2.804 1.3 4.777 2.137 6.748 3.083 6.722 3.47-.001 0 .001.075-.151.224-.911.894-4.357 2.087-8.136 3.05a71.35 71.35 0 0 1-1.71.413c-1.358.31-2.717.58-3.982.784-1.805.291-3.418.45-4.564.406-.781-.03-1.171-.144-1.364-.248.543-.242 2.127-.667 3.673-1.09 1.555-.427 3.054-.857 4.263-1.283 1.213-.424 2.15-.892 2.956-1.271 1.782-.839 2.977-1.513 2.945-2.341-.068-1.785-5.099-3.478-9.721-4.92l-.71-.225Z" fill="#EB147C"/><path d="M157.081 1.912c.026-.007.044.003.068.006.744.084 1.945.276 3.331.634a51.01 51.01 0 0 1 3.383 1.014c1.08.367 2.033.844 3.021 1.253 4.93 2.038 6.895 3.126 6.885 3.516-.001 0 .001.076-.152.228-.91.901-4.389 2.115-8.214 3.092-.57.146-1.149.286-1.727.419a65.038 65.038 0 0 1-4.022.795c-1.822.297-3.451.46-4.61.417-.791-.027-1.185-.143-1.38-.245.555-.242 2.105-.66 3.617-1.073 1.521-.416 2.983-.832 4.213-1.245 1.232-.411 2.242-.851 3.102-1.234 1.835-.815 3.04-1.531 3.019-2.371-.046-1.803-5.127-3.518-9.816-4.98l-.718-.226Z" fill="#EC147C"/><path d="M157.1 1.91c.025-.002.045.006.069.007.756.026 1.895.275 3.229.613 1.028.262 2.166.593 3.29.957 1.097.357 2.159.79 3.238 1.206 5.074 1.955 7.042 3.17 7.049 3.564-.001 0 .002.076-.153.231-.907.909-4.422 2.143-8.292 3.135-.576.147-1.16.29-1.744.424a65.2 65.2 0 0 1-4.062.808c-1.839.3-3.485.467-4.657.427-.8-.027-1.198-.141-1.395-.244.566-.24 2.083-.651 3.56-1.053a104.93 104.93 0 0 0 4.162-1.207 37.905 37.905 0 0 0 3.25-1.197c1.887-.795 3.102-1.551 3.092-2.403-.023-1.82-5.154-3.557-9.91-5.04l-.726-.228Z" fill="#ED147C"/></g><mask id="f" style="mask-type:luminance" maskUnits="userSpaceOnUse" x="-11445" y="-11438" width="23086" height="22957"><path d="M-11444.4-11437.9h23084.8v22956.3h-23084.8v-22956.3Z" fill="url(#e)"/></mask><g mask="url(#f)"><path d="M167.74 9.427c-2.442 1.144-8.029 3.345-8.029 3.345 2.186-.306 4.818-.744 7.495-1.54 4.901-1.455 6.975-2.307 7.017-2.926.032-.284-.689-.75-1.956-1.423 0 0-2.084 1.4-4.527 2.544Z" fill="url(#g)"/></g></g><defs><linearGradient id="e" x1="167.378" y1="11.471" x2="166.47" y2="9.144" gradientUnits="userSpaceOnUse"><stop stop-color="#fff" stop-opacity=".5"/><stop offset=".4" stop-color="#fff" stop-opacity=".6"/><stop offset=".721" stop-color="#fff" stop-opacity=".6"/><stop offset=".93" stop-color="#fff" stop-opacity=".6"/><stop offset="1" stop-color="#fff" stop-opacity=".6"/></linearGradient><linearGradient id="g" x1="167.374" y1="11.475" x2="166.466" y2="9.148" gradientUnits="userSpaceOnUse"><stop stop-color="#fff"/><stop offset=".4" stop-color="#ED147C"/><stop offset=".721" stop-color="#ED147C"/><stop offset=".93" stop-color="#ED147C"/><stop offset="1" stop-color="#ED147C"/></linearGradient><clipPath id="a"><path fill="#fff" transform="translate(0 1)" d="M0 0h80v24H0z"/></clipPath><clipPath id="c"><path fill="#fff" transform="translate(109 1)" d="M0 0h66v24H0z"/></clipPath></defs></svg>