<svg width="48" height="46" fill="none" xmlns="http://www.w3.org/2000/svg"><ellipse cx="24" cy="23" rx="24" ry="23" fill="#fff"/><path d="M13.886 35.286h20.55a1.868 1.868 0 0 0 1.868-1.869V12.868A1.868 1.868 0 0 0 34.436 11h-20.55a1.868 1.868 0 0 0-1.868 1.868v20.55c0 1.031.836 1.868 1.868 1.868Z" stroke="#D7D7D7" stroke-width="1.308" stroke-linecap="round" stroke-linejoin="round"/><path d="M28.346 22.209a3.27 3.27 0 1 0 0-6.539 3.27 3.27 0 0 0 0 6.539Zm.28 13.077a13.75 13.75 0 0 0-13.824-11.209c-.94-.003-1.878.085-2.802.261" stroke="#D7D7D7" stroke-width="1.308" stroke-linecap="round" stroke-linejoin="round"/><path d="M36.285 28.58a14.572 14.572 0 0 0-4.67-.767c-2.01-.004-4 .403-5.847 1.196" stroke="#D7D7D7" stroke-width="1.308" stroke-linecap="round" stroke-linejoin="round"/></svg>