<svg width="20" height="20" fill="none" xmlns="http://www.w3.org/2000/svg"><path fill-rule="evenodd" clip-rule="evenodd" d="M4.45.9a.41.41 0 0 0-.214.202c-.087.17-.088.287-.004.473l.066.144 1.844.922 1.845.923.332 1.001c.183.551.363 1.06.399 1.132.117.233.233.261 1.078.262.798 0 .943-.026 1.064-.2.035-.05.22-.564.413-1.143l.35-1.052 1.842-.921c1.786-.893 1.843-.925 1.91-1.057a.475.475 0 0 0 0-.484.557.557 0 0 0-.472-.269c-.083 0-.676.283-2.149 1.025l-2.035 1.026h-1.8L6.863 1.858C5.442 1.148 4.777.833 4.701.833A.77.77 0 0 0 4.45.9Zm.95 4.07c-.587.116-1.086.625-1.2 1.224-.048.254-.048 10.623 0 10.877.117.614.612 1.11 1.226 1.226.253.048 8.505.048 8.758 0a1.556 1.556 0 0 0 1.226-1.226c.048-.254.048-10.623 0-10.877a1.556 1.556 0 0 0-1.226-1.226c-.102-.019-.579-.035-1.06-.035h-.877l-.182.556c-.214.65-.314.842-.559 1.073a1.51 1.51 0 0 1-.684.374c-.253.067-1.78.067-2.034 0a1.51 1.51 0 0 1-.69-.382c-.239-.222-.345-.429-.57-1.117l-.165-.504-.907.004c-.499.002-.974.017-1.057.033Zm4.1 3.11c-.775.153-1.334.952-1.206 1.727.105.635.612 1.17 1.207 1.272l.15.026-.29.058c-1.173.232-2.014 1.163-2.107 2.333-.019.24-.012.293.052.419a.472.472 0 0 0 .208.212c.13.067.197.069 2.29.069 2.094 0 2.16-.002 2.292-.069.26-.132.327-.42.22-.936-.215-1.044-1.004-1.818-2.067-2.028l-.29-.058.15-.026c.763-.132 1.335-.948 1.207-1.722A1.54 1.54 0 0 0 9.5 8.082Zm-3.019 7.246a.556.556 0 0 0-.265.442c0 .17.12.367.273.444.132.068.195.069 3.316.069 3.12 0 3.184-.001 3.316-.069a.543.543 0 0 0 .273-.444.543.543 0 0 0-.273-.444c-.132-.067-.194-.068-3.323-.067-3.107.002-3.192.003-3.317.069Z" fill="#101010"/></svg>