<svg width="20" height="20" fill="none" xmlns="http://www.w3.org/2000/svg"><path d="M14.625 1.5h-8.25C5.615 1.5 5 2.115 5 2.875V15.25c0 .759.616 1.375 1.375 1.375h8.25c.76 0 1.375-.616 1.375-1.376V2.875c0-.76-.616-1.375-1.375-1.375Z" fill="#101010"/><path d="M12.125 4h-8.25C3.115 4 2.5 4.616 2.5 5.375V17.75c0 .76.616 1.375 1.375 1.375h8.25c.76 0 1.375-.616 1.375-1.375V5.375c0-.76-.616-1.375-1.375-1.375Z" fill="#101010" stroke="#fff" stroke-width=".5" stroke-linecap="round" stroke-linejoin="round"/><path d="M5.25 7.438h5.5m-5.5 3.437h5.5m-5.5 3.438H8" stroke="#fff" stroke-linecap="round" stroke-linejoin="round"/></svg>