<svg width="1371" height="753" fill="none" xmlns="http://www.w3.org/2000/svg"><g filter="url(#a)"><path d="M-198.062 239.436c-147.123-52.751-344.044-41.866-401.669-24.166L-1045 1590.21c1487.241-275.88 2338.53 21.45 2192.97-181.35-242.653-338.1-930.701-641.135-1056.986-698.886-126.285-57.751-105.142-404.599-289.046-470.538Z" fill="#F9EC00"/></g><g filter="url(#b)"><path d="m346.333 1005.67 125.575 490.46-206.251 47.42-80.53-158.89-435.063-356.71-320.775-300.225 917.044 277.945Z" fill="url(#c)" fill-opacity=".6"/></g><g opacity=".3" stroke="#fff" stroke-miterlimit="10"><path opacity=".54" d="M-179.06 417.855c11.631-27.514 49.01-36.239 76.822-25.362 27.823 10.87 47.572 35.699 63.905 60.724 16.346 25.018 31.176 51.878 54.22 70.884 47.704 39.329 116.649 35.157 177.925 27.203 61.275-7.954 128.656-16.315 180.42 17.5 40.58 26.517 62.241 73.367 94.168 109.85 55.727 63.69 146.828 94.206 229.618 76.879"/><path opacity=".54" d="M-188.525 430.901c11.564-27.492 48.541-36.558 76.464-26.318a88.067 88.067 0 0 1 7.315 3.08c24.195 11.524 42.293 33.564 57.611 55.881 2.955 4.313 5.857 8.672 8.766 13.043 13.645 20.512 27.398 41.184 46.505 56.601a124.937 124.937 0 0 0 19.57 12.958c46.097 24.699 105.042 20.295 158.151 12.565a13283.4 13283.4 0 0 1 11.63-1.689c57.651-8.289 118.292-14.193 167.72 13.093 14.445 7.967 27.541 17.679 39.11 30.098 13.675 14.674 24.761 32.363 35.426 49.515 7.28 11.702 14.473 23.28 22.556 34.139a208.968 208.968 0 0 0 12.097 14.802c27.203 30.309 64.479 52.46 104.436 63.816 40.038 11.389 82.686 12.357 123.244 3.109"/><path opacity=".54" d="M-198.052 443.938c11.504-27.458 48.072-36.877 76.094-27.266a86.758 86.758 0 0 1 7.341 2.906c24.355 10.971 42.832 32.427 58.594 54.299 3.041 4.215 6.025 8.495 9.016 12.788 14.017 20.107 28.102 40.445 47.32 55.64a126.886 126.886 0 0 0 19.632 12.763c46.281 24.355 105.008 19.598 157.874 11.086 3.841-.617 7.705-1.247 11.57-1.877 57.274-9.249 116.585-15.835 166.72 7.18 15.361 7.043 30.015 15.319 42.697 27.877 15.05 14.855 26.297 34.152 36.353 52.704 6.861 12.659 13.376 25.214 20.944 37.085a200.815 200.815 0 0 0 11.495 16.245c26.321 33.391 65.891 57.818 108.246 69.45 42.437 11.664 87.503 11.339 130.202.893"/><path opacity=".54" d="M-207.502 456.985c11.439-27.436 47.608-37.215 75.736-28.221 2.51.8 4.977 1.72 7.376 2.743 24.501 10.425 43.37 31.29 59.568 52.705 3.124 4.136 6.194 8.319 9.26 12.521 14.376 19.71 28.794 39.714 48.128 54.667a129.649 129.649 0 0 0 19.713 12.573c46.484 24.016 104.981 18.915 157.59 9.596 3.825-.672 7.655-1.362 11.497-2.059 56.885-10.201 115.109-17.658 165.722 1.267 16.337 6.116 32.482 12.948 46.288 25.638 16.406 15.03 27.834 35.941 37.287 55.904 6.453 13.609 12.297 27.154 19.324 40.02 3.303 6.052 6.9 11.952 10.895 17.687 25.45 36.468 67.301 63.177 112.055 75.085 44.829 11.927 92.32 10.32 137.158-1.324"/><path opacity=".54" d="M-216.989 470.024c11.36-27.406 47.139-37.533 75.366-29.169a83.393 83.393 0 0 1 7.409 2.58c24.661 9.873 43.903 30.143 60.563 51.117 3.21 4.039 6.363 8.142 9.503 12.253 14.755 19.318 29.505 38.988 48.935 53.695A130.914 130.914 0 0 0 4.57 572.89c46.68 23.665 104.953 18.231 157.306 8.105 3.803-.738 7.617-1.483 11.437-2.246 56.489-11.167 113.799-19.689 164.723-4.648 17.379 5.136 34.955 10.589 49.88 23.4 17.761 15.205 29.37 37.73 38.225 59.086 6.045 14.558 11.2 29.088 17.7 42.972 3.065 6.523 6.431 12.906 10.286 19.118 24.569 39.55 68.706 68.525 115.865 80.719 47.228 12.203 97.149 9.295 144.109-3.552"/><path opacity=".54" d="M-226.468 483.069c11.293-27.383 46.682-37.858 74.989-30.128a83.599 83.599 0 0 1 7.443 2.417c24.808 9.328 44.441 29.006 61.544 49.535 3.285 3.948 6.52 7.973 9.742 12.005 15.114 18.92 30.209 38.249 49.743 52.722A132.006 132.006 0 0 0-3.15 581.807c46.87 23.333 104.914 17.555 157.029 6.628 3.787-.793 7.579-1.604 11.364-2.428 56.101-12.12 112.645-21.919 163.724-10.561 18.455 4.105 37.422 8.217 53.479 21.173 19.129 15.373 30.918 39.512 39.158 62.286 5.633 15.528 10.115 31.016 16.088 45.918 2.815 7.001 5.962 13.86 9.685 20.561 23.687 42.633 70.117 73.884 119.687 86.347 49.626 12.478 101.973 8.288 151.066-5.769"/><path opacity=".54" d="M-235.961 496.108c11.227-27.361 46.212-38.178 74.631-31.084a83.385 83.385 0 0 1 7.489 2.248c24.96 8.763 44.98 27.87 62.519 47.941 3.379 3.862 6.688 7.796 9.986 11.738 15.485 18.516 30.9 37.517 50.556 51.761a134.518 134.518 0 0 0 19.94 11.997c47.072 22.994 104.879 16.859 156.744 5.137 3.771-.847 7.541-1.725 11.304-2.615 55.723-13.08 111.558-24.364 162.725-16.476 19.564 3.022 39.896 5.858 57.07 18.935 20.486 15.548 32.455 41.3 40.104 65.48 5.225 16.477 9.025 32.962 14.475 48.864 2.566 7.478 5.5 14.824 9.084 22.003 22.805 45.716 71.528 79.242 123.496 91.981 52.026 12.754 106.79 7.269 158.017-7.997"/><path opacity=".54" d="M-245.451 509.142c11.16-27.339 45.737-38.508 74.261-32.032a86.524 86.524 0 0 1 7.516 2.074c25.107 8.217 45.518 26.733 63.5 46.359 3.455 3.771 6.858 7.62 10.237 11.482 15.852 18.131 31.611 36.792 51.364 50.789a137.995 137.995 0 0 0 20.009 11.814c47.256 22.65 104.852 16.174 156.467 3.659 3.749-.914 7.503-1.847 11.231-2.797 55.335-14.033 110.517-26.977 161.734-22.377 20.694 1.864 42.362 3.486 60.662 16.696 21.841 15.723 33.983 43.077 41.03 68.668 4.805 17.434 7.939 34.89 12.863 51.81 2.308 7.944 5.042 15.771 8.483 23.446 21.934 48.792 72.938 84.601 127.306 97.616 54.423 13.029 111.607 6.25 164.973-10.214"/><path opacity=".54" d="M-254.924 522.193c11.093-27.316 45.279-38.834 73.902-32.987a83.31 83.31 0 0 1 7.55 1.911c25.266 7.665 46.045 25.604 64.476 44.765 3.547 3.686 7.025 7.444 10.48 11.216 16.223 17.726 32.315 36.053 52.172 49.815 6.412 4.441 13.095 8.329 20.083 11.613 47.458 22.311 104.824 15.49 156.182 2.168a778.257 778.257 0 0 0 11.171-2.985c54.946-14.986 109.484-29.77 160.735-28.291 21.814.632 44.836 1.127 64.261 14.47 23.208 15.891 35.519 44.865 41.975 71.862 4.398 18.383 6.842 36.823 11.244 54.743 2.059 8.422 4.573 16.725 7.875 24.877 21.052 51.875 74.349 89.96 131.115 103.25 56.823 13.305 116.424 5.232 171.93-12.43"/><path opacity=".54" d="M-264.409 535.225c11.027-27.294 44.81-39.153 73.533-33.936a79.92 79.92 0 0 1 7.583 1.749c25.414 7.119 46.584 24.467 65.458 43.183a558.55 558.55 0 0 1 10.711 10.955c16.595 17.322 33.008 35.322 52.987 48.855a141.896 141.896 0 0 0 20.164 11.422c47.655 21.96 104.797 14.807 155.898.678a653.25 653.25 0 0 0 11.1-3.166c54.557-15.939 108.429-32.711 159.736-34.205 22.941-.668 47.302-1.244 67.852 12.231 24.564 16.066 37.068 46.648 42.901 75.051 3.979 19.34 5.764 38.763 9.62 57.696 1.821 8.892 4.104 17.678 7.274 26.319 20.177 54.97 75.76 95.32 134.937 108.878 59.209 13.588 121.241 4.213 178.88-14.659"/><path opacity=".54" d="M-273.899 548.279c10.96-27.271 44.334-39.483 73.168-34.902a83.4 83.4 0 0 1 7.616 1.586c25.561 6.573 47.123 23.331 66.445 41.583 3.717 3.509 7.352 7.097 10.963 10.699 16.954 16.925 33.718 34.596 53.805 47.875 6.466 4.284 13.203 8.045 20.228 11.228 47.844 21.628 104.762 14.111 155.62-.801a836.122 836.122 0 0 0 11.046-3.341c54.161-16.906 107.314-35.76 158.725-40.113 24.036-2.027 49.776-3.604 71.444 9.993 25.921 16.241 38.604 48.436 43.835 78.251 3.571 20.289 4.679 40.69 8.008 60.642 1.57 9.37 3.641 18.643 6.672 27.762 19.295 58.052 77.172 100.678 138.747 114.512 61.608 13.863 126.077 3.199 185.837-16.875"/><path opacity=".54" d="M-283.383 561.311c10.894-27.249 43.877-39.809 72.798-35.85 2.589.357 5.135.834 7.644 1.412 25.713 6.008 47.661 22.194 67.426 40 3.792 3.419 7.52 6.921 11.206 10.432 17.333 16.533 34.41 33.864 54.614 46.902 6.497 4.202 13.257 7.919 20.308 11.038 48.048 21.289 104.736 13.427 155.337-2.291a686.134 686.134 0 0 0 10.973-3.522c53.784-17.866 106.148-38.922 157.726-46.026 25.107-3.455 52.243-5.976 75.043 7.765 27.295 16.421 40.14 50.225 44.773 81.433 3.151 21.246 3.582 42.625 6.396 63.588 1.32 9.847 3.172 19.596 6.071 29.205 18.425 61.128 78.575 106.025 142.556 120.146 64.007 14.139 130.894 2.181 192.788-19.103"/><path opacity=".54" d="M-292.878 574.362c10.827-27.227 43.407-40.128 72.428-36.799 2.585.296 5.158.709 7.677 1.25 25.86 5.462 48.2 21.057 68.402 38.406a562.399 562.399 0 0 1 11.456 10.177c17.693 16.135 35.114 33.126 55.421 45.93 6.53 4.119 13.305 7.779 20.39 10.847 48.243 20.938 104.696 12.75 155.052-3.781a561.6 561.6 0 0 0 10.913-3.711c53.396-18.818 104.906-42.135 156.735-51.928 26.143-4.94 54.728-8.341 78.634 5.527 28.651 16.596 41.677 52.014 45.706 84.634 2.744 22.196 2.497 44.552 4.777 66.522 1.07 10.325 2.715 20.542 5.47 30.647 17.543 64.211 79.986 111.384 146.366 125.781 66.398 14.402 135.711 1.162 199.744-21.32"/><path opacity=".54" d="M-302.346 587.394c10.761-27.204 42.951-40.453 72.07-37.753 2.6.239 5.177.603 7.723 1.08 26.02 4.91 48.739 19.921 69.384 36.825a476.716 476.716 0 0 1 11.688 9.916c18.064 15.731 35.824 32.399 56.235 44.969 6.562 4.037 13.364 7.634 20.453 10.652 48.433 20.606 104.669 12.066 154.774-5.259a541.96 541.96 0 0 0 10.853-3.899c53.007-19.772 103.586-45.4 155.736-57.842 27.153-6.474 57.195-10.713 82.226 3.288 30.006 16.772 43.213 53.803 46.645 87.816 2.336 23.145 1.406 46.498 3.164 69.467.826 10.784 2.246 21.497 4.862 32.078 16.661 67.295 81.409 116.737 150.194 131.421 68.797 14.677 140.528.144 206.702-23.537"/><path opacity=".54" d="M-311.809 600.447c10.694-27.182 42.474-40.784 71.7-38.701 2.603.189 5.195.497 7.757.917 26.166 4.364 49.277 18.785 70.365 35.243a492.527 492.527 0 0 1 11.932 9.65c18.43 15.345 36.516 31.667 57.043 43.995 6.594 3.955 13.411 7.496 20.534 10.463 48.63 20.255 104.634 11.37 154.49-6.75a474.938 474.938 0 0 0 10.78-4.08c52.618-20.725 102.178-48.709 154.738-63.755 28.122-8.05 59.668-13.073 85.824 1.061 31.374 16.939 44.761 55.584 47.578 91.015 1.923 24.115.321 48.427 1.552 72.414.576 11.262 1.784 22.462 4.261 33.521 15.779 70.377 82.82 122.096 154.004 137.055 71.196 14.953 145.345-.875 213.652-25.765"/><path opacity=".54" d="M-321.323 613.48c10.634-27.148 42.005-41.103 71.341-39.657 2.619.133 5.219.372 7.791.755 26.326 3.812 49.816 17.649 71.34 33.649 4.129 3.066 8.183 6.223 12.183 9.395 18.802 14.94 37.22 30.929 57.85 43.022 6.621 3.892 13.459 7.357 20.604 10.28C-31.394 690.847 24.393 681.61 74 662.695a413.083 413.083 0 0 0 10.72-4.267c52.241-21.685 100.7-52.027 153.738-69.67 29.041-9.658 62.135-15.444 89.416-1.177 32.73 17.114 46.297 57.373 48.517 94.197 1.515 25.065-.776 50.361-.073 75.367.326 11.739 1.315 23.415 3.661 34.963 14.908 73.453 84.23 127.455 157.813 142.69 73.594 15.228 150.169-1.882 220.609-27.982"/></g><defs><filter id="a" x="-1245" y=".693" width="2609.05" height="1789.52" filterUnits="userSpaceOnUse" color-interpolation-filters="sRGB"><feFlood flood-opacity="0" result="BackgroundImageFix"/><feBlend in="SourceGraphic" in2="BackgroundImageFix" result="shape"/><feGaussianBlur stdDeviation="100" result="effect1_foregroundBlur_2716_82383"/></filter><filter id="b" x="-670.711" y="627.725" width="1242.62" height="1015.82" filterUnits="userSpaceOnUse" color-interpolation-filters="sRGB"><feFlood flood-opacity="0" result="BackgroundImageFix"/><feBlend in="SourceGraphic" in2="BackgroundImageFix" result="shape"/><feGaussianBlur stdDeviation="50" result="effect1_foregroundBlur_2716_82383"/></filter><linearGradient id="c" x1="-310.575" y1="1042.42" x2="-316.949" y2="1411.92" gradientUnits="userSpaceOnUse"><stop stop-color="#B0A833"/><stop offset="1" stop-color="#222" stop-opacity="0"/></linearGradient></defs></svg>