<svg width="330" height="1080" fill="none" xmlns="http://www.w3.org/2000/svg"><g clip-path="url(#a)"><g filter="url(#b)"><path d="M-399.429 343.811c-136.084-73.6-330.405-92.369-389.438-83.659L-1430 1539.06C66.537 1491.3 855.131 1909.44 743.002 1689.24c-186.937-367.1-814.943-766.425-929.889-841.805-114.946-75.379-42.437-411.624-212.542-503.624Z" fill="#F9EC00"/></g><g filter="url(#c)"><path d="M33.615 1171.21 83.725 1675l-211.045 15.75-55.626-169.22-376.241-418.29-271.786-345.201L33.615 1171.21Z" fill="url(#d)" fill-opacity=".6"/></g><g opacity=".3" stroke="#fff" stroke-miterlimit="10"><path opacity=".54" d="M-56.45 903.877c5.909-13.98 24.9-18.413 39.031-12.887 14.137 5.523 24.171 18.138 32.47 30.853 8.305 12.712 15.84 26.359 27.548 36.016 24.238 19.982 59.268 17.862 90.401 13.821 31.133-4.041 65.368-8.289 91.669 8.891 20.619 13.473 31.624 37.279 47.846 55.809 28.314 32.36 74.601 47.87 116.665 39.07"/><path opacity=".54" d="M-61.264 910.504c5.876-13.968 24.664-18.574 38.85-13.371a44.36 44.36 0 0 1 3.717 1.565c12.293 5.855 21.489 17.053 29.272 28.392a589.124 589.124 0 0 1 4.454 6.627c6.933 10.422 13.92 20.925 23.628 28.758a63.472 63.472 0 0 0 9.943 6.584c23.422 12.549 53.371 10.311 80.355 6.384 1.959-.286 3.934-.572 5.909-.858 29.291-4.211 60.103-7.211 85.216 6.652 7.339 4.048 13.993 8.983 19.871 15.293 6.948 7.46 12.581 16.44 18 25.16 3.699 5.94 7.353 11.83 11.46 17.34 1.936 2.6 3.973 5.1 6.146 7.52 13.822 15.4 32.762 26.66 53.063 32.43 20.343 5.78 42.011 6.28 62.619 1.58"/><path opacity=".54" d="M-66.095 917.129c5.845-13.951 24.425-18.737 38.662-13.853a44.19 44.19 0 0 1 3.73 1.476c12.374 5.574 21.763 16.476 29.77 27.588a482.73 482.73 0 0 1 4.582 6.498c7.121 10.216 14.278 20.55 24.042 28.27a64.436 64.436 0 0 0 9.975 6.484c23.515 12.375 53.353 9.958 80.214 5.633 1.951-.313 3.915-.633 5.878-.954 29.1-4.699 59.236-8.045 84.709 3.648 7.804 3.579 15.25 7.784 21.693 14.165 7.647 7.546 13.361 17.356 18.471 26.776 3.485 6.43 6.796 12.81 10.641 18.84 1.805 2.84 3.744 5.59 5.84 8.26 13.374 16.96 33.479 29.37 54.999 35.28 21.561 5.93 44.459 5.77 66.153.46"/><path opacity=".54" d="M-70.904 923.757c5.812-13.939 24.19-18.908 38.48-14.338 1.276.407 2.53.874 3.748 1.394 12.449 5.297 22.036 15.898 30.266 26.778a482.265 482.265 0 0 1 4.705 6.362c7.304 10.014 14.63 20.178 24.453 27.776a65.933 65.933 0 0 0 10.016 6.388c23.617 12.202 53.339 9.61 80.069 4.875a962.51 962.51 0 0 0 5.841-1.046c28.903-5.183 58.486-8.971 84.202.644 8.3 3.107 16.503 6.579 23.518 13.027 8.336 7.633 14.142 18.263 18.945 28.403 3.278 6.91 6.248 13.8 9.818 20.33a95.82 95.82 0 0 0 5.535 8.99c12.932 18.53 34.195 32.1 56.934 38.15 22.777 6.06 46.907 5.24 69.688-.67"/><path opacity=".54" d="M-75.72 930.382c5.772-13.924 23.951-19.07 38.293-14.82 1.283.378 2.538.82 3.764 1.311 12.53 5.016 22.307 15.315 30.771 25.972a412.822 412.822 0 0 1 4.829 6.225c7.496 9.815 14.99 19.81 24.863 27.282a66.487 66.487 0 0 0 10.052 6.295c23.717 12.024 53.325 9.263 79.924 4.118 1.932-.375 3.871-.753 5.811-1.141 28.702-5.674 57.82-10.003 83.694-2.361 8.83 2.609 17.76 5.379 25.343 11.889 9.025 7.728 14.922 19.168 19.422 30.018 3.071 7.4 5.69 14.78 8.993 21.84 1.557 3.31 3.267 6.55 5.226 9.71 12.483 20.09 34.908 34.82 58.869 41.01 23.996 6.2 49.361 4.72 73.22-1.8"/><path opacity=".54" d="M-80.543 937.011c5.738-13.913 23.718-19.236 38.101-15.308 1.284.352 2.544.76 3.782 1.228 12.604 4.739 22.58 14.738 31.27 25.168a395.971 395.971 0 0 1 4.95 6.1c7.678 9.613 15.348 19.434 25.273 26.787a67.114 67.114 0 0 0 10.089 6.192c23.814 11.855 53.305 8.919 79.784 3.367 1.924-.402 3.851-.815 5.774-1.233 28.504-6.158 57.233-11.137 83.186-5.366 9.377 2.086 19.014 4.175 27.172 10.758 9.719 7.806 15.709 20.076 19.895 31.646 2.862 7.89 5.14 15.76 8.175 23.33 1.43 3.56 3.029 7.04 4.92 10.45 12.035 21.66 35.626 37.54 60.812 43.87 25.214 6.34 51.811 4.21 76.754-2.93"/><path opacity=".54" d="M-85.366 943.635c5.704-13.901 23.48-19.397 37.92-15.793 1.291.324 2.559.703 3.804 1.143 12.682 4.452 22.854 14.16 31.765 24.357a359.076 359.076 0 0 1 5.074 5.964c7.868 9.408 15.7 19.063 25.687 26.299a68.338 68.338 0 0 0 10.13 6.096c23.918 11.679 53.289 8.569 79.64 2.61 1.917-.43 3.832-.877 5.744-1.329 28.312-6.646 56.681-12.378 82.678-8.371 9.941 1.536 20.271 2.977 28.997 9.621 10.408 7.898 16.489 20.988 20.376 33.268 2.655 8.37 4.585 16.75 7.355 24.83 1.303 3.8 2.794 7.53 4.615 11.18 11.587 23.23 36.342 40.26 62.747 46.73 26.433 6.48 54.258 3.7 80.286-4.06"/><path opacity=".54" d="M-90.186 950.258c5.67-13.89 23.238-19.565 37.73-16.275 1.29.293 2.57.649 3.82 1.054 12.756 4.175 23.127 13.583 32.263 23.554a345.272 345.272 0 0 1 5.201 5.834c8.054 9.212 16.061 18.693 26.098 25.805a70.116 70.116 0 0 0 10.166 6.003c24.01 11.507 53.273 8.217 79.498 1.859 1.905-.465 3.812-.939 5.707-1.421 28.115-7.13 56.152-13.707 82.174-11.37 10.515.947 21.524 1.771 30.822 8.483 11.097 7.986 17.266 21.886 20.847 34.886 2.441 8.86 4.034 17.73 6.535 26.33 1.173 4.03 2.562 8.01 4.31 11.91 11.145 24.79 37.059 42.98 64.683 49.6 27.652 6.62 56.706 3.17 83.82-5.19"/><path opacity=".54" d="M-94.995 956.89c5.636-13.879 23.005-19.731 37.549-16.761a42.28 42.28 0 0 1 3.835.971c12.838 3.895 23.395 13.009 32.76 22.745a315.749 315.749 0 0 1 5.324 5.698c8.243 9.007 16.42 18.318 26.508 25.311a70.413 70.413 0 0 0 10.204 5.896c24.113 11.34 53.26 7.87 79.354 1.11 1.897-.5 3.787-1 5.676-1.52 27.918-7.615 55.627-15.127 81.667-14.375 11.084.321 22.781.572 32.65 7.352 11.792 8.073 18.047 22.793 21.327 36.513 2.235 9.34 3.477 18.71 5.713 27.81 1.046 4.28 2.324 8.5 4.001 12.64 10.697 26.36 37.776 45.71 66.618 52.46 28.871 6.76 59.154 2.66 87.355-6.31"/><path opacity=".54" d="M-99.817 963.51c5.602-13.868 22.767-19.893 37.36-17.242 1.306.235 2.59.531 3.854.888 12.912 3.617 23.668 12.432 33.258 21.941a283.51 283.51 0 0 1 5.442 5.566c8.432 8.801 16.77 17.946 26.922 24.822a72.801 72.801 0 0 0 10.245 5.805c24.213 11.16 53.246 7.52 79.21.34 1.889-.52 3.768-1.05 5.639-1.61 27.72-8.094 55.092-16.615 81.16-17.374 11.656-.34 24.033-.633 34.475 6.214 12.48 8.16 18.833 23.7 21.797 38.13 2.022 9.83 2.929 19.7 4.888 29.32.925 4.52 2.085 8.98 3.696 13.37 10.251 27.93 38.492 48.43 68.559 55.32 30.084 6.9 61.601 2.14 90.887-7.45"/><path opacity=".54" d="M-104.638 970.143c5.569-13.856 22.525-20.061 37.175-17.733 1.308.21 2.6.477 3.87.806 12.987 3.339 23.943 11.854 33.76 21.127a281.05 281.05 0 0 1 5.57 5.437c8.614 8.599 17.131 17.577 27.338 24.32a73.538 73.538 0 0 0 10.277 5.71c24.31 10.99 53.228 7.17 79.069-.41a349.77 349.77 0 0 0 5.612-1.7c27.518-8.585 54.524-18.165 80.646-20.376 12.212-1.031 25.29-1.832 36.299 5.077 13.17 8.249 19.615 24.609 22.272 39.759 1.815 10.31 2.378 20.67 4.069 30.81.798 4.76 1.85 9.47 3.39 14.11 9.804 29.49 39.21 51.15 70.495 58.18 31.302 7.04 64.058 1.62 94.422-8.58"/><path opacity=".54" d="M-109.452 976.764c5.535-13.845 22.293-20.226 36.987-18.215a44.27 44.27 0 0 1 3.884.717c13.065 3.053 24.216 11.277 34.259 20.324a284.122 284.122 0 0 1 5.693 5.3c8.807 8.4 17.483 17.21 27.748 23.83a74.556 74.556 0 0 0 10.32 5.61c24.411 10.82 53.214 6.82 78.923-1.17 1.87-.58 3.73-1.18 5.576-1.79 27.327-9.07 53.932-19.771 80.138-23.38 12.757-1.755 26.544-3.036 38.128 3.945 13.868 8.345 20.395 25.515 22.749 41.375 1.601 10.8 1.82 21.66 3.249 32.31.671 5 1.612 9.96 3.085 14.84 9.362 31.06 39.923 53.87 72.431 61.04 32.521 7.19 66.505 1.11 97.953-9.7"/><path opacity=".54" d="M-114.279 983.396c5.501-13.834 22.054-20.389 36.8-18.697 1.313.15 2.62.36 3.9.635 13.14 2.775 24.49 10.699 34.754 19.513a285.159 285.159 0 0 1 5.82 5.171c8.99 8.198 17.842 16.832 28.16 23.332 3.317 2.1 6.76 3.96 10.36 5.52 24.51 10.63 53.194 6.47 78.779-1.93 1.862-.6 3.71-1.24 5.545-1.88 27.129-9.56 53.301-21.409 79.634-26.385 13.283-2.51 27.807-4.238 39.953 2.809 14.557 8.432 21.176 26.426 23.223 42.996 1.394 11.28 1.269 22.64 2.427 33.8.544 5.25 1.379 10.44 2.779 15.57 8.914 32.63 40.64 56.6 74.367 63.91 33.736 7.32 68.952.59 101.487-10.83"/><path opacity=".54" d="M-119.089 990.017c5.467-13.822 21.822-20.554 36.617-19.182 1.322.121 2.63.306 3.924.549 13.22 2.494 24.764 10.122 35.253 18.71a241.234 241.234 0 0 1 5.939 5.038c9.178 7.988 18.202 16.458 28.572 22.848 3.334 2.05 6.79 3.88 10.392 5.41 24.608 10.47 53.18 6.13 78.639-2.67 1.85-.64 3.684-1.3 5.514-1.98 26.932-10.05 52.63-23.068 79.127-29.389 13.796-3.29 29.06-5.443 41.778 1.67 15.246 8.522 21.956 27.339 23.699 44.619 1.187 11.76.715 23.62 1.608 35.29.42 5.48 1.141 10.93 2.471 16.3 8.465 34.19 41.362 59.32 76.311 66.78 34.955 7.45 71.4.07 105.022-11.96"/><path opacity=".54" d="M-123.904 996.649c5.433-13.811 21.58-20.722 36.43-19.664a44.57 44.57 0 0 1 3.94.466c13.296 2.218 25.038 9.545 35.752 17.907a250.468 250.468 0 0 1 6.063 4.902c9.364 7.8 18.553 16.09 28.982 22.35 3.35 2.01 6.814 3.81 10.434 5.32 24.707 10.29 53.163 5.78 78.494-3.43a237.3 237.3 0 0 0 5.477-2.07c26.735-10.53 51.915-24.751 78.62-32.396 14.289-4.09 30.316-6.642 43.606.54 15.941 8.606 22.742 28.246 24.174 46.246.977 12.25.163 24.6.788 36.79.293 5.72.907 11.41 2.165 17.03 8.017 35.76 42.08 62.04 78.247 69.64 36.174 7.59 73.848-.45 108.554-13.09"/><path opacity=".54" d="M-128.733 1003.27c5.403-13.792 21.342-20.883 36.247-20.148 1.331.068 2.652.189 3.959.384 13.376 1.936 25.31 8.967 36.247 17.094 2.098 1.56 4.158 3.16 6.19 4.78 9.553 7.59 18.91 15.71 29.392 21.85 3.365 1.98 6.839 3.74 10.47 5.23 24.804 10.12 53.148 5.43 78.352-4.18 1.835-.7 3.646-1.43 5.447-2.17 26.543-11.02 51.164-26.435 78.112-35.4 14.756-4.907 31.57-7.847 45.431-.598 16.63 8.696 23.523 29.148 24.651 47.858.77 12.74-.394 25.59-.037 38.3.166 5.96.668 11.89 1.86 17.76 7.575 37.32 42.796 64.76 80.183 72.5 37.392 7.74 76.298-.96 112.088-14.22"/></g></g><defs><filter id="b" x="-1580" y="108.179" width="2483.52" height="1795.56" filterUnits="userSpaceOnUse" color-interpolation-filters="sRGB"><feFlood flood-opacity="0" result="BackgroundImageFix"/><feBlend in="SourceGraphic" in2="BackgroundImageFix" result="shape"/><feGaussianBlur stdDeviation="75" result="effect1_foregroundBlur_2305_44176"/></filter><filter id="c" x="-930.973" y="658.039" width="1114.7" height="1132.71" filterUnits="userSpaceOnUse" color-interpolation-filters="sRGB"><feFlood flood-opacity="0" result="BackgroundImageFix"/><feBlend in="SourceGraphic" in2="BackgroundImageFix" result="shape"/><feGaussianBlur stdDeviation="50" result="effect1_foregroundBlur_2305_44176"/></filter><linearGradient id="d" x1="-621.315" y1="1108.39" x2="-683.385" y2="1472.7" gradientUnits="userSpaceOnUse"><stop stop-color="#B0A833"/><stop offset="1" stop-color="#222" stop-opacity="0"/></linearGradient><clipPath id="a"><path fill="#fff" d="M0 0h330v1080H0z"/></clipPath></defs></svg>