<svg width="126" height="15" viewBox="0 0 126 15" fill="none" xmlns="http://www.w3.org/2000/svg">
<g clip-path="url(#clip0_2305_26933)">
<path d="M17.3203 14.7252V1.521H21.2554V14.7252H17.3203Z" fill="#101010"/>
<path d="M29.0142 14.9999C27.1963 14.9999 25.7313 14.5775 24.6085 13.7218C23.4857 12.8662 22.9297 11.7464 22.9297 10.3732H26.6296C26.6403 10.9436 26.8648 11.3873 27.314 11.7148C27.7524 12.0422 28.3726 12.2007 29.1746 12.2007C29.8269 12.2007 30.3295 12.095 30.7038 11.8732C31.078 11.6514 31.2598 11.3345 31.2598 10.9331C31.2598 10.4999 31.0566 10.1936 30.6396 10.0141C30.2333 9.83447 29.613 9.68662 28.7896 9.5704C27.2284 9.3591 26.1698 9.14786 25.5923 8.94719C23.8707 8.3556 23.0152 7.23588 23.0152 5.588C23.0152 4.26758 23.5392 3.2218 24.5978 2.44011C25.6458 1.65843 27.0573 1.26758 28.8324 1.26758C30.5968 1.26758 32.0297 1.69012 33.1205 2.54575C34.2112 3.40139 34.7565 4.51054 34.7565 5.87322H31.1849C31.1849 5.29223 30.9818 4.84857 30.5861 4.53166C30.1904 4.21477 29.6451 4.05631 28.9607 4.05631C28.3405 4.05631 27.8486 4.17251 27.4957 4.40491C27.1428 4.6373 26.961 4.94363 26.961 5.31336C26.961 5.54575 27.0252 5.74645 27.1535 5.90491C27.2819 6.06336 27.5171 6.20068 27.8486 6.30631C28.1801 6.41195 28.4688 6.48589 28.6934 6.52814C28.918 6.5704 29.2922 6.6338 29.8376 6.70775C30.4471 6.79221 30.9283 6.87673 31.2919 6.95069C31.6554 7.02464 32.1153 7.16193 32.6714 7.3521C33.2274 7.54221 33.6658 7.76408 33.9866 8.02814C34.3074 8.28164 34.5855 8.6408 34.8314 9.1056C35.0773 9.57041 35.195 10.1091 35.195 10.7218C35.195 12.0211 34.6282 13.0669 33.5054 13.8591C32.3719 14.6091 30.8748 14.9999 29.0142 14.9999Z" fill="#101010"/>
<path d="M43.6103 14.9998C41.4823 14.9998 39.7393 14.3554 38.3705 13.0772C37.0124 11.7991 36.3281 10.1406 36.3281 8.11249C36.3281 6.0843 37.0124 4.43641 38.3812 3.16881C39.7393 1.89064 41.493 1.25684 43.621 1.25684C45.4282 1.25684 46.968 1.74275 48.2298 2.70402C49.5023 3.66529 50.2295 4.92233 50.4327 6.45402L46.7755 6.84486C46.6258 6.14768 46.2623 5.56669 45.6955 5.11247C45.118 4.65824 44.4657 4.42585 43.7386 4.42585C42.7013 4.42585 41.8672 4.76388 41.2363 5.43993C40.6054 6.11599 40.2847 7.00334 40.2847 8.11249C40.2953 9.22165 40.6161 10.1089 41.2577 10.785C41.8886 11.4611 42.712 11.7991 43.7279 11.7991C44.4657 11.7991 45.118 11.5772 45.6955 11.1231C46.2729 10.6794 46.6472 10.1089 46.8076 9.41175L50.4647 9.8343C50.3044 11.3554 49.5879 12.6019 48.3047 13.5526C47.0215 14.5245 45.4602 14.9998 43.6103 14.9998Z" fill="#101010"/>
<path d="M59.0615 14.9999C56.8051 14.9999 54.998 14.3767 53.6185 13.1302C52.239 11.8838 51.5547 10.2148 51.5547 8.12323C51.5547 6.03166 52.239 4.36265 53.6185 3.12674C54.998 1.88026 56.8051 1.26758 59.0615 1.26758C61.307 1.26758 63.1142 1.89082 64.4829 3.12674C65.8625 4.37322 66.5465 6.03166 66.5465 8.12323C66.5465 10.2148 65.8625 11.8838 64.4829 13.1302C63.1036 14.3767 61.2964 14.9999 59.0615 14.9999ZM56.4843 10.7958C57.1473 11.4718 58.0028 11.8098 59.0615 11.8098C60.1201 11.8098 60.9756 11.4718 61.6279 10.7958C62.2801 10.1197 62.6116 9.23238 62.6116 8.12323C62.6116 7.01408 62.2801 6.12674 61.6279 5.45068C60.9756 4.77462 60.1201 4.4366 59.0615 4.4366C58.0028 4.4366 57.1473 4.77462 56.4843 5.45068C55.8213 6.12674 55.4898 7.01408 55.4898 8.12323C55.4898 9.23238 55.8213 10.1197 56.4843 10.7958Z" fill="#101010"/>
<path d="M70.5996 14.7252L66.6641 1.521H70.6954L73.5934 11.8731H73.7754L76.6303 1.521H80.7047L76.7479 14.7252H70.5996Z" fill="#101010"/>
<path d="M82.0391 14.7252V1.521H92.3261V4.58437H85.8461V6.80268H91.9731V9.32731H85.8461V11.6724H92.508V14.7358H82.0391V14.7252Z" fill="#101010"/>
<path d="M94.875 14.7252V1.521H101.612C103.248 1.521 104.553 1.93297 105.547 2.75691C106.542 3.58085 107.044 4.66888 107.044 6.021C107.044 7.07731 106.734 7.96466 106.114 8.68296C105.494 9.40127 104.681 9.8555 103.687 10.035L103.537 10.0773L107.472 14.7252H103.087L99.7729 10.3731H98.8209V14.7252H94.875ZM98.8209 7.83787H100.927C101.558 7.83787 102.083 7.67946 102.499 7.36257C102.906 7.04561 103.12 6.61257 103.12 6.07381C103.12 5.54564 102.917 5.12311 102.499 4.8062C102.093 4.48931 101.569 4.33085 100.927 4.33085H98.8209V7.83787Z" fill="#101010"/>
<path d="M111.863 14.7252V10.2252L107.211 1.521H111.296L113.724 6.83437H113.905L116.183 1.521H120.332L115.809 10.2252V14.7252H111.863Z" fill="#101010"/>
<path d="M9.10003 1.53174H0V14.7148H9.10003C12.7893 14.7148 15.7727 11.7677 15.7727 8.12331C15.7727 4.48948 12.7893 1.53174 9.10003 1.53174ZM11.8269 13.2043L3.76406 11.6514V4.61625L11.8269 3.06343V13.2043Z" fill="#101010"/>
<path d="M125.24 0.200704C125.476 0.338028 125.657 0.517606 125.796 0.75C125.935 0.982396 126 1.24648 126 1.52112C126 1.80634 125.935 2.05986 125.796 2.30282C125.657 2.53521 125.476 2.72535 125.229 2.86268C124.994 3 124.727 3.06338 124.438 3.06338C124.149 3.06338 123.893 3 123.658 2.86268C123.422 2.72535 123.24 2.54577 123.102 2.30282C122.963 2.07042 122.898 1.80634 122.898 1.53169C122.898 1.25704 122.963 0.992961 123.102 0.760565C123.24 0.528169 123.422 0.338028 123.658 0.200704C123.893 0.0633803 124.16 0 124.449 0C124.738 0 125.005 0.0633803 125.24 0.200704ZM125.08 2.61972C125.273 2.50352 125.422 2.35563 125.529 2.16549C125.636 1.97535 125.689 1.76408 125.689 1.53169C125.689 1.29929 125.636 1.08803 125.529 0.897887C125.422 0.707746 125.273 0.559859 125.08 0.454225C124.887 0.348592 124.673 0.295775 124.438 0.295775C124.203 0.295775 123.989 0.348592 123.797 0.464789C123.604 0.570423 123.455 0.728876 123.347 0.919017C123.24 1.10915 123.187 1.32042 123.187 1.55282C123.187 1.78521 123.24 1.99648 123.347 2.18662C123.455 2.37676 123.604 2.52465 123.797 2.64085C123.989 2.74648 124.192 2.80986 124.427 2.80986C124.662 2.80986 124.887 2.72535 125.08 2.61972ZM125.176 1.60563C125.123 1.69014 125.037 1.76408 124.941 1.8169L125.315 2.37676H124.855L124.535 1.89085H124.513H124.224V2.37676H123.764V0.686622H124.513C124.748 0.686622 124.93 0.739435 125.058 0.845067C125.186 0.950706 125.262 1.09859 125.262 1.27817C125.262 1.41549 125.229 1.52112 125.176 1.60563ZM124.491 1.55282C124.599 1.55282 124.673 1.53169 124.727 1.48943C124.78 1.44718 124.812 1.3838 124.812 1.29929C124.812 1.21479 124.78 1.15141 124.727 1.10915C124.673 1.0669 124.588 1.03521 124.491 1.03521H124.235V1.56338H124.491V1.55282Z" fill="#101010"/>
</g>
<defs>
<clipPath id="clip0_2305_26933">
<rect width="126" height="15" fill="white"/>
</clipPath>
</defs>
</svg>
