<svg width="24" height="24" viewBox="0 0 24 24" fill="none" xmlns="http://www.w3.org/2000/svg">
<path fill-rule="evenodd" clip-rule="evenodd" d="M8.79716 4.02968C7.48672 4.16104 6.2888 4.8038 5.48109 5.80896C5.14569 6.22629 4.88172 6.73155 4.46121 7.76132L4.09571 8.65639L2.67313 8.67174L1.25055 8.68714L1.1207 8.83312C0.957519 9.01656 0.958219 9.07534 1.13243 9.80181C1.3249 10.6045 1.36269 10.638 2.07544 10.638C2.36723 10.638 2.60594 10.6521 2.60594 10.6694C2.60594 10.6867 2.49687 10.818 2.36362 10.9612C2.08523 11.2604 1.83629 11.7373 1.75021 12.1363C1.67161 12.5007 1.67225 14.8145 1.75107 15.1746C1.82332 15.5045 2.05514 16.0063 2.24971 16.2537L2.3906 16.433V17.6523C2.3906 18.444 2.41305 18.9442 2.45461 19.0782C2.53983 19.3531 2.92692 19.7606 3.21117 19.8747C3.50792 19.9937 4.90907 20.0445 5.36636 19.9528C5.81859 19.8621 6.14909 19.6256 6.3464 19.2518C6.50371 18.9536 6.50974 18.9161 6.52821 18.1203L6.54732 17.2971H12.0274H17.5074L17.5265 18.1203C17.545 18.9161 17.551 18.9536 17.7083 19.2518C17.9056 19.6256 18.2361 19.8621 18.6883 19.9528C19.1415 20.0437 20.5495 19.9948 20.8296 19.8785C21.1253 19.7557 21.3838 19.5057 21.5356 19.196C21.6587 18.9448 21.6631 18.8928 21.6636 17.6744L21.6641 16.413L21.8609 16.1483C21.9691 16.0027 22.1194 15.7276 22.1947 15.5369C22.3264 15.2038 22.3325 15.1368 22.3524 13.8339C22.3652 12.9889 22.3509 12.362 22.3144 12.171C22.2364 11.7636 22.0069 11.3017 21.7035 10.9417L21.4558 10.6479L21.9685 10.6299C22.4471 10.6132 22.4894 10.6028 22.6054 10.4722C22.6868 10.3808 22.7783 10.1368 22.8699 9.76628C23.0431 9.0665 23.0431 9.01931 22.8714 8.82204L22.7328 8.66284L21.3299 8.64895L19.9271 8.63512L19.5408 7.67267C18.9951 6.31307 18.8369 6.04005 18.2486 5.44271C17.6364 4.82112 16.8017 4.35431 15.8978 4.12785C15.4623 4.01876 15.3331 4.01418 12.3235 4.00195C10.6061 3.99493 9.01923 4.00747 8.79716 4.02968ZM8.59796 6.78108C8.44399 6.83248 8.21739 6.94194 8.09443 7.02429C7.67671 7.30403 7.52543 7.54953 7.0178 8.77183C6.75282 9.40981 6.53602 9.95023 6.53602 9.97276C6.53602 9.99534 9.00712 10.0138 12.0274 10.0138C15.0476 10.0138 17.5187 9.99565 17.5187 9.97354C17.5187 9.84207 16.5652 7.66414 16.4251 7.47571C16.2082 7.18385 15.8248 6.91249 15.4487 6.78477C15.1688 6.68973 14.9809 6.68432 12.0152 6.68593C9.13869 6.68749 8.85465 6.6954 8.59796 6.78108ZM4.70525 12.0366C4.151 12.2107 3.82567 12.5925 3.75805 13.1482C3.68806 13.7241 4.01452 14.3257 4.51714 14.5468C4.69556 14.6254 4.87629 14.6418 5.57062 14.6428C6.84875 14.6445 7.18206 14.5051 7.18206 13.9689C7.18206 13.4196 6.45467 12.5011 5.75937 12.1723C5.42661 12.015 4.96356 11.9554 4.70525 12.0366ZM18.476 12.0915C17.689 12.3888 16.8727 13.3446 16.8727 13.9689C16.8727 14.4967 17.211 14.6439 18.424 14.6439C19.3103 14.6439 19.5295 14.5973 19.8359 14.3438C20.2294 14.0184 20.3809 13.5478 20.2654 13.0102C20.0969 12.2259 19.2591 11.7957 18.476 12.0915Z" fill="#101010"/>
</svg>
