<svg width="16" height="16" viewBox="0 0 16 16" fill="none" xmlns="http://www.w3.org/2000/svg">
<g clip-path="url(#clip0_82_7572)">
<path d="M1.72572 15.4297L14.2971 15.4297C14.9283 15.4297 15.44 14.918 15.44 14.2868L15.44 1.7154C15.44 1.08422 14.9283 0.572546 14.2971 0.572546L1.72572 0.572546C1.09453 0.572546 0.582861 1.08422 0.582861 1.7154L0.582861 14.2868C0.582861 14.918 1.09453 15.4297 1.72572 15.4297Z" stroke="#ACACAC" stroke-linecap="round" stroke-linejoin="round"/>
<path d="M10.5714 7.42969C11.676 7.42969 12.5714 6.53426 12.5714 5.42969C12.5714 4.32512 11.676 3.42969 10.5714 3.42969C9.46686 3.42969 8.57143 4.32512 8.57143 5.42969C8.57143 6.53426 9.46686 7.42969 10.5714 7.42969Z" stroke="#ACACAC" stroke-linecap="round" stroke-linejoin="round"/>
<path d="M10.7429 15.4296C10.3749 13.4696 9.32245 11.7041 7.77341 10.4481C6.22436 9.19213 4.27945 8.52738 2.28571 8.57246C1.71048 8.57093 1.13643 8.6245 0.571426 8.73246" stroke="#ACACAC" stroke-linecap="round" stroke-linejoin="round"/>
<path d="M15.4286 11.326C14.5081 11.0152 13.543 10.8569 12.5714 10.8574C11.3416 10.8548 10.1243 11.1037 8.99428 11.5889" stroke="#ACACAC" stroke-linecap="round" stroke-linejoin="round"/>
</g>
<defs>
<clipPath id="clip0_82_7572">
<rect width="16" height="16" fill="white"/>
</clipPath>
</defs>
</svg>
