<svg width="684" height="488" viewBox="0 0 684 488" fill="none" xmlns="http://www.w3.org/2000/svg">
<path d="M203.506 40.3223L208.728 26.8437C209.608 24.5616 211.157 22.5987 213.173 21.212C215.188 19.8253 217.574 19.0795 220.02 19.0723H229.978C232.424 19.0795 234.811 19.8253 236.826 21.212C238.841 22.5987 240.39 24.5616 241.27 26.8437L246.492 40.3223L264.22 50.5223L278.549 48.3366C280.935 48.0127 283.363 48.4055 285.525 49.4649C287.687 50.5243 289.486 52.2027 290.692 54.2866L295.549 62.7866C296.794 64.9036 297.367 67.3484 297.194 69.7981C297.02 72.2478 296.108 74.5874 294.578 76.508L285.713 87.8008V108.201L294.82 119.494C296.351 121.414 297.263 123.754 297.437 126.204C297.61 128.653 297.037 131.098 295.792 133.215L290.935 141.715C289.729 143.799 287.93 145.477 285.768 146.537C283.606 147.596 281.178 147.989 278.792 147.665L264.463 145.479L246.735 155.679L241.513 169.158C240.633 171.44 239.084 173.403 237.068 174.79C235.053 176.176 232.667 176.922 230.22 176.929H220.02C217.574 176.922 215.188 176.176 213.173 174.79C211.157 173.403 209.608 171.44 208.728 169.158L203.506 155.679L185.778 145.479L171.449 147.665C169.063 147.989 166.635 147.596 164.473 146.537C162.311 145.477 160.512 143.799 159.306 141.715L154.449 133.215C153.204 131.098 152.631 128.653 152.804 126.204C152.978 123.754 153.89 121.414 155.42 119.494L164.285 108.201V87.8008L155.178 76.508C153.647 74.5874 152.735 72.2478 152.562 69.7981C152.388 67.3484 152.962 64.9036 154.206 62.7866L159.063 54.2866C160.269 52.2027 162.068 50.5243 164.23 49.4649C166.392 48.4055 168.82 48.0127 171.206 48.3366L185.535 50.5223L203.506 40.3223ZM200.713 98.0008C200.713 102.804 202.138 107.499 204.806 111.493C207.475 115.487 211.268 118.6 215.705 120.438C220.143 122.276 225.026 122.757 229.737 121.82C234.448 120.883 238.775 118.57 242.172 115.173C245.568 111.777 247.881 107.45 248.818 102.739C249.755 98.0278 249.274 93.1447 247.436 88.7071C245.598 84.2695 242.485 80.4766 238.491 77.808C234.498 75.1395 229.802 73.7151 224.999 73.7151C218.558 73.7151 212.381 76.2738 207.826 80.8282C203.272 85.3827 200.713 91.5599 200.713 98.0008Z" fill="#F4F4F4"/>
<g clip-path="url(#clip0_2501_259173)">
<path d="M107.481 231.439L111.345 208.81C111.994 204.979 113.785 201.434 116.482 198.638C119.18 195.843 122.659 193.927 126.464 193.142L141.962 189.993C145.771 189.231 149.722 189.637 153.297 191.158C156.872 192.679 159.904 195.244 161.996 198.518L174.385 217.845L205.205 228.114L226.815 220.18C230.426 218.922 234.329 218.765 238.03 219.73C241.73 220.695 245.06 222.739 247.596 225.601L257.844 237.294C260.451 240.196 262.116 243.819 262.621 247.687C263.126 251.555 262.446 255.485 260.671 258.958L250.446 279.338L256.898 311.089L274.644 325.785C277.633 328.291 279.793 331.644 280.838 335.402C281.882 339.16 281.763 343.146 280.495 346.835L275.624 361.6C274.406 365.225 272.137 368.406 269.107 370.739C266.077 373.072 262.422 374.451 258.606 374.701L235.613 375.831L211.246 397.313L207.382 419.943C206.733 423.773 204.942 427.319 202.245 430.114C199.547 432.91 196.068 434.825 192.263 435.61L176.387 438.836C172.578 439.598 168.627 439.192 165.052 437.671C161.477 436.15 158.445 433.585 156.353 430.312L143.964 410.985L113.145 400.716L91.5344 408.649C87.9234 409.908 84.0197 410.064 80.3194 409.099C76.6192 408.134 73.2894 406.091 70.7531 403.229L60.5052 391.535C57.8985 388.634 56.2328 385.01 55.728 381.142C55.2232 377.275 55.903 373.345 57.6776 369.872L67.9029 349.492L61.4512 317.74L43.7052 303.044C40.7157 300.539 38.5561 297.186 37.5114 293.428C36.4667 289.67 36.5861 285.684 37.8537 281.995L42.7254 267.229C43.9435 263.604 46.2117 260.423 49.2419 258.091C52.272 255.758 55.9273 254.379 59.7431 254.128L82.7358 252.998L107.481 231.439ZM121.376 322.095C122.895 329.571 126.596 336.429 132.013 341.801C137.429 347.173 144.317 350.818 151.805 352.276C159.294 353.733 167.046 352.937 174.082 349.989C181.118 347.041 187.121 342.072 191.333 335.712C195.546 329.351 197.777 321.885 197.746 314.256C197.714 306.627 195.421 299.179 191.157 292.854C186.893 286.528 180.848 281.609 173.788 278.719C166.729 275.829 158.97 275.097 151.494 276.616C141.469 278.653 132.664 284.589 127.016 293.118C121.367 301.647 119.339 312.07 121.376 322.095Z" fill="#F4F4F4"/>
</g>
<g clip-path="url(#clip1_2501_259173)">
<path d="M350.292 139.713L350.929 107.409C351.029 101.942 352.779 96.6333 355.948 92.1775C359.117 87.7217 363.557 84.3269 368.688 82.4376L389.597 74.8086C394.739 72.9496 400.323 72.687 405.616 74.055C410.91 75.423 415.667 78.3579 419.265 82.4753L440.556 106.778L485.599 114.614L514.013 99.0457C518.775 96.5377 524.175 95.5019 529.527 96.07C534.879 96.6382 539.941 98.7845 544.07 102.236L560.782 116.364C565.018 119.856 568.095 124.55 569.608 129.827C571.121 135.104 570.998 140.716 569.256 145.922L559.294 176.427L574.924 219.265L602.7 236.001C607.386 238.861 611.094 243.075 613.335 248.086C615.576 253.097 616.245 258.67 615.253 264.07L611.566 285.64C610.63 290.94 608.14 295.842 604.412 299.724C600.683 303.605 595.885 306.29 590.627 307.438L558.864 313.827L529.451 348.829L528.813 381.133C528.713 386.599 526.963 391.908 523.795 396.364C520.626 400.82 516.185 404.215 511.054 406.104L489.635 413.919C484.493 415.778 478.91 416.041 473.616 414.673C468.322 413.305 463.565 410.37 459.967 406.252L438.676 381.95L393.633 374.114L365.219 389.682C360.457 392.19 355.057 393.226 349.705 392.658C344.353 392.09 339.291 389.943 335.162 386.491L318.45 372.364C314.214 368.872 311.137 364.177 309.624 358.9C308.112 353.623 308.234 348.012 309.977 342.806L319.938 312.301L304.308 269.463L276.532 252.727C271.847 249.867 268.139 245.653 265.898 240.642C263.656 235.63 262.987 230.057 263.979 224.658L267.666 203.088C268.602 197.788 271.092 192.885 274.821 189.004C278.549 185.123 283.348 182.438 288.606 181.29L320.369 174.901L350.292 139.713ZM388.619 262.971C392.299 273.057 398.888 281.826 407.551 288.168C416.215 294.51 426.564 298.14 437.291 298.6C448.018 299.06 458.64 296.328 467.815 290.751C476.989 285.174 484.304 277.001 488.834 267.267C493.364 257.533 494.905 246.674 493.264 236.063C491.622 225.453 486.871 215.567 479.611 207.657C472.351 199.747 462.908 194.167 452.477 191.624C442.046 189.08 431.095 189.687 421.009 193.367C407.484 198.302 396.473 208.407 390.398 221.461C384.324 234.514 383.684 249.446 388.619 262.971Z" fill="#F4F4F4"/>
</g>
<defs>
<clipPath id="clip0_2501_259173">
<rect width="270" height="270" fill="white" transform="translate(0 209) rotate(-11.4857)"/>
</clipPath>
<clipPath id="clip1_2501_259173">
<rect width="380" height="380" fill="white" transform="translate(196 131) rotate(-20.0454)"/>
</clipPath>
</defs>
</svg>
