<svg width="175" height="29" viewBox="0 0 175 29" fill="none" xmlns="http://www.w3.org/2000/svg">
<g clip-path="url(#clip0_2305_26756)">
<mask id="mask0_2305_26756" style="mask-type:luminance" maskUnits="userSpaceOnUse" x="0" y="1" width="80" height="24">
<path d="M80 1.1001H0V24.9187H80V1.1001Z" fill="white"/>
</mask>
<g mask="url(#mask0_2305_26756)">
<path d="M28.8795 24.5414H20.0237C20.0141 24.2704 20.0141 24.2897 20.3125 24.2413C20.7938 24.1542 21.2943 24.0768 21.7564 23.9219C22.4494 23.6993 22.873 23.167 23.027 22.4702C23.2772 21.3959 23.489 20.3119 23.6815 19.2279C24.0281 17.3212 24.3457 15.4049 24.673 13.4886C25.0195 11.4464 25.3757 9.41396 25.7222 7.37181C25.9051 6.33622 26.088 5.29095 26.2709 4.25536C26.2901 4.16825 26.2997 4.07147 26.3094 3.98436C26.2901 3.97468 26.2709 3.97468 26.2516 3.965C26.0784 4.25536 25.9051 4.54571 25.7415 4.84574C24.8655 6.35558 23.9992 7.86541 23.1232 9.38493C22.3147 10.7883 21.5157 12.1917 20.7072 13.595C19.9082 14.9791 19.0997 16.3631 18.3103 17.7568C17.5691 19.044 16.8376 20.3312 16.106 21.6088C15.4996 22.6637 14.8932 23.7187 14.2771 24.7736C14.229 24.8511 14.1135 24.9188 14.0172 24.9188C13.7381 24.9382 13.4589 24.9285 13.1605 24.9285C11.322 18.3665 9.47386 11.8045 7.63534 5.25223C7.61608 5.25223 7.59683 5.25223 7.56795 5.26191C7.49095 5.70712 7.41394 6.14265 7.33694 6.58786C6.9519 8.80422 6.56687 11.0303 6.18184 13.2563C5.80643 15.4823 5.4214 17.6987 5.06525 19.9247C4.94011 20.7377 4.94011 21.5604 5.13263 22.3734C5.3444 23.2251 5.89307 23.738 6.70163 23.9606C7.2118 24.0961 7.73159 24.1639 8.25139 24.2607C8.35727 24.28 8.47278 24.28 8.60754 24.2897C8.59791 24.3865 8.58829 24.4736 8.57866 24.551H0.00207693C-0.0171747 24.3381 0.0983347 24.2704 0.310102 24.251C1.66734 24.1155 2.66842 23.4477 3.30373 22.2185C3.83314 21.1926 4.09304 20.0796 4.29518 18.9569C4.84385 15.8888 5.39252 12.8208 5.90269 9.75271C6.16259 8.20416 6.39361 6.65561 6.5765 5.09738C6.6535 4.47796 6.60537 3.83918 6.54762 3.21976C6.47061 2.37774 5.90269 1.87446 4.98824 1.75832C4.60321 1.70993 4.2278 1.68089 3.80427 1.64218C3.81389 1.55507 3.81389 1.44861 3.82352 1.31311H4.08342C6.06633 1.29375 8.02999 1.29375 9.99365 1.28408C10.1958 1.28408 10.2632 1.35182 10.3113 1.53571C11.2354 4.84574 12.1595 8.14609 13.0932 11.4561C13.8632 14.1951 14.6237 16.9244 15.3841 19.6634C15.4804 19.9925 15.5766 20.3216 15.6825 20.7184C15.875 20.399 16.0386 20.1183 16.2023 19.8376C17.1264 18.2407 18.0408 16.6534 18.9649 15.0565C19.6387 13.8951 20.3029 12.724 20.9767 11.5626C21.8238 10.0818 22.6804 8.61065 23.5371 7.12985C24.2109 5.96844 24.8751 4.79735 25.5489 3.63594C25.9725 2.8907 26.4056 2.14546 26.8388 1.4099C26.8677 1.35182 26.9639 1.30343 27.0217 1.30343C28.995 1.29375 30.9683 1.30343 32.9415 1.30343C32.9608 1.30343 32.9897 1.31311 33.0089 1.32279C33.0474 1.54539 32.9897 1.64218 32.7298 1.66153C32.2196 1.70993 31.7094 1.78735 31.2185 1.89382C30.487 2.04867 30.0538 2.55195 29.8613 3.2488C29.6688 3.92629 29.534 4.62314 29.4089 5.31998C29.072 7.18792 28.7447 9.06554 28.4174 10.9335C28.0035 13.295 27.5896 15.6565 27.1757 18.0278C26.9832 19.1505 26.7714 20.2635 26.5981 21.3862C26.5404 21.7733 26.5308 22.1701 26.55 22.567C26.5981 23.3315 26.858 23.8155 27.5896 24.0478C28.0131 24.1833 28.9372 24.3284 29.3222 24.3381M21.6505 24.222C22.8826 24.2413 23.9222 23.6316 24.8559 22.6637C25.9628 21.5217 26.7522 20.1473 27.5222 18.773C28.2442 17.4858 28.9757 16.2082 29.6977 14.9307C30.3426 13.7886 30.9779 12.6369 31.6228 11.4948C32.5373 9.87853 33.4517 8.26223 34.3662 6.64593C35.0111 5.51355 35.6368 4.3715 36.2817 3.22944C36.6571 2.57131 37.0325 1.9035 37.4175 1.24536C37.4464 1.18729 37.5138 1.11954 37.5619 1.11954C38.0528 1.10986 38.5341 1.10986 39.0347 1.10986C39.2079 2.02932 39.3716 2.92941 39.5352 3.8295C39.9299 5.9878 40.3245 8.14609 40.7192 10.3044C41.0465 12.0949 41.3641 13.8757 41.6914 15.6662C42.0764 17.7568 42.4615 19.8376 42.8657 21.9185C42.9427 22.3443 43.0968 22.7605 43.2604 23.1573C43.5299 23.7961 44.0593 24.1252 44.7235 24.222C44.8968 24.251 45.0701 24.2704 45.2433 24.2897C45.3107 24.522 45.2241 24.4059 44.993 24.3962C43.6069 24.3671 42.2208 24.522 40.8347 24.522C39.4678 24.522 38.1106 24.5607 36.7437 24.5897C36.6571 24.5897 36.5705 24.5897 36.455 24.5897C36.4646 24.4833 36.4742 24.4059 36.4935 24.251C36.8881 24.251 37.2732 24.2607 37.6678 24.251C37.947 24.2413 38.2261 24.2123 38.5053 24.1639C39.1502 24.0478 39.4101 23.68 39.3235 23.0412C39.2176 22.3056 39.1021 21.5798 38.9865 20.8539C38.7363 19.344 38.4764 17.8245 38.2357 16.3147C38.2069 16.1405 38.1587 16.0824 37.9662 16.0727C36.7149 16.0437 35.4635 15.9759 34.2218 15.9759C32.8645 15.9663 31.5169 16.0243 30.1597 16.034C30.0057 16.034 29.9479 16.1114 29.8902 16.2179C29.4763 16.9825 29.0527 17.7568 28.6388 18.5214C28.119 19.4892 27.58 20.4474 27.0698 21.4152C26.8869 21.7636 26.7425 22.1314 26.6559 22.5089C26.5211 23.0606 26.7522 23.5154 27.2431 23.8155C27.8014 24.1542 28.427 24.251 29.0624 24.2897C29.149 24.2994 29.2356 24.2994 29.3415 24.3091C29.3319 24.4059 29.3222 24.493 29.3126 24.5607H21.612M36.2336 4.80703C34.2892 8.31062 32.3736 11.7561 30.4388 15.2404C32.9993 15.3178 35.5116 15.3662 38.0432 15.1823C37.4464 11.7465 36.8496 8.31062 36.2336 4.80703Z" fill="#F8EB00"/>
<path d="M38.8768 24.5414C38.8576 24.3188 38.9923 24.2607 39.2041 24.251C39.8779 24.193 40.5517 24.1059 41.187 23.8349C41.8319 23.5542 42.2747 23.0703 42.4576 22.4121C42.7271 21.3959 42.9485 20.3603 43.1411 19.3247C43.4972 17.4277 43.8052 15.5211 44.1421 13.6144C44.6716 10.5657 45.201 7.52672 45.7111 4.47801C45.7978 3.95537 45.8459 3.42306 45.7015 2.90042C45.5475 2.34875 45.1528 2.02936 44.6234 1.90354C44.0651 1.76804 43.4972 1.70029 42.8908 1.59383C42.8908 1.53576 42.9004 1.4293 42.91 1.36155C43.7475 1.36155 44.5657 1.36155 45.3839 1.36155C47.5882 1.35187 49.7925 1.35187 51.9968 1.32283C53.9701 1.2938 55.9434 1.32283 57.8781 1.79708C59.399 2.16486 60.814 2.74557 62.0365 3.75213C63.4707 4.92322 64.3948 6.42338 64.8184 8.23324C65.1264 9.55919 65.136 10.8948 65.0397 12.2401C64.9242 13.8274 64.6066 15.3662 64.0002 16.8277C63.5189 17.9697 62.8836 19.0247 62.0654 19.9635C60.6696 21.5798 58.9274 22.6831 56.9444 23.4381C55.4621 23.9994 53.9316 24.3188 52.3626 24.5027C50.524 24.7156 48.6855 24.6575 46.847 24.6091C44.8256 24.5608 42.8138 24.5704 40.7924 24.5511C40.1378 24.5317 39.5121 24.5414 38.8768 24.5414ZM52.1701 1.99065C51.3519 2.06808 50.5337 2.14551 49.7058 2.22293C49.5037 2.24229 49.4267 2.3294 49.3978 2.53264C49.2534 3.42306 49.0994 4.31348 48.9358 5.19421C48.5508 7.41058 48.1561 9.63662 47.7614 11.853C47.3764 14.0693 46.9817 16.276 46.6063 18.4924C46.4427 19.4409 45.8652 22.7412 45.7785 23.6994H46.7411H48.57C50.3026 23.6994 51.4577 23.7962 53.8642 23.2155C56.03 22.6541 57.2621 21.725 58.6578 19.9538C59.7071 18.6182 60.3905 17.1084 60.814 15.4727C61.2376 13.8274 61.3819 12.1627 61.3531 10.469C61.3338 9.19141 61.1317 7.94289 60.6311 6.75244C59.7744 4.70061 58.3017 3.30692 56.2129 2.57136C54.9134 2.09711 53.5562 1.96161 52.1701 1.99065Z" fill="#F8EB00"/>
<path d="M76.5786 24.6284C76.5786 24.6284 58.5783 24.6284 58.6072 24.609C58.5687 24.338 58.7323 24.2993 58.9345 24.28C59.6179 24.2219 60.2821 24.1348 60.9174 23.8541C61.5816 23.5638 62.0147 23.0605 62.1976 22.3733C62.4383 21.4732 62.6404 20.5634 62.8041 19.644C63.3624 16.4985 63.911 13.3433 64.4501 10.1978C64.7773 8.32989 65.1046 6.47163 65.4126 4.60369C65.48 4.1972 65.4897 3.77135 65.48 3.35517C65.4608 2.59058 65.0276 2.07762 64.2479 1.90341C63.7089 1.77759 63.1602 1.71952 62.5923 1.62273C62.6019 1.55498 62.6115 1.4582 62.6212 1.35174C65.5282 1.35174 68.4159 1.38077 71.3036 1.34206C74.1914 1.30334 77.0887 1.4582 79.9861 1.1001C79.6107 3.21 79.2353 5.31022 78.8599 7.4298H78.6481C78.5904 7.00395 78.5422 6.56842 78.4749 6.14256C78.369 5.48443 78.2631 4.8263 77.9166 4.23591C77.4834 3.49067 76.8288 3.03579 76.0395 2.74543C74.8459 2.3099 73.5946 2.18408 72.3336 2.14537C71.3806 2.11633 70.4277 2.12601 69.4747 2.10666C69.2918 2.10666 69.2148 2.13569 69.1763 2.33894C68.618 5.56186 68.0501 8.7751 67.4822 11.998C67.4726 12.0658 67.4726 12.1335 67.4629 12.2206C67.5207 12.2303 67.5592 12.24 67.5977 12.24C68.7624 12.2013 69.9272 12.2303 71.0726 12.1045C72.3529 11.969 73.4983 11.4657 74.3646 10.4495C74.8171 9.91716 75.077 9.27838 75.2887 8.61057C75.3465 8.417 75.3561 8.417 75.6064 8.45571C75.539 8.79446 75.462 9.12352 75.3946 9.46227C75.1058 11.0979 74.8171 12.7336 74.5379 14.3596C74.4128 15.0758 74.3069 15.792 74.2106 16.5082C74.1818 16.7017 74.1047 16.7405 73.9507 16.7017C73.9507 16.392 73.9604 16.0726 73.9507 15.7629C73.9122 15.0661 73.7871 14.3983 73.2384 13.9047C72.8053 13.5175 72.2758 13.3336 71.7175 13.2465C71.1207 13.1594 70.5047 13.0917 69.8983 13.0723C69.032 13.0433 68.1656 13.0626 67.2897 13.0626C67.1645 13.7692 67.0298 14.466 66.9046 15.1629C66.664 16.5082 66.4137 17.8535 66.1923 19.2085C66.0576 20.0505 65.9613 20.9022 66.1057 21.7539C66.279 22.7895 66.7988 23.3411 67.8287 23.5734C68.8491 23.8057 69.879 23.796 70.9186 23.7864C71.7272 23.7767 72.5261 23.6799 73.3058 23.4283C74.5668 23.0314 75.539 22.2378 76.3379 21.2022C76.9444 20.4183 77.4353 19.5666 77.8492 18.6665C77.9262 18.4923 78.0321 18.4051 78.2053 18.4729C77.6278 20.6215 77.1465 22.5378 76.5786 24.6284Z" fill="#F8EB00"/>
</g>
</g>
<path d="M95.4628 14.784L100.143 21H98.2468L94.5028 16.056L90.7588 21H88.8628L93.5668 14.784L89.1748 9H91.0708L94.5028 13.536L97.9348 9H99.8308L95.4628 14.784Z" fill="white"/>
<g clip-path="url(#clip1_2305_26756)">
<path d="M110.767 20.1943V13.5139H115.944C119.094 13.5139 120.691 14.6377 120.691 16.8543C120.691 18.9771 119.17 20.1943 116.519 20.1943H110.767ZM110.767 6.34314H115.715C118.561 6.34314 119.944 7.37649 119.944 9.50241C119.944 11.5975 118.589 12.6158 115.801 12.6158H110.767V6.34314ZM121.995 16.8543C121.995 15.0156 120.94 13.6467 119.101 13.0974L118.669 12.9685L119.085 12.7955C120.423 12.2385 121.19 11.0468 121.19 9.52518C121.19 6.86472 119.266 5.3998 115.772 5.3998H109.492V21.1611H116.605C119.98 21.1611 121.995 19.5512 121.995 16.8543Z" fill="white"/>
<path d="M126.632 8.07918L132.947 16.5229H133.169L139.455 8.07778V21.1611H140.673V5.37634H140.155L133.044 14.9028L125.933 5.37634H125.414V21.1611H126.632V8.07918Z" fill="white"/>
<path d="M152.272 21.3862C155.768 21.3862 158.509 19.8026 159.79 17.0426C160.167 16.2145 160.388 15.2898 160.468 14.2445H159.383H159.292H152.625V15.0989H159.165C159.134 15.2589 159.103 15.419 159.063 15.5725C159.05 15.6285 159.041 15.6611 159.041 15.6611L159.036 15.6628C158.221 18.6403 155.787 20.3746 152.272 20.3746C147.807 20.3746 145.142 17.705 145.142 13.2346C145.142 8.86229 147.807 6.21024 152.272 6.14018C155.459 6.14018 157.448 7.23974 158.527 9.6007H159.77C158.684 6.74478 156.034 5.17268 152.301 5.17268C149.919 5.17268 147.778 5.94121 146.271 7.33782C144.699 8.79433 143.867 10.8337 143.867 13.2346C143.867 18.1103 147.245 21.3862 152.272 21.3862Z" fill="white"/>
<path d="M109.492 24.3408H160.465V23.4756H109.492V24.3408Z" fill="white"/>
<mask id="mask1_2305_26756" style="mask-type:luminance" maskUnits="userSpaceOnUse" x="153" y="1" width="22" height="13">
<path d="M156.005 1.9874C156.008 1.9818 156.011 1.97514 156.014 1.96848C156.011 1.97479 156.008 1.98144 156.004 1.98845C155.985 2.02908 155.992 2.01612 156.004 1.98845C155.952 2.1093 158.84 2.87854 161.749 3.91014C164.659 4.9428 167.588 6.23748 167.608 7.4085C167.586 8.66219 163.929 9.9453 160.313 10.9962C156.698 12.0463 153.124 12.8643 153.27 13.1855C153.534 13.7694 155.006 13.8938 157.064 13.719C159.122 13.5442 161.766 13.0695 164.373 12.4544C169.586 11.2242 174.651 9.43318 174.589 8.35568C174.53 7.36541 170.056 5.40518 165.511 3.87652C161.963 2.68308 158.372 1.75271 156.803 1.75271C156.362 1.75271 156.081 1.82627 156.005 1.9874ZM156.02 1.95447C156.018 1.95903 156.016 1.96393 156.014 1.96848C156.039 1.91384 156.048 1.89422 156.048 1.89422C156.048 1.89422 156.034 1.92435 156.02 1.95447Z" fill="white"/>
</mask>
<g mask="url(#mask1_2305_26756)">
<path d="M156.005 1.9883C155.948 2.10845 158.839 2.87804 161.749 3.91034C164.659 4.94265 167.588 6.23733 167.608 7.40835C167.586 8.66169 163.929 9.94515 160.313 10.9957C156.698 12.0465 153.124 12.8641 153.27 13.1853C153.534 13.7693 155.006 13.894 157.064 13.7188C159.122 13.544 161.766 13.0694 164.373 12.4543C169.586 11.2241 174.652 9.43303 174.589 8.35553C174.531 7.36596 170.056 5.40504 165.511 3.87602C160.966 2.347 156.348 1.25024 156.005 1.9883C156.128 1.72313 155.946 2.1144 156.005 1.9883Z" fill="#BD1176"/>
<path d="M156.023 1.98698C156.145 1.72637 155.965 2.11099 156.024 1.98698C156.37 1.26013 160.935 2.34463 165.429 3.85438C169.918 5.36308 174.338 7.29739 174.413 8.27715C174.493 9.34309 169.495 10.9905 164.414 12.329C163.476 12.5763 162.493 12.8376 161.504 13.0302C161.466 13.038 161.427 13.0474 161.386 13.0565C160.181 13.3203 158.973 13.4902 157.882 13.6187C157.639 13.6464 157.403 13.6709 157.173 13.6919C156.571 13.7462 156.016 13.7757 155.524 13.7764C154.723 13.7767 154.091 13.7004 153.695 13.5298C153.485 13.4404 153.344 13.3252 153.277 13.183C153.143 12.8632 156.683 12.0519 160.264 11.0115C163.846 9.97151 167.488 8.70311 167.508 7.46273C167.528 6.30397 164.622 5.0825 161.796 4.00186C161.342 3.82811 160.885 3.64001 160.418 3.47467C158.6 2.83153 156.909 2.35409 156.259 2.11099C156.101 2.05179 156.017 2.0087 156.023 1.98698Z" fill="#D01181"/>
<path d="M156.041 1.98524C156.162 1.72883 155.984 2.10749 156.044 1.98559C156.392 1.2689 160.905 2.34184 165.347 3.83197C169.779 5.32036 174.148 7.22839 174.238 8.198C174.337 9.25202 169.396 10.7369 164.456 12.2036C163.609 12.4554 162.682 12.7577 161.71 12.9518C161.671 12.9591 161.634 12.9704 161.591 12.9812C160.396 13.2755 159.145 13.4464 158.008 13.5858C157.76 13.6163 157.518 13.6419 157.282 13.665C156.667 13.7231 156.099 13.7568 155.594 13.761C154.776 13.7662 154.127 13.6941 153.718 13.5252C153.499 13.4369 153.353 13.3217 153.284 13.1802C153.162 12.8618 156.669 12.0571 160.215 11.0269C163.762 9.99744 167.367 8.74305 167.409 7.51633C167.448 6.37088 164.582 5.22753 161.844 4.09329C161.423 3.9192 160.999 3.70902 160.539 3.53528C158.754 2.86167 157.002 2.37547 156.286 2.11065C156.126 2.05145 156.039 2.00801 156.041 1.98524Z" fill="#BF1176"/>
<path d="M156.06 1.98432C156.179 1.73211 156.004 2.10412 156.063 1.98467C156.414 1.27849 160.876 2.33987 165.266 3.81109C169.641 5.27881 173.956 7.16022 174.063 8.12001C174.179 9.16213 169.284 10.4642 164.498 12.079C163.739 12.3354 162.872 12.6825 161.915 12.8738C161.877 12.8812 161.841 12.8945 161.795 12.9067C160.61 13.229 159.317 13.4017 158.134 13.5534C157.881 13.5859 157.633 13.6133 157.392 13.6385C156.764 13.7012 156.182 13.7387 155.664 13.746C154.829 13.7565 154.163 13.6879 153.741 13.5218C153.512 13.4346 153.363 13.319 153.292 13.1782C153.18 12.8612 156.654 12.0629 160.167 11.0435C163.679 10.0242 167.247 8.78451 167.31 7.57146C167.368 6.43862 164.536 5.37899 161.891 4.18485C161.504 4.01005 161.114 3.77851 160.659 3.59636C158.908 2.89368 157.096 2.39872 156.312 2.11148C156.15 2.05228 156.061 2.00814 156.06 1.98432Z" fill="#C01176"/>
<path d="M156.079 1.98335C156.196 1.73499 156.024 2.1 156.083 1.9837C156.437 1.28837 160.846 2.33714 165.184 3.78875C169.503 5.23615 173.765 7.09129 173.888 8.04128C174.022 9.07183 169.152 10.1602 164.54 11.9533C163.865 12.2157 163.062 12.6063 162.12 12.7954C162.083 12.8031 162.048 12.8175 162 12.8315C160.824 13.1744 159.489 13.3562 158.26 13.5209C158.002 13.5552 157.748 13.5843 157.501 13.6105C156.86 13.6782 156.265 13.7198 155.733 13.7307C154.882 13.7461 154.199 13.6817 153.765 13.5177C153.526 13.4312 153.372 13.3163 153.299 13.1755C153.199 12.8599 156.64 12.0682 160.118 11.0594C163.596 10.0502 167.127 8.82488 167.21 7.62548C167.288 6.50525 164.483 5.5381 161.939 4.27635C161.583 4.10016 161.228 3.8476 160.78 3.65669C159.063 2.92493 157.189 2.41946 156.339 2.11156C156.175 2.05236 156.084 2.00752 156.079 1.98335Z" fill="#C01177"/>
<path d="M156.089 1.98225C156.205 1.7381 156.035 2.0968 156.095 1.9826C156.452 1.29743 160.808 2.33465 165.094 3.76768C169.357 5.19442 173.566 7.02329 173.706 7.96277C173.857 8.98141 169.281 10.6625 164.574 11.8282C164.038 12.2023 163.244 12.5271 162.318 12.7176C162.282 12.7253 162.247 12.7411 162.197 12.7568C161.031 13.1268 159.653 13.31 158.379 13.4883C158.115 13.525 157.855 13.5562 157.602 13.5842C156.949 13.6571 156.34 13.7016 155.795 13.7159C154.926 13.7363 154.227 13.6757 153.78 13.5138C153.532 13.4287 153.374 13.3135 153.299 13.1733C153.21 12.8588 156.617 12.0741 160.061 11.0754C163.505 10.0768 166.999 8.86617 167.103 7.68008C167.201 6.57281 164.416 5.70199 161.978 4.36808C161.653 4.19013 161.335 3.91726 160.893 3.71794C159.21 2.95676 157.275 2.44183 156.357 2.11221C156.192 2.05301 156.098 2.00747 156.089 1.98225Z" fill="#C11177"/>
<path d="M156.108 1.98077C156.222 1.74083 156.055 2.09287 156.115 1.98147C156.475 1.30682 160.779 2.33212 165.013 3.74554C169.219 5.15196 173.375 6.95385 173.531 7.88457C173.7 8.89131 169.222 10.5496 164.617 11.7031C164.18 12.1028 163.434 12.4468 162.523 12.6394C162.488 12.6468 162.454 12.6643 162.402 12.6818C161.245 13.0724 159.825 13.2633 158.506 13.4549C158.236 13.4938 157.971 13.5267 157.712 13.5572C157.046 13.6332 156.423 13.6829 155.865 13.7008C154.979 13.726 154.264 13.6693 153.804 13.5092C153.546 13.4251 153.384 13.3099 153.306 13.1708C153.23 12.8576 156.604 12.0793 160.012 11.0915C163.422 10.103 166.879 8.90672 167.004 7.7343C167.121 6.63964 164.566 5.43009 162.026 4.45908C161.768 4.22824 161.45 3.98689 161.015 3.77847C159.365 2.98856 157.368 2.46523 156.384 2.11283C156.218 2.05328 156.121 2.0067 156.108 1.98077Z" fill="#C21177"/>
<path d="M156.127 1.97927C156.239 1.74387 156.074 2.08961 156.134 1.98032C156.497 1.31547 160.749 2.32921 164.932 3.72371C169.08 5.11016 173.184 6.88579 173.356 7.806C173.542 8.80118 169.163 10.4374 164.659 11.5776C164.321 12.0035 163.624 12.3706 162.728 12.5608C162.694 12.5682 162.661 12.5875 162.607 12.6067C161.458 13.0138 159.997 13.2176 158.631 13.4222C158.357 13.4632 158.086 13.4979 157.821 13.5297C157.142 13.61 156.505 13.6653 155.935 13.6856C155.032 13.7175 154.3 13.6629 153.827 13.5052C153.559 13.4222 153.393 13.3066 153.313 13.1686C153.248 12.8565 156.589 12.0848 159.963 11.1071C163.339 10.1295 166.759 8.94725 166.905 7.78849C167.041 6.70644 164.552 5.5109 162.074 4.5504C161.854 4.3101 161.565 4.05684 161.135 3.83931C159.52 3.02138 157.462 2.48684 156.41 2.11308C156.242 2.05318 156.143 2.00624 156.127 1.97927Z" fill="#C31177"/>
<path d="M156.145 1.97848C156.256 1.74694 156.094 2.08637 156.154 1.97918C156.52 1.32484 160.719 2.32737 164.85 3.70226C168.942 5.06769 172.992 6.81705 173.181 7.7271C173.385 8.71037 169.104 10.3252 164.701 11.4531C164.462 11.9047 163.814 12.291 162.934 12.4826C162.9 12.4904 162.868 12.5107 162.812 12.532C161.672 12.9569 160.169 13.171 158.758 13.3896C158.478 13.433 158.201 13.4691 157.931 13.503C157.239 13.5882 156.588 13.647 156.005 13.6705C155.085 13.7076 154.336 13.6572 153.851 13.5016C153.574 13.419 153.403 13.3041 153.321 13.1661C153.267 12.8557 156.575 12.0903 159.915 11.1232C163.256 10.156 166.639 8.9885 166.806 7.84305C166.962 6.77326 164.539 5.59243 162.122 4.64209C161.941 4.39233 161.68 4.12646 161.256 3.89947C159.676 3.05387 157.555 2.50987 156.437 2.11404C156.268 2.05379 156.166 2.0058 156.145 1.97848Z" fill="#C31177"/>
<path d="M156.164 1.97705C156.273 1.75041 156.114 2.08284 156.174 1.9781C156.542 1.33357 160.69 2.32454 164.769 3.68051C168.804 5.02563 172.801 6.74801 173.006 7.6486C173.228 8.61996 169.044 10.2131 164.743 11.3274C164.603 11.8055 164.004 12.2111 163.139 12.4045C163.106 12.4119 163.075 12.4343 163.016 12.457C161.885 12.8998 160.342 13.1264 158.885 13.3569C158.599 13.4021 158.316 13.4403 158.04 13.476C157.335 13.565 156.671 13.6291 156.075 13.6557C155.138 13.6978 154.372 13.6508 153.875 13.4974C153.587 13.4161 153.412 13.3009 153.329 13.1643C153.286 12.8546 156.561 12.0959 159.866 11.1389C163.173 10.1823 166.519 9.02875 166.706 7.89696C166.882 6.84013 164.524 5.67367 162.169 4.73349C162.027 4.47427 161.795 4.19614 161.377 3.96039C159.832 3.08817 157.649 2.53051 156.464 2.11436C156.293 2.05411 156.188 2.00542 156.164 1.97705Z" fill="#C41177"/>
<path d="M156.183 1.97576C156.29 1.75297 156.134 2.07909 156.194 1.97681C156.565 1.34138 160.66 2.32184 164.688 3.6589C168.666 4.98335 172.61 6.67981 172.832 7.57025C173.071 8.52934 168.986 10.1 164.786 11.2028C164.745 11.7065 164.194 12.1356 163.345 12.3261C163.312 12.3335 163.283 12.3573 163.222 12.3822C162.098 12.84 160.514 13.0789 159.011 13.3241C158.72 13.3718 158.432 13.412 158.15 13.4495C157.432 13.5445 156.755 13.6103 156.145 13.6404C155.191 13.6877 154.409 13.6446 153.898 13.4937C153.601 13.4131 153.422 13.2979 153.336 13.1616C153.306 12.8533 156.547 12.1016 159.818 11.1551C163.09 10.2086 166.399 9.06914 166.608 7.95207C166.803 6.9068 164.511 5.75504 162.217 4.82537C162.113 4.55565 161.91 4.26631 161.499 4.02145C159.988 3.12261 157.743 2.55234 156.491 2.11447C156.318 2.05422 156.211 2.00518 156.183 1.97576Z" fill="#C51177"/>
<path d="M156.202 1.97425C156.308 1.75567 156.154 2.07583 156.214 1.97565C156.588 1.35073 160.631 2.31964 164.606 3.63673C168.528 4.94156 172.419 6.61035 172.657 7.49168C172.914 8.43886 168.927 9.98785 164.828 11.0773C164.887 11.6072 164.384 12.0549 163.551 12.2476C163.519 12.2553 163.49 12.2805 163.427 12.3071C162.311 12.7804 160.687 13.0333 159.138 13.2918C158.841 13.3412 158.547 13.3825 158.259 13.4221C157.529 13.5198 156.838 13.5913 156.215 13.6249C155.244 13.6771 154.445 13.6386 153.922 13.489C153.615 13.4098 153.432 13.2949 153.344 13.1594C153.324 12.8525 156.533 12.1068 159.769 11.1708C163.007 10.2348 166.279 9.11002 166.509 8.00625C166.723 6.9736 164.497 5.8362 162.265 4.91634C162.2 4.63786 162.026 4.33626 161.62 4.08195C160.144 3.15753 157.836 2.57535 156.518 2.11507C156.344 2.05447 156.233 2.00437 156.202 1.97425Z" fill="#C61177"/>
<path d="M156.213 1.97317C156.317 1.75914 156.166 2.07195 156.226 1.97422C156.603 1.35911 160.594 2.3168 164.518 3.61498C168.382 4.8995 172.22 6.54201 172.475 7.41318C172.748 8.34811 168.86 9.87573 164.863 10.9518C165.021 11.5081 164.566 11.9757 163.749 12.1694C163.717 12.1771 163.689 12.2034 163.624 12.2321C162.516 12.7187 160.851 12.9874 159.257 13.2588C158.954 13.31 158.655 13.3538 158.361 13.3947C157.618 13.4967 156.913 13.573 156.277 13.6102C155.289 13.6676 154.474 13.6319 153.938 13.4848C153.622 13.4074 153.434 13.2921 153.344 13.1569C153.336 12.8511 156.512 12.112 159.713 11.1872C162.917 10.2614 166.151 9.15028 166.402 8.06052C166.636 7.04083 164.476 5.91744 162.305 5.00774C162.279 4.71945 162.134 4.40664 161.733 4.14252C160.293 3.19323 157.923 2.59669 156.537 2.11539C156.361 2.05409 156.248 2.004 156.213 1.97317Z" fill="#C61177"/>
<path d="M156.232 1.9717C156.334 1.76153 156.186 2.06803 156.246 1.9731C156.627 1.36745 160.564 2.31464 164.436 3.59355C168.244 4.85669 172.029 6.47294 172.3 7.33465C172.591 8.25732 168.801 9.76286 164.905 10.8267C165.162 11.4085 164.757 11.8951 163.954 12.0912C163.923 12.0986 163.897 12.1263 163.829 12.1571C162.729 12.6573 161.023 12.94 159.383 13.2258C159.076 13.2794 158.771 13.325 158.47 13.3681C157.715 13.4766 156.997 13.5541 156.347 13.5947C155.342 13.6567 154.51 13.6259 153.962 13.4808C153.635 13.4038 153.444 13.2889 153.352 13.1544C153.355 12.8503 156.498 12.1179 159.665 11.2029C162.834 10.2873 166.031 9.19084 166.302 8.11475C166.557 7.10696 164.462 5.99829 162.353 5.09945C162.365 4.801 162.249 4.47663 161.854 4.20305C160.449 3.22959 158.016 2.61834 156.564 2.11567C156.386 2.05402 156.271 2.00323 156.232 1.9717Z" fill="#C71177"/>
<path d="M156.251 1.97065C156.352 1.76503 156.207 2.06523 156.266 1.97206C156.65 1.37621 160.535 2.31219 164.355 3.57183C168.106 4.81501 171.838 6.40393 172.126 7.25619C172.434 8.16695 168.742 9.65078 164.948 10.702C165.304 11.3098 164.948 11.8191 164.16 12.0131C164.13 12.0205 164.104 12.0499 164.034 12.0828C162.943 12.5981 161.196 12.8938 159.51 13.1933C159.197 13.249 158.886 13.2963 158.58 13.3414C157.812 13.4518 157.08 13.5366 156.417 13.5803C155.395 13.6476 154.547 13.6199 153.986 13.4774C153.65 13.4013 153.454 13.2857 153.359 13.1523C153.374 12.8493 156.483 12.1231 159.616 11.219C162.751 10.3139 165.911 9.23148 166.204 8.16905C166.477 7.17422 164.449 6.07991 162.401 5.19053C162.451 4.88332 162.365 4.54774 161.975 4.26436C160.605 3.26638 158.111 2.64076 156.591 2.11673C156.412 2.05472 156.294 2.00323 156.251 1.97065Z" fill="#C81177"/>
<path d="M156.27 1.96906C156.369 1.76799 156.227 2.06119 156.286 1.97081C156.674 1.38408 160.505 2.30954 164.274 3.54992C167.968 4.77279 171.647 6.33509 171.951 7.17753C172.276 8.07673 168.683 9.53814 164.99 10.5764C165.445 11.2104 165.138 11.7394 164.366 11.9345C164.336 11.9422 164.312 11.9727 164.239 12.0073C163.154 12.5328 161.368 12.8463 159.637 13.1601C159.318 13.2179 159.001 13.2673 158.69 13.3143C157.909 13.4292 157.163 13.5174 156.488 13.5647C155.449 13.6369 154.584 13.6134 154.009 13.473C153.664 13.3976 153.464 13.2828 153.367 13.1496C153.394 12.8477 156.469 12.1285 159.568 11.2346C162.668 10.34 165.792 9.27192 166.105 8.22315C166.398 7.24094 164.435 6.16134 162.449 5.28211C162.538 4.9651 162.481 4.61831 162.097 4.32477C160.762 3.30367 158.206 2.65948 156.618 2.11654C156.437 2.05488 156.317 2.00234 156.27 1.96906Z" fill="#C81177"/>
<path d="M156.288 1.96767C156.386 1.77045 156.247 2.05734 156.306 1.96907C156.697 1.39109 160.476 2.30675 164.193 3.52821C167.83 4.73041 171.455 6.26608 171.777 7.09837C172.119 7.98531 168.624 9.42535 165.032 10.451C165.586 11.111 165.328 11.6581 164.572 11.856C164.543 11.8634 164.519 11.8956 164.444 11.9324C163.367 12.4708 161.54 12.8004 159.763 13.1272C159.439 13.1868 159.117 13.2386 158.8 13.2866C158.006 13.4078 157.246 13.4985 156.558 13.5493C155.502 13.6267 154.62 13.6068 154.033 13.4684C153.678 13.3945 153.474 13.2792 153.375 13.1468C153.413 12.8466 156.456 12.1338 159.519 11.2504C162.585 10.3662 165.672 9.31151 166.006 8.2771C166.318 7.30714 164.421 6.24191 162.497 5.37354C162.624 5.04672 162.597 4.68907 162.218 4.38502C160.918 3.34186 158.299 2.68191 156.645 2.11689C156.463 2.05454 156.339 2.00164 156.288 1.96767Z" fill="#C91178"/>
<path d="M156.308 1.96679C156.404 1.77378 156.267 2.05401 156.327 1.96854C156.722 1.40002 160.447 2.30447 164.112 3.50667C167.693 4.68855 171.264 6.19725 171.603 7.02078C171.962 7.89546 168.566 9.31379 165.075 10.3258C165.729 11.012 165.52 11.5833 164.778 11.7784C164.75 11.7858 164.726 11.8187 164.65 11.8576C163.578 12.4055 161.713 12.754 159.89 13.0952C159.561 13.1565 159.233 13.2097 158.91 13.2602C158.103 13.3838 157.33 13.4805 156.628 13.5344C155.555 13.6171 154.657 13.6013 154.057 13.4647C153.692 13.3919 153.484 13.2766 153.383 13.1449C153.432 12.8458 156.442 12.1396 159.471 11.2667C162.503 10.393 165.553 9.35267 165.907 8.33227C166.24 7.37458 164.408 6.32371 162.546 5.46514C162.711 5.12887 162.713 4.76071 162.34 4.44615C161.074 3.38056 158.394 2.7038 156.672 2.11777C156.489 2.05506 156.363 2.00182 156.308 1.96679Z" fill="#CA1178"/>
<path d="M156.319 1.96533C156.414 1.77688 156.28 2.05045 156.339 1.96744C156.737 1.40732 160.41 2.30196 164.023 3.48524C167.547 4.64646 171.065 6.12854 171.42 6.94191C171.797 7.80433 168.499 9.20094 165.11 10.201C165.862 10.9128 165.702 11.5034 164.975 11.6999C164.948 11.7076 164.926 11.7419 164.847 11.7829C163.781 12.3409 161.877 12.708 160.009 13.0625C159.674 13.1259 159.34 13.1816 159.012 13.2335C158.192 13.3631 157.405 13.4619 156.69 13.5193C155.601 13.6069 154.685 13.5946 154.073 13.4605C153.699 13.3887 153.486 13.2734 153.383 13.1424C153.444 12.845 156.42 12.1451 159.415 11.2827C162.412 10.4192 165.425 9.39325 165.8 8.38616C166.153 7.44038 164.386 6.40492 162.585 5.55651C162.789 5.21113 162.821 4.83141 162.453 4.50669C161.222 3.42009 158.479 2.72687 156.691 2.11841C156.506 2.05536 156.377 2.00141 156.319 1.96533Z" fill="#CB1178"/>
<path d="M156.338 1.96447C156.431 1.77987 156.3 2.04679 156.359 1.96622C156.762 1.41556 160.38 2.2997 163.942 3.46336C167.41 4.60426 170.874 6.05972 171.246 6.86328C171.639 7.71379 168.44 9.08903 165.152 10.0758C166.004 10.8139 165.893 11.4234 165.181 11.6216C165.154 11.6293 165.133 11.6647 165.053 11.7082C163.994 12.2777 162.05 12.6609 160.136 13.0298C159.795 13.0953 159.456 13.1517 159.121 13.2063C158.289 13.3388 157.488 13.4438 156.761 13.5041C155.653 13.5966 154.722 13.5889 154.097 13.4568C153.713 13.3857 153.496 13.2708 153.391 13.1401C153.463 12.8438 156.406 12.1509 159.367 11.2987C162.33 10.4457 165.306 9.43337 165.701 8.44099C166.074 7.50747 164.373 6.48637 162.634 5.64848C162.876 5.29258 162.937 4.90306 162.575 4.56783C161.378 3.45986 158.574 2.74702 156.718 2.1186C156.532 2.05554 156.4 2.0009 156.338 1.96447Z" fill="#CC1178"/>
<path d="M156.357 1.96277C156.449 1.78237 156.32 2.04299 156.379 1.96487C156.786 1.42262 160.351 2.29695 163.861 3.44135C167.271 4.56193 170.682 5.99041 171.071 6.78487C171.482 7.62312 168.381 8.97629 165.195 9.9508C166.145 10.7141 166.086 11.3513 165.387 11.5436C165.361 11.5506 165.34 11.5877 165.258 11.6329C164.206 12.214 162.222 12.6137 160.262 12.9966C159.917 13.0638 159.571 13.1227 159.231 13.1794C158.386 13.316 157.572 13.4253 156.831 13.4891C155.707 13.5865 154.758 13.5823 154.121 13.4523C153.727 13.3826 153.506 13.2674 153.398 13.1374C153.482 12.8424 156.393 12.1559 159.318 11.3141C162.247 10.4717 165.185 9.47265 165.603 8.49464C165.993 7.57338 164.359 6.56734 162.682 5.73925C162.963 5.37425 163.052 4.97422 162.696 4.62813C161.533 3.50055 158.668 2.76774 156.746 2.119C156.557 2.0556 156.423 1.9999 156.357 1.96277Z" fill="#CC1278"/>
<path d="M156.376 1.96128C156.466 1.78543 156.341 2.03939 156.399 1.96373C156.811 1.43024 160.322 2.29405 163.78 3.41954C167.134 4.5198 170.491 5.92131 170.897 6.70596C171.325 7.53195 168.323 8.86375 165.238 9.82495C166.287 10.6152 166.277 11.2706 165.593 11.465C165.567 11.472 165.548 11.5106 165.463 11.5578C164.416 12.1456 162.395 12.5674 160.389 12.9639C160.038 13.0333 159.687 13.0939 159.341 13.152C158.483 13.2932 157.655 13.406 156.901 13.4736C155.76 13.5759 154.795 13.5759 154.145 13.448C153.742 13.3794 153.516 13.2645 153.406 13.1352C153.502 12.8413 156.379 12.1614 159.27 11.3302C162.165 10.4979 165.066 9.51354 165.504 8.54919C165.915 7.63949 164.346 6.64852 162.73 5.83059C163.049 5.45613 163.168 5.04559 162.817 4.68864C161.689 3.54179 158.763 2.78866 156.773 2.11926C156.582 2.0555 156.446 1.99946 156.376 1.96128Z" fill="#CD1278"/>
<path d="M156.395 1.9606C156.483 1.78861 156.361 2.03626 156.419 1.9627C156.835 1.43797 160.292 2.29197 163.698 3.39819C166.995 4.47779 170.299 5.85268 170.722 6.62787C171.166 7.44195 168.264 8.75168 165.28 9.70027C166.428 10.5164 166.467 11.1911 165.799 11.3869C165.774 11.3943 165.755 11.4335 165.668 11.4836C164.627 12.0826 162.567 12.5208 160.516 12.9314C160.159 13.0028 159.802 13.0659 159.451 13.1254C158.579 13.2725 157.738 13.3881 156.971 13.4589C155.813 13.5661 154.832 13.5703 154.169 13.4442C153.755 13.3766 153.525 13.2617 153.414 13.1331C153.521 12.8406 156.365 12.1674 159.221 11.3463C162.082 10.5245 164.947 9.5542 165.405 8.60386C165.836 7.70677 164.332 6.72981 162.778 5.92274C163.136 5.53847 163.284 5.11812 162.938 4.74996C161.843 3.5835 158.856 2.81005 156.8 2.11998C156.608 2.05553 156.468 1.99948 156.395 1.9606Z" fill="#CE1178"/>
<path d="M156.414 1.9592C156.501 1.79141 156.381 2.03241 156.44 1.9613C156.859 1.44497 160.263 2.28917 163.617 3.37648C166.858 4.4354 170.108 5.78402 170.548 6.54941C171.009 7.35122 168.205 8.63924 165.323 9.57522C166.57 10.4173 166.658 11.1105 166.005 11.3085C165.98 11.3162 165.963 11.3561 165.873 11.409C164.838 12.0174 162.739 12.4749 160.643 12.8988C160.281 12.972 159.918 13.0375 159.561 13.0988C158.677 13.2501 157.822 13.3689 157.041 13.4435C155.866 13.5556 154.868 13.564 154.192 13.44C153.77 13.3738 153.536 13.2585 153.422 13.131C153.54 12.8396 156.351 12.1723 159.173 11.3624C161.999 10.5508 164.829 9.59449 165.306 8.65851C165.758 7.77367 164.319 6.81143 162.826 6.01416C163.223 5.62009 163.399 5.18993 163.06 4.81057C161.998 3.62553 158.951 2.83142 156.827 2.12033C156.634 2.05553 156.491 1.99878 156.414 1.9592Z" fill="#CE1278"/>
<path d="M156.425 1.95789C156.51 1.79466 156.395 2.02935 156.452 1.96069C156.877 1.45277 160.226 2.28681 163.528 3.35485C166.712 4.39346 169.908 5.71546 170.366 6.47069C170.843 7.26059 168.138 8.52724 165.358 9.45026C166.704 10.3179 166.841 11.0297 166.202 11.2304C166.179 11.2378 166.162 11.2791 166.071 11.3338C165.04 11.9492 162.904 12.4281 160.762 12.8663C160.394 12.9413 160.026 13.0078 159.662 13.0716C158.766 13.2253 157.897 13.3504 157.104 13.4285C155.912 13.5455 154.897 13.5578 154.208 13.4362C153.776 13.3704 153.538 13.2555 153.422 13.1283C153.552 12.8383 156.329 12.178 159.117 11.3783C161.909 10.5771 164.702 9.63521 165.199 8.71255C165.672 7.84032 164.298 6.89279 162.866 6.10533C163.301 5.70215 163.507 5.26218 163.173 4.87091C162.145 3.66871 159.038 2.85113 156.846 2.12078C156.651 2.05562 156.506 1.99817 156.425 1.95789Z" fill="#CF1278"/>
<path d="M156.444 1.95698C156.528 1.79795 156.415 2.02599 156.472 1.95944C156.902 1.45992 160.196 2.28451 163.447 3.33328C166.574 4.35157 169.717 5.64625 170.191 6.39236C170.685 7.17036 168.079 8.41494 165.4 9.325C166.846 10.2193 167.034 10.9549 166.408 11.1525C166.385 11.1595 166.369 11.2026 166.276 11.2593C165.251 11.8839 163.076 12.3809 160.888 12.8335C160.515 12.9109 160.141 12.9792 159.772 13.0447C158.862 13.2027 157.98 13.3323 157.174 13.4136C155.965 13.5358 154.933 13.552 154.232 13.4325C153.79 13.3677 153.548 13.2525 153.43 13.1264C153.571 12.8377 156.315 12.1837 159.069 11.3942C161.826 10.6039 164.583 9.67599 165.1 8.76698C165.594 7.90737 164.284 6.97385 162.914 6.1969C163.388 5.78391 163.623 5.33449 163.294 4.932C162.299 3.71194 159.132 2.87369 156.873 2.12162C156.676 2.05612 156.529 1.99797 156.444 1.95698Z" fill="#D01278"/>
<path d="M156.463 1.95551C156.545 1.80068 156.447 2.03117 156.492 1.95831C157.008 1.55162 160.167 2.28233 163.366 3.31114C166.436 4.30946 169.525 5.57752 170.017 6.31383C170.527 7.07991 168.02 8.30208 165.442 9.19987C166.987 10.1201 167.225 10.8743 166.614 11.0739C166.591 11.0813 166.576 11.1251 166.481 11.1839C165.46 11.8162 163.248 12.3332 161.015 12.8005C160.636 12.88 160.257 12.9501 159.882 13.0173C158.959 13.1802 158.064 13.3137 157.244 13.3985C156.018 13.5253 154.97 13.5456 154.256 13.4282C153.804 13.3645 153.558 13.2492 153.438 13.1238C153.59 12.8362 156.301 12.1889 159.02 11.4102C161.743 10.6301 164.462 9.7148 165.001 8.82156C165.513 7.9728 164.27 7.05504 162.962 6.28826C163.474 5.86581 163.738 5.40692 163.416 4.99253C162.453 3.75495 159.226 2.89534 156.9 2.12225C156.702 2.05639 156.551 1.99754 156.463 1.95551Z" fill="#D11278"/>
<path d="M156.482 1.95475C156.563 1.80377 156.468 2.02831 156.512 1.95755C157.035 1.56347 160.138 2.27982 163.285 3.29006C166.299 4.26737 169.334 5.5088 169.842 6.23565C170.37 6.98913 167.962 8.19027 165.485 9.07476C167.129 10.0209 167.417 10.7978 166.82 10.9961C166.798 11.0031 166.784 11.0479 166.687 11.1096C165.672 11.752 163.421 12.2866 161.142 12.7679C160.758 12.8491 160.373 12.9216 159.992 12.991C159.057 13.1577 158.148 13.2954 157.314 13.3837C156.072 13.5154 155.007 13.5392 154.281 13.4243C153.819 13.3616 153.568 13.2464 153.445 13.1217C153.61 12.8355 156.288 12.1948 158.972 11.4263C161.661 10.6567 164.344 9.75572 164.903 8.87579C165.435 8.0393 164.257 7.1366 163.01 6.37997C163.561 5.94806 163.854 5.47972 163.537 5.05377C162.606 3.79938 159.321 2.9163 156.927 2.12254C156.728 2.05668 156.575 1.99749 156.482 1.95475Z" fill="#D21279"/>
<path d="M156.501 1.95309C156.58 1.80667 156.489 2.0249 156.532 1.95589C157.061 1.57478 160.109 2.27676 163.204 3.26808C166.161 4.22508 169.142 5.43989 169.668 6.15658C170.212 6.89815 167.903 8.07757 165.528 8.94945C167.27 9.9215 167.608 10.7174 167.025 10.9177C167.005 10.9247 166.99 10.9706 166.892 11.034C165.88 11.6824 163.592 12.2387 161.268 12.735C160.879 12.8184 160.488 12.8927 160.102 12.9638C159.153 13.1372 158.23 13.2766 157.385 13.3684C156.125 13.5053 155.043 13.533 154.304 13.4199C153.832 13.3589 153.577 13.243 153.453 13.119C153.629 12.8338 156.274 12.2001 158.924 11.4421C161.578 10.6827 164.224 9.7954 164.804 8.93018C165.356 8.10595 164.243 7.21726 163.058 6.47114C163.647 6.02977 163.968 5.55163 163.658 5.11376C162.759 3.84326 159.414 2.93706 156.954 2.12263C156.753 2.05643 156.597 1.99688 156.501 1.95309Z" fill="#D21279"/>
<path d="M156.52 1.95141C156.598 1.80919 156.51 2.02112 156.553 1.95421C157.088 1.58606 160.079 2.27403 163.123 3.24573C166.023 4.18241 168.95 5.37059 169.493 6.07783C170.054 6.80749 167.844 7.96485 165.57 8.82376C167.412 9.82209 167.8 10.6372 167.231 10.8386C167.211 10.846 167.198 10.8926 167.097 10.9591C166.091 11.618 163.765 12.1915 161.395 12.7018C161 12.7873 160.604 12.863 160.211 12.9362C159.25 13.112 158.314 13.2574 157.455 13.353C156.178 13.4949 155.08 13.5264 154.328 13.4161C153.847 13.3551 153.588 13.2402 153.461 13.1162C153.648 12.8321 156.26 12.2051 158.875 11.4579C161.495 10.7087 164.105 9.8354 164.705 8.98384C165.277 8.17187 164.23 7.29824 163.106 6.56228C163.734 6.11111 164.083 5.62386 163.78 5.17443C162.911 3.88747 159.509 2.95534 156.981 2.1227C156.779 2.05615 156.62 1.9959 156.52 1.95141Z" fill="#D31279"/>
<path d="M156.531 1.95017C156.607 1.81216 156.523 2.01813 156.565 1.95333C157.107 1.59743 160.042 2.27174 163.034 3.22453C165.877 4.14054 168.75 5.3021 169.311 5.99953C169.888 6.71693 167.777 7.85257 165.605 8.69887C167.546 9.72277 167.985 10.561 167.429 10.7607C167.409 10.768 167.397 10.816 167.295 10.8843C166.293 11.5502 163.929 12.145 161.514 12.6698C161.114 12.7566 160.712 12.8351 160.313 12.9097C159.34 13.0919 158.389 13.239 157.517 13.3378C156.223 13.4842 155.108 13.5199 154.344 13.4117C153.853 13.3525 153.59 13.2372 153.461 13.1139C153.66 12.8316 156.238 12.2109 158.819 11.4735C161.405 10.7351 163.979 9.8755 164.598 9.03865C165.191 8.23859 164.208 7.37968 163.146 6.65388C163.813 6.19324 164.19 5.69688 163.893 5.23555C163.055 3.93247 159.596 2.97617 157 2.12322C156.796 2.05631 156.635 1.99536 156.531 1.95017Z" fill="#D41279"/>
<path d="M156.55 1.94919C156.624 1.81572 156.543 2.01539 156.585 1.95269C157.134 1.6094 160.013 2.26935 162.953 3.20323C165.739 4.09892 168.558 5.23386 169.136 5.92148C169.73 6.62732 167.718 7.74054 165.647 8.57388C167.687 9.62405 168.177 10.4802 167.635 10.683C167.616 10.69 167.605 10.739 167.499 10.8098C166.502 11.4834 164.101 12.0985 161.641 12.6373C161.235 12.7262 160.827 12.8061 160.423 12.8828C159.436 13.0671 158.472 13.2208 157.587 13.3231C156.276 13.4741 155.145 13.5144 154.368 13.4082C153.867 13.3494 153.6 13.2345 153.469 13.1119C153.679 12.8306 156.224 12.2169 158.77 11.4897C161.322 10.7618 163.859 9.91655 164.499 9.09336C165.112 8.30521 164.195 7.46136 163.194 6.74572C163.899 6.27528 164.305 5.77016 164.014 5.29621C163.207 3.97807 159.69 2.99761 157.027 2.12433C156.822 2.05707 156.658 1.99542 156.55 1.94919Z" fill="#D51279"/>
<path d="M156.569 1.94772C156.642 1.81846 156.564 2.01217 156.605 1.95122C157.16 1.6209 159.983 2.26719 162.872 3.18109C165.601 4.05647 168.366 5.16514 168.962 5.8426C169.572 6.53688 167.66 7.62838 165.69 8.44876C167.829 9.52486 168.323 10.3095 167.841 10.6045C167.821 10.6083 167.812 10.6615 167.705 10.7348C166.712 11.4164 164.274 12.0508 161.767 12.6043C161.356 12.6953 160.943 12.7773 160.533 12.8561C159.533 13.0446 158.556 13.2022 157.657 13.308C156.329 13.4639 155.182 13.508 154.391 13.404C153.882 13.3465 153.61 13.2313 153.477 13.1094C153.698 12.8298 156.21 12.2221 158.722 11.5058C161.239 10.788 163.74 9.95642 164.4 9.14759C165.033 8.37135 164.181 7.54256 163.242 6.83708C163.986 6.35718 164.42 5.84295 164.136 5.35675C163.358 4.02354 159.784 3.02031 157.054 2.12497C156.847 2.05701 156.68 1.99501 156.569 1.94772Z" fill="#D51279"/>
<path d="M156.588 1.94585C156.66 1.82115 156.585 2.00855 156.625 1.94936C157.187 1.63199 159.956 2.25831 162.79 3.15891C165.465 4.00871 168.175 5.09567 168.788 5.76332C169.414 6.44569 167.601 7.51512 165.733 8.32289C167.971 9.42526 168.513 10.2278 168.047 10.5255C168.028 10.5294 168.019 10.5833 167.91 10.6593C166.921 11.3491 164.446 12.003 161.894 12.5709C161.478 12.6637 161.058 12.7478 160.642 12.8283C159.63 13.0213 158.639 13.1811 157.728 13.2921C156.382 13.4504 155.218 13.5012 154.416 13.3993C153.896 13.3426 153.62 13.2277 153.484 13.1065C153.718 12.828 156.197 12.2272 158.674 11.5214C161.157 10.8138 163.622 9.99588 164.301 9.20142C164.955 8.43744 164.168 7.62301 163.291 6.92804C164.072 6.43868 164.534 5.91535 164.257 5.41723C163.508 4.06861 159.879 3.03841 157.082 2.1245C156.873 2.05619 156.704 1.99384 156.588 1.94585Z" fill="#D61279"/>
<path d="M156.607 1.94561C156.677 1.82441 156.605 2.00587 156.645 1.94912C157.214 1.64437 159.925 2.26158 162.709 3.13765C165.325 3.97205 167.982 5.02782 168.613 5.68567C169.255 6.35612 167.542 7.40314 165.775 8.1983C168.112 9.32624 168.702 10.1466 168.252 10.4479C168.234 10.4514 168.225 10.5064 168.115 10.5848C167.13 11.2819 164.618 11.9559 162.021 12.5388C161.599 12.6337 161.173 12.7192 160.752 12.8018C159.727 12.999 158.722 13.163 157.797 13.2775C156.435 13.4404 155.255 13.4957 154.439 13.3959C153.91 13.3402 153.629 13.2253 153.492 13.1048C153.737 12.8274 156.182 12.2329 158.626 11.5376C161.073 10.8409 163.503 10.0366 164.202 9.25583C164.876 8.50481 164.154 7.70474 163.338 7.01993C164.158 6.52111 164.648 5.98937 164.378 5.47865C163.659 4.11426 159.973 3.06199 157.108 2.12566C156.898 2.05666 156.726 1.9943 156.607 1.94561Z" fill="#D71279"/>
<path d="M156.626 1.94412C156.694 1.82712 156.626 2.00227 156.665 1.94762C157.241 1.65548 159.897 2.25413 162.628 3.11619C165.189 3.92466 167.79 4.95872 168.438 5.60711C169.097 6.26566 167.483 7.29096 165.817 8.0728C168.253 9.22701 168.891 10.0649 168.458 10.3697C168.44 10.3728 168.433 10.4292 168.32 10.5098C167.339 11.2149 164.791 11.9092 162.147 12.5057C161.719 12.6024 161.289 12.6903 160.861 12.7748C159.824 12.9762 158.806 13.1461 157.868 13.2624C156.489 13.433 155.291 13.4893 154.463 13.3916C153.924 13.337 153.639 13.2217 153.5 13.1023C153.756 12.8262 156.169 12.2388 158.577 11.5536C160.991 10.8671 163.384 10.0772 164.104 9.31038C164.798 8.57092 164.14 7.78627 163.386 7.11126C164.245 6.60263 164.762 6.06249 164.5 5.53915C163.809 4.15971 160.067 3.08186 157.135 2.12592C156.924 2.05656 156.749 1.99351 156.626 1.94412Z" fill="#D81279"/>
<path d="M156.638 1.9427C156.704 1.83061 156.639 1.9991 156.678 1.94656C157.26 1.66702 159.86 2.25096 162.539 3.09411C165.044 3.88226 167.59 4.89005 168.256 5.52828C168.931 6.17526 167.416 7.17815 165.852 7.94773C168.387 9.12786 169.073 9.98292 168.656 10.2912C168.639 10.2943 168.632 10.3514 168.518 10.4348C167.541 11.1473 164.956 11.8629 162.266 12.4731C161.833 12.5716 161.397 12.6616 160.964 12.7478C159.913 12.9537 158.881 13.1257 157.93 13.2469C156.534 13.4203 155.32 13.483 154.479 13.3874C153.93 13.3342 153.642 13.2189 153.5 13.1002C153.768 12.8252 156.147 12.2437 158.521 11.5694C160.901 10.8933 163.257 10.1171 163.997 9.36431C164.711 8.63711 164.119 7.86717 163.427 7.20267C164.324 6.68459 164.868 6.13568 164.614 5.59939C163.951 4.20558 160.155 3.09866 157.155 2.1259C156.941 2.0569 156.764 1.99279 156.638 1.9427Z" fill="#D81279"/>
<path d="M156.656 1.94146C156.721 1.83322 156.659 1.99611 156.697 1.94567C157.286 1.67875 159.831 2.24867 162.458 3.07255C164.906 3.84004 167.398 4.8219 168.082 5.44998C168.773 6.08505 167.357 7.06587 165.895 7.82249C168.529 9.02889 169.263 9.90182 168.862 10.2129C168.846 10.2164 168.839 10.2742 168.723 10.36C167.75 11.0805 165.127 11.8148 162.393 12.4407C161.954 12.5413 161.512 12.6327 161.073 12.7206C160.01 12.9311 158.964 13.1091 158 13.232C156.588 13.4128 155.356 13.4772 154.503 13.3834C153.945 13.3312 153.652 13.2163 153.508 13.0975C153.787 12.8243 156.133 12.2495 158.472 11.5853C160.817 10.9198 163.139 10.1579 163.898 9.41947C164.633 8.70418 164.105 7.9486 163.474 7.29426C164.41 6.76602 164.981 6.2087 164.734 5.6605C164.1 4.25163 160.248 3.12159 157.181 2.12677C156.967 2.05706 156.787 1.99261 156.656 1.94146Z" fill="#D91279"/>
<path d="M156.675 1.93985C156.738 1.83581 156.68 1.99239 156.718 1.94405C157.313 1.69009 159.802 2.24565 162.377 3.05027C164.768 3.79744 167.206 4.75303 167.907 5.37129C168.615 5.99481 167.299 6.95356 165.937 7.69722C168.67 8.92954 169.452 9.81998 169.068 10.1349C169.052 10.1373 169.046 10.1962 168.928 10.2848C167.959 11.0127 165.299 11.7669 162.52 12.4076C162.076 12.5099 161.628 12.6037 161.183 12.6934C160.107 12.9081 159.047 13.0882 158.071 13.2168C156.64 13.3996 155.393 13.4707 154.527 13.3789C153.959 13.3278 153.661 13.2129 153.516 13.0952C153.806 12.823 156.119 12.2549 158.424 11.6012C160.735 10.9458 163.02 10.1979 163.799 9.4732C164.555 8.77016 164.092 8.02965 163.523 7.38581C164.497 6.84812 165.095 6.2817 164.856 5.72088C164.248 4.29695 160.342 3.14414 157.209 2.12725C156.992 2.05719 156.809 1.99169 156.675 1.93985Z" fill="#DA1279"/>
<path d="M156.694 1.93861C156.756 1.83948 156.701 1.98941 156.738 1.94282C157.34 1.70182 159.772 2.24302 162.296 3.02872C164.63 3.75557 167.014 4.68524 167.733 5.293C168.456 5.90531 167.24 6.84128 165.979 7.57199C168.812 8.83058 169.642 9.73889 169.273 10.0563C169.258 10.0594 169.253 10.1193 169.133 10.21C168.167 10.9453 165.471 11.7205 162.646 12.3748C162.197 12.4789 161.744 12.5752 161.293 12.667C160.204 12.8859 159.131 13.0698 158.141 13.2019C156.693 13.3893 155.43 13.4646 154.551 13.3749C153.973 13.3252 153.671 13.2099 153.523 13.0926C153.825 12.8218 156.105 12.2603 158.376 11.6175C160.652 10.9723 162.901 10.2381 163.7 9.52766C164.476 8.83724 164.078 8.11109 163.571 7.47706C164.583 6.93026 165.208 6.35473 164.977 5.78165C164.397 4.34301 160.437 3.16253 157.235 2.12742C157.017 2.05701 156.832 1.99116 156.694 1.93861Z" fill="#DB127A"/>
<path d="M156.714 1.9373C156.773 1.84202 156.722 1.98634 156.758 1.9415C157.367 1.71311 159.743 2.2403 162.215 3.00708C164.493 3.71327 166.822 4.61597 167.559 5.21391C168.298 5.81466 167.181 6.72857 166.022 7.44667C168.954 8.73118 169.831 9.65665 169.479 9.97787C169.465 9.98067 169.46 10.0413 169.339 10.1351C168.377 10.8785 165.644 11.6715 162.774 12.3416C162.319 12.4481 161.86 12.5458 161.403 12.6397C160.301 12.8625 159.214 13.0513 158.211 13.1865C156.747 13.3788 155.467 13.4584 154.575 13.3708C153.987 13.3214 153.682 13.2065 153.531 13.0902C153.845 12.8205 156.092 12.2653 158.328 11.633C160.57 10.9983 162.783 10.2784 163.602 9.58169C164.399 8.90388 164.065 8.19209 163.619 7.56822C164.67 7.01161 165.322 6.42767 165.099 5.84199C164.545 4.38863 160.531 3.18503 157.263 2.12785C157.044 2.05674 156.855 1.99089 156.714 1.9373Z" fill="#DC127A"/>
<path d="M156.733 1.93632C156.791 1.8449 156.742 1.98326 156.778 1.94088C157.393 1.7251 159.714 2.23792 162.134 2.98544C164.355 3.67131 166.63 4.54844 167.384 5.13588C168.14 5.72471 167.123 6.6162 166.065 7.32204C169.095 8.63213 170.021 9.57581 169.685 9.89983C169.671 9.90263 169.667 9.96428 169.544 10.0606C168.585 10.8113 165.816 11.6257 162.9 12.3095C162.439 12.4177 161.975 12.5172 161.513 12.6128C160.398 12.8405 159.298 13.0332 158.281 13.1715C156.8 13.3691 155.503 13.4521 154.598 13.3674C154.001 13.319 153.692 13.2041 153.539 13.0878C153.864 12.8199 156.078 12.2716 158.279 11.6495C160.487 11.025 162.664 10.3195 163.502 9.63641C164.32 8.97051 164.052 8.27378 163.667 7.66042C164.757 7.094 165.435 6.50131 165.22 5.90336C164.693 4.43459 160.627 3.20297 157.29 2.12863C157.069 2.05752 156.878 1.99062 156.733 1.93632Z" fill="#DC137A"/>
<path d="M156.744 1.93524C156.8 1.84837 156.755 1.98008 156.791 1.93945C157.412 1.73698 159.677 2.23579 162.045 2.96405C164.209 3.62925 166.43 4.4801 167.201 5.05703C167.974 5.63466 167.056 6.50408 166.1 7.19661C169.229 8.53332 170.202 9.49381 169.883 9.82169C169.87 9.82414 169.866 9.88649 169.741 9.98562C168.786 10.744 165.981 11.5777 163.019 12.2765C162.553 12.3865 162.083 12.4884 161.614 12.5858C160.487 12.8177 159.373 13.0142 158.344 13.1565C156.845 13.3589 155.532 13.4458 154.614 13.3628C154.008 13.3155 153.694 13.2006 153.539 13.0857C153.875 12.8188 156.056 12.2765 158.223 11.6649C160.397 11.0512 162.538 10.3601 163.396 9.69103C164.234 9.03704 164.03 8.35467 163.707 7.75147C164.835 7.17594 165.54 6.57449 165.333 5.96394C164.832 4.48011 160.713 3.22431 157.309 2.12895C157.087 2.0575 156.893 1.98989 156.744 1.93524Z" fill="#DD137A"/>
<path d="M156.763 1.93378C156.818 1.85111 156.776 1.97687 156.81 1.93834C157.439 1.74848 159.647 2.23328 161.964 2.94227C164.071 3.58715 166.237 4.41174 167.027 4.97851C167.816 5.54493 166.997 6.39193 166.142 7.07115C169.37 8.43413 170.392 9.41249 170.089 9.74316C170.076 9.74561 170.073 9.80867 169.946 9.9106C168.994 10.6763 166.153 11.5314 163.146 12.2442C162.674 12.356 162.198 12.4597 161.724 12.5588C160.584 12.7952 159.456 12.9953 158.414 13.1413C156.898 13.3487 155.568 13.4398 154.638 13.3589C154.022 13.3126 153.703 13.1977 153.547 13.0832C153.895 12.8177 156.042 12.2824 158.175 11.681C160.314 11.0778 162.42 10.4003 163.297 9.74526C164.156 9.10388 164.016 8.43588 163.755 7.84283C164.922 7.2575 165.652 6.64764 165.455 6.02448C164.98 4.52523 160.807 3.24387 157.336 2.12959C157.112 2.05744 156.915 1.98948 156.763 1.93378Z" fill="#DE137A"/>
<path d="M156.782 1.93268C156.835 1.85421 156.796 1.97366 156.831 1.93758C157.466 1.76033 159.618 2.23078 161.883 2.9205C163.933 3.54542 166.046 4.34373 166.853 4.90034C167.657 5.4552 166.938 6.27944 166.185 6.94639C169.512 8.33494 170.581 9.33082 170.295 9.66535C170.283 9.6678 170.28 9.7319 170.152 9.83594C169.202 10.609 166.325 11.4844 163.273 12.2116C162.795 12.3251 162.314 12.4312 161.834 12.5325C160.681 12.7724 159.539 12.977 158.484 13.1266C156.951 13.3388 155.605 13.4334 154.662 13.355C154.036 13.3098 153.714 13.1945 153.555 13.081C153.914 12.8169 156.028 12.288 158.127 11.697C160.231 11.1043 162.301 10.4409 163.198 9.79951C164.078 9.17073 164.003 8.51779 163.803 7.93491C165.008 7.33977 165.765 6.72115 165.576 6.08537C165.127 4.57107 160.902 3.26448 157.363 2.12989C157.137 2.05738 156.938 1.98943 156.782 1.93268Z" fill="#DF137A"/>
<path d="M156.801 1.93154C156.853 1.85728 156.817 1.97008 156.851 1.9361C157.492 1.77146 159.588 2.22824 161.801 2.8987C163.795 3.5026 165.853 4.27534 166.678 4.82179C167.499 5.36544 166.879 6.16691 166.227 6.8209C169.654 8.23573 170.771 9.24947 170.5 9.5868C170.489 9.5889 170.487 9.6537 170.357 9.76124C169.411 10.5417 166.497 11.4363 163.399 12.1786C162.917 12.2942 162.429 12.4024 161.944 12.5054C160.778 12.7499 159.623 12.9583 158.554 13.1111C157.005 13.3286 155.641 13.427 154.686 13.351C154.05 13.3069 153.723 13.1916 153.562 13.0785C153.933 12.8158 156.015 12.2935 158.078 11.7131C160.149 11.1305 162.182 10.4814 163.099 9.85372C163.999 9.23721 163.989 8.59828 163.851 8.02555C165.095 7.42165 165.877 6.79428 165.697 6.14624C165.273 4.61582 160.996 3.28717 157.39 2.13051C157.163 2.05765 156.961 1.98899 156.801 1.93154Z" fill="#DF137A"/>
<path d="M156.82 1.93021C156.87 1.86015 156.838 1.96734 156.871 1.93512C157.519 1.78309 159.559 2.22586 161.72 2.87705C163.657 3.46063 165.661 4.20745 166.504 4.74305C167.341 5.27549 166.82 6.05453 166.27 6.69592C169.795 8.13666 170.961 9.16757 170.706 9.50875C170.696 9.51085 170.694 9.57636 170.562 9.68635C169.618 10.4738 166.669 11.3888 163.526 12.1457C163.038 12.2634 162.545 12.3731 162.053 12.4782C160.875 12.7272 159.706 12.9402 158.625 13.0961C157.058 13.3182 155.678 13.4215 154.71 13.3472C154.064 13.3038 153.733 13.1889 153.57 13.0761C153.953 12.8144 156.001 12.2988 158.03 11.7292C160.066 11.1565 162.064 10.5218 163 9.90808C163.921 9.30453 163.976 8.67996 163.899 8.1174C165.182 7.50369 165.99 6.86756 165.819 6.20691C165.419 4.66143 161.091 3.30826 157.417 2.13093C157.189 2.05772 156.984 1.98836 156.82 1.93021Z" fill="#E0137A"/>
<path d="M156.831 1.92855C156.879 1.86305 156.85 1.96393 156.883 1.93346C157.538 1.79439 159.522 2.22315 161.631 2.85542C163.512 3.41869 165.461 4.13924 166.321 4.66467C167.174 5.18555 166.754 5.94183 166.304 6.5706C169.929 8.03692 171.142 9.08604 170.904 9.43003C170.894 9.43213 170.893 9.49798 170.759 9.61113C169.819 10.4063 166.833 11.3419 163.645 12.1129C163.151 12.2324 162.652 12.3441 162.155 12.4509C160.963 12.7045 159.782 12.9214 158.687 13.0808C157.103 13.3077 155.707 13.4146 154.726 13.3424C154.071 13.3007 153.736 13.1855 153.57 13.0734C153.964 12.8131 155.979 12.3042 157.973 11.7444C159.975 11.1829 161.938 10.5622 162.893 9.96247C163.835 9.37118 163.954 8.76097 163.94 8.20856C165.26 7.58469 166.094 6.94051 165.932 6.26725C165.557 4.70601 161.179 3.32061 157.436 2.13067C157.206 2.05746 156.999 1.98775 156.831 1.92855Z" fill="#E1137A"/>
<path d="M156.85 1.927C156.897 1.8657 156.872 1.96063 156.904 1.93225C157.565 1.8058 159.493 2.22054 161.55 2.8332C163.374 3.3765 165.269 4.07113 166.148 4.58605C167.017 5.09573 166.695 5.82924 166.347 6.44505C170.071 7.93763 171.332 9.00427 171.11 9.35176C171.101 9.35351 171.1 9.42041 170.965 9.53601C170.027 10.3389 167.006 11.2941 163.772 12.0798C163.273 12.201 162.768 12.3149 162.265 12.4238C161.061 12.6816 159.865 12.9023 158.757 13.0655C157.157 13.2974 155.743 13.4081 154.75 13.3381C154.085 13.2971 153.746 13.1822 153.578 13.0708C153.984 12.8119 155.965 12.3096 157.925 11.7607C159.893 11.209 161.819 10.603 162.795 10.0163C163.757 9.43723 163.941 8.84173 163.988 8.29984C165.347 7.66686 166.206 7.01322 166.053 6.3277C165.703 4.75034 161.274 3.34252 157.464 2.13122C157.232 2.05731 157.022 1.9869 156.85 1.927Z" fill="#E2137A"/>
<path d="M156.869 1.92638C156.914 1.86894 156.892 1.95756 156.924 1.93129C157.591 1.81744 159.463 2.21818 161.469 2.81157C163.236 3.3349 165.077 4.00326 165.973 4.50768C166.858 5.00649 166.636 5.71723 166.389 6.32043C170.212 7.83894 171.521 8.92309 171.316 9.27408C171.307 9.27548 171.306 9.34344 171.17 9.46149C170.234 10.2714 167.178 11.2476 163.898 12.048C163.394 12.171 162.884 12.2866 162.375 12.3969C161.158 12.6596 159.948 12.8838 158.827 13.0509C157.21 13.2877 155.78 13.4026 154.773 13.3347C154.099 13.2947 153.755 13.1795 153.586 13.0691C154.003 12.8113 155.951 12.315 157.877 11.7769C159.81 11.2357 161.701 10.6441 162.696 10.0713C163.679 9.50527 163.927 8.92379 164.036 8.3917C165.434 7.74892 166.317 7.08617 166.175 6.38909C165.849 4.79527 161.368 3.36328 157.491 2.132C157.257 2.05774 157.044 1.98698 156.869 1.92638Z" fill="#E2137B"/>
<path d="M156.888 1.92502C156.932 1.87213 156.913 1.95445 156.944 1.93028C157.618 1.82974 159.434 2.21611 161.388 2.79024C163.098 3.29221 164.885 3.93534 165.798 4.4289C166.7 4.91615 166.577 5.60518 166.432 6.19542C170.354 7.73985 171.71 8.84151 171.522 9.19566C171.513 9.19741 171.513 9.26571 171.375 9.38656C170.443 10.2041 167.35 11.2004 164.025 12.0151C163.515 12.1398 163 12.2579 162.485 12.37C161.255 12.6369 160.032 12.8657 158.898 13.0355C157.263 13.2772 155.816 13.3963 154.797 13.3308C154.113 13.2913 153.766 13.1767 153.594 13.0667C154.022 12.8103 155.938 12.3209 157.829 11.7927C159.728 11.262 161.582 10.6851 162.597 10.1257C163.601 9.57222 163.914 9.00475 164.084 8.48352C165.52 7.83057 166.429 7.15907 166.296 6.44973C165.995 4.83944 161.462 3.38609 157.518 2.13275C157.283 2.05813 157.067 1.98667 156.888 1.92502Z" fill="#E3137B"/>
<path d="M156.907 1.92336C156.949 1.87467 156.933 1.95068 156.963 1.92861C157.645 1.84069 159.404 2.21305 161.307 2.76791C162.96 3.25026 164.692 3.86712 165.623 4.35052C166.541 4.82692 166.518 5.49212 166.474 6.06975C170.496 7.6401 171.9 8.75998 171.727 9.11693C171.72 9.11868 171.719 9.18769 171.58 9.31134C170.65 10.1366 167.52 11.1462 164.151 11.982C163.636 12.1077 163.114 12.2289 162.594 12.3428C161.351 12.6139 160.115 12.8468 158.967 13.0206C157.316 13.2672 155.853 13.3894 154.821 13.3264C154.127 13.2882 153.775 13.1729 153.602 13.064C154.041 12.809 155.923 12.3259 157.78 11.8086C159.644 11.288 161.464 10.7251 162.498 10.1794C163.523 9.63851 163.9 9.08575 164.131 8.57398C165.606 7.91263 166.54 7.23201 166.417 6.51006C166.139 4.88366 161.556 3.40579 157.544 2.13283C157.308 2.05752 157.09 1.98571 156.907 1.92336Z" fill="#E4137B"/>
<path d="M156.926 1.92231C156.967 1.87783 156.954 1.94789 156.984 1.92792C157.672 1.85261 159.375 2.21095 161.226 2.7469C162.822 3.20893 164.501 3.79952 165.449 4.27206C166.383 4.73725 166.459 5.38003 166.517 5.9447C170.638 7.54168 172.09 8.67872 171.933 9.03882C171.926 9.04022 171.926 9.11028 171.786 9.23673C170.858 10.0694 167.693 11.0992 164.279 11.9494C163.757 12.0772 163.23 12.2002 162.704 12.3165C161.448 12.5915 160.198 12.8286 159.038 13.0055C157.369 13.2567 155.89 13.3842 154.845 13.3225C154.142 13.285 153.785 13.1705 153.609 13.0619C154.061 12.8079 155.91 12.3316 157.732 11.825C159.562 11.3147 161.346 10.7668 162.399 10.2344C163.445 9.70647 163.887 9.16738 164.18 8.66611C165.693 7.9946 166.652 7.30453 166.539 6.57102C166.285 4.92816 161.651 3.42646 157.572 2.13389C157.333 2.05823 157.113 1.98572 156.926 1.92231Z" fill="#E5137B"/>
<path d="M156.937 1.92125C156.976 1.88097 156.967 1.94472 156.996 1.92685C157.691 1.86415 159.338 2.20849 161.137 2.72482C162.677 3.16653 164.301 3.7319 165.267 4.19358C166.217 4.64791 166.393 5.26793 166.551 5.81998C170.771 7.44253 172.271 8.59709 172.131 8.96069C172.125 8.96209 172.125 9.0325 171.983 9.16176C171.057 10.0018 167.857 11.0523 164.397 11.9168C163.871 12.0464 163.338 12.1715 162.806 12.2895C161.537 12.5687 160.274 12.81 159.1 12.9904C157.414 13.2468 155.918 13.3779 154.861 13.3183C154.148 13.2826 153.788 13.167 153.609 13.0594C154.072 12.8072 155.888 12.3371 157.675 11.8404C159.471 11.3413 161.219 10.8071 162.292 10.2886C163.359 9.77301 163.865 9.24863 164.22 8.75752C165.772 8.07656 166.756 7.37773 166.652 6.63161C166.422 4.97158 161.738 3.44396 157.591 2.13387C157.351 2.05856 157.128 1.985 156.937 1.92125Z" fill="#E6137B"/>
<path d="M156.956 1.92026C156.994 1.88383 156.988 1.94163 157.016 1.92587C157.717 1.87578 159.309 2.2068 161.056 2.70351C162.539 3.12491 164.108 3.66401 165.092 4.11518C166.059 4.55795 166.334 5.15555 166.594 5.69429C170.913 7.34311 172.461 8.51518 172.337 8.88299C172.331 8.88404 172.332 8.95515 172.188 9.08721C171.265 9.93456 168.03 11.0057 164.524 11.8839C163.992 12.016 163.454 12.1424 162.916 12.2619C161.634 12.5463 160.357 12.7915 159.17 12.9754C157.468 13.2368 155.955 13.3713 154.885 13.3142C154.162 13.2795 153.797 13.1646 153.617 13.0571C154.091 12.8059 155.874 12.3428 157.627 11.8566C159.388 11.3676 161.101 10.8478 162.193 10.343C163.281 9.84033 163.852 9.32961 164.268 8.84901C165.858 8.15859 166.867 7.45065 166.773 6.69262C166.567 5.01508 161.833 3.46399 157.618 2.13429C157.377 2.05863 157.151 1.98472 156.956 1.92026Z" fill="#E6137B"/>
<path d="M156.975 1.91881C157.011 1.88659 157.008 1.93843 157.037 1.92442C157.744 1.88729 159.279 2.2043 160.975 2.68175C162.401 3.08283 163.916 3.596 164.918 4.03632C165.901 4.46823 166.275 5.04306 166.637 5.56954C171.054 7.24393 172.65 8.43387 172.543 8.80413C172.538 8.80518 172.539 8.87699 172.394 9.0122C171.473 9.86761 168.202 10.9591 164.651 11.851C164.113 11.9851 163.569 12.1137 163.026 12.2352C161.731 12.5235 160.44 12.7726 159.241 12.9603C157.521 13.2262 155.991 13.3656 154.909 13.3103C154.176 13.2763 153.807 13.1614 153.625 13.0549C154.111 12.8048 155.86 12.348 157.579 11.8723C159.306 11.3938 160.982 10.8894 162.095 10.3976C163.203 9.90789 163.838 9.41118 164.316 8.94039C165.945 8.24051 166.978 7.52276 166.895 6.75317C166.711 5.05847 161.927 3.48671 157.645 2.13494C157.402 2.05823 157.173 1.98397 156.975 1.91881Z" fill="#E7137B"/>
<path d="M156.994 1.9176C157.028 1.89028 157.029 1.93547 157.056 1.92356C157.771 1.89904 159.249 2.20239 160.893 2.66022C162.263 3.04134 163.724 3.52859 164.743 3.95805C165.742 4.3791 166.216 4.9308 166.679 5.44433C171.196 7.14499 172.839 8.35244 172.748 8.7262C172.744 8.7269 172.745 8.79941 172.598 8.93743C171.68 9.80019 168.374 10.9124 164.777 11.8189C164.235 11.9541 163.685 12.0851 163.135 12.2084C161.828 12.5009 160.524 12.7545 159.31 12.9448C157.574 13.2166 156.028 13.3591 154.932 13.3066C154.19 13.2733 153.817 13.1584 153.633 13.0523C154.13 12.8039 155.846 12.3538 157.53 11.8886C159.223 11.4203 160.864 10.9302 161.996 10.4517C163.125 9.97464 163.76 9.40577 164.364 9.03236C165.903 8.07922 167.089 7.59581 167.016 6.81432C166.856 5.1021 162.024 3.49601 157.672 2.13548C157.428 2.05807 157.196 1.98381 156.994 1.9176Z" fill="#E8147B"/>
<path d="M157.013 1.91608C157.046 1.89262 157.048 1.92694 157.077 1.92204C157.786 1.79453 159.22 2.19982 160.812 2.63803C162.125 2.99883 163.532 3.46017 164.569 3.87911C165.584 4.28895 166.158 4.81789 166.722 5.31881C171.337 7.04539 173.029 8.27036 172.954 8.64762C172.95 8.64832 172.952 8.72153 172.804 8.862C171.887 9.73177 168.546 10.8646 164.904 11.7855C164.356 11.9232 163.8 12.0556 163.245 12.181C161.925 12.4777 160.607 12.7352 159.381 12.9292C157.627 13.2056 156.064 13.3524 154.957 13.3016C154.205 13.2697 153.827 13.1548 153.641 13.0497C154.149 12.8021 155.832 12.3589 157.482 11.9039C159.141 11.4461 160.746 10.9704 161.897 10.5056C163.046 10.0414 163.76 9.49707 164.412 9.12296C166.017 8.20205 167.2 7.66751 167.137 6.87445C167 5.14436 162.119 3.51621 157.699 2.13537C157.453 2.0576 157.219 1.98264 157.013 1.91608Z" fill="#E9147B"/>
<path d="M157.032 1.91538C157.063 1.89577 157.069 1.91714 157.097 1.92134C157.817 2.02713 159.191 2.19877 160.731 2.61702C161.987 2.9582 163.34 3.39326 164.395 3.80135C165.426 4.20033 166.037 4.80248 166.764 5.19411C171.19 7.57818 173.218 8.18944 173.16 8.56986C173.157 8.57021 173.159 8.64412 173.009 8.78774C172.095 9.66627 168.719 10.8184 165.031 11.7536C164.477 11.8931 163.916 12.0276 163.355 12.1544C162.022 12.456 160.69 12.7176 159.451 12.9149C157.68 13.1961 156.101 13.3468 154.98 13.2981C154.219 13.2673 153.837 13.1527 153.648 13.0476C154.169 12.8021 155.819 12.3649 157.434 11.9204C159.058 11.4731 160.627 11.0121 161.798 10.5606C162.969 10.1094 163.759 9.59025 164.46 9.21544C166.127 8.32465 167.312 7.74072 167.259 6.9354C167.145 5.1878 162.213 3.53793 157.726 2.13642C157.479 2.0583 157.242 1.98299 157.032 1.91538Z" fill="#E9147B"/>
<path d="M157.043 1.9138C157.073 1.89908 157.083 1.9166 157.109 1.9201C157.837 2.01748 159.153 2.19613 160.642 2.59476C161.841 2.91598 163.14 3.32547 164.212 3.7227C165.26 4.11117 165.988 4.67268 166.799 5.06851C171.409 7.31913 173.4 8.10799 173.358 8.4912C173.355 8.49155 173.357 8.56617 173.206 8.71259C172.293 9.59812 168.883 10.7712 165.15 11.7202C164.59 11.8617 164.023 11.9987 163.457 12.1272C162.111 12.4327 160.765 12.6985 159.513 12.8996C157.725 13.1861 156.13 13.3406 154.996 13.294C154.225 13.2643 153.839 13.1494 153.648 13.0453C154.18 12.8005 155.797 12.3703 157.377 11.9363C158.967 11.4991 160.501 11.055 161.691 10.615C162.883 10.1786 163.747 9.68359 164.5 9.30633C166.226 8.44286 167.414 7.81304 167.372 6.99616C167.281 5.23035 162.299 3.55806 157.745 2.13658C157.496 2.05812 157.257 1.98245 157.043 1.9138Z" fill="#EA147B"/>
<path d="M157.062 1.91214C157.09 1.90163 157.104 1.91494 157.129 1.91844C157.864 2.01232 159.124 2.19657 160.561 2.57314C161.702 2.87579 162.948 3.2576 164.037 3.64362C165.102 4.02124 165.943 4.54142 166.841 4.9432C171.618 7.08033 173.589 8.02576 173.563 8.41318C173.562 8.41353 173.564 8.48814 173.412 8.63737C172.501 9.53096 169.055 10.7244 165.276 11.6873C164.712 11.831 164.139 11.9693 163.566 12.1003C162.208 12.4103 160.849 12.6797 159.584 12.8843C157.779 13.175 156.166 13.3337 155.02 13.2896C154.239 13.2605 153.849 13.1456 153.656 13.0423C154.199 12.7995 155.783 12.3753 157.329 11.9522C158.884 11.5252 160.383 11.0954 161.592 10.6687C162.805 10.2449 163.742 9.77686 164.548 9.3975C166.33 8.55925 167.525 7.88459 167.493 7.05651C167.425 5.27213 162.394 3.57917 157.772 2.13702C157.522 2.05821 157.28 1.98149 157.062 1.91214Z" fill="#EB147C"/>
<path d="M157.081 1.91154C157.107 1.90453 157.125 1.91504 157.149 1.91784C157.893 2.00226 159.094 2.19422 160.48 2.55152C161.564 2.8342 162.756 3.1915 163.863 3.56561C164.943 3.93341 165.896 4.41016 166.884 4.8186C171.814 6.85694 173.779 7.94459 173.769 8.33517C173.768 8.33552 173.77 8.41083 173.617 8.56286C172.707 9.46415 169.228 10.6776 165.403 11.6549C164.833 11.8006 164.254 11.9411 163.676 12.0738C162.305 12.3877 160.932 12.6616 159.654 12.8693C157.832 13.1657 156.203 13.3282 155.044 13.2858C154.253 13.2585 153.859 13.1429 153.664 13.0406C154.219 12.7986 155.769 12.3814 157.281 11.9684C158.802 11.5519 160.264 11.1364 161.494 10.7234C162.726 10.3119 163.736 9.87189 164.596 9.48937C166.431 8.67355 167.636 7.95755 167.615 7.11756C167.569 5.31496 162.488 3.60029 157.799 2.13782C157.547 2.05901 157.302 1.9816 157.081 1.91154Z" fill="#EC147C"/>
<path d="M157.1 1.9104C157.125 1.90829 157.145 1.916 157.169 1.9167C157.925 1.94297 159.064 2.19238 160.398 2.53041C161.426 2.79243 162.564 3.12345 163.688 3.48705C164.785 3.84365 165.847 4.27766 166.926 4.69346C172 6.64808 173.968 7.86324 173.975 8.25696C173.974 8.25696 173.977 8.33297 173.822 8.48815C172.915 9.39681 169.4 10.6312 165.53 11.6229C164.954 11.77 164.37 11.9122 163.786 12.0468C162.402 12.3659 161.015 12.6437 159.724 12.8549C157.885 13.1554 156.239 13.3222 155.067 13.2822C154.267 13.2553 153.869 13.1407 153.672 13.0384C154.238 12.7981 155.755 12.3869 157.232 11.9848C158.719 11.5788 160.145 11.1773 161.394 10.778C162.648 10.3794 163.729 9.96673 164.644 9.58106C166.531 8.78625 167.746 8.02962 167.736 7.17842C167.713 5.35726 162.582 3.62122 157.826 2.13844C157.573 2.05927 157.325 1.98116 157.1 1.9104Z" fill="#ED147C"/>
</g>
<mask id="mask2_2305_26756" style="mask-type:luminance" maskUnits="userSpaceOnUse" x="-11445" y="-11438" width="23086" height="22957">
<path d="M-11444.4 -11437.9H11640.4V11518.4H-11444.4V-11437.9Z" fill="url(#paint0_linear_2305_26756)"/>
</mask>
<g mask="url(#mask2_2305_26756)">
<path d="M167.74 9.42656C165.298 10.5706 159.711 12.7715 159.711 12.7715C161.897 12.4664 164.529 12.0282 167.206 11.2327C172.107 9.7765 174.181 8.92459 174.223 8.30563C174.255 8.02224 173.534 7.55636 172.267 6.88345C172.267 6.88345 170.183 8.28216 167.74 9.42656Z" fill="url(#paint1_linear_2305_26756)"/>
</g>
</g>
<defs>
<linearGradient id="paint0_linear_2305_26756" x1="167.378" y1="11.4714" x2="166.47" y2="9.14444" gradientUnits="userSpaceOnUse">
<stop stop-color="white" stop-opacity="0.500008"/>
<stop offset="0.400251" stop-color="white" stop-opacity="0.6"/>
<stop offset="0.721212" stop-color="white" stop-opacity="0.6"/>
<stop offset="0.930152" stop-color="white" stop-opacity="0.6"/>
<stop offset="1" stop-color="white" stop-opacity="0.6"/>
</linearGradient>
<linearGradient id="paint1_linear_2305_26756" x1="167.374" y1="11.4747" x2="166.466" y2="9.14778" gradientUnits="userSpaceOnUse">
<stop stop-color="white"/>
<stop offset="0.400251" stop-color="#ED147C"/>
<stop offset="0.721212" stop-color="#ED147C"/>
<stop offset="0.930152" stop-color="#ED147C"/>
<stop offset="1" stop-color="#ED147C"/>
</linearGradient>
<clipPath id="clip0_2305_26756">
<rect width="80" height="24" fill="white" transform="translate(0 1)"/>
</clipPath>
<clipPath id="clip1_2305_26756">
<rect width="66" height="24" fill="white" transform="translate(109 1)"/>
</clipPath>
</defs>
</svg>
