<svg width="48" height="46" viewBox="0 0 48 46" fill="none" xmlns="http://www.w3.org/2000/svg">
<ellipse cx="24" cy="23" rx="24" ry="23" fill="white"/>
<path d="M13.8861 35.2856H34.4356C35.4673 35.2856 36.3037 34.4493 36.3037 33.4175V12.8681C36.3037 11.8363 35.4673 10.9999 34.4356 10.9999L13.8861 10.9999C12.8544 10.9999 12.018 11.8363 12.018 12.8681L12.018 33.4175C12.018 34.4493 12.8544 35.2856 13.8861 35.2856Z" stroke="#D7D7D7" stroke-width="1.30769" stroke-linecap="round" stroke-linejoin="round"/>
<path d="M28.3459 22.2089C30.1514 22.2089 31.6151 20.7452 31.6151 18.9396C31.6151 17.1341 30.1514 15.6704 28.3459 15.6704C26.5403 15.6704 25.0767 17.1341 25.0767 18.9396C25.0767 20.7452 26.5403 22.2089 28.3459 22.2089Z" stroke="#D7D7D7" stroke-width="1.30769" stroke-linecap="round" stroke-linejoin="round"/>
<path d="M28.6264 35.2858C28.0248 32.0819 26.3046 29.196 23.7725 27.143C21.2404 25.0899 18.0612 24.0033 14.8022 24.077C13.8619 24.0745 12.9236 24.1621 12 24.3385" stroke="#D7D7D7" stroke-width="1.30769" stroke-linecap="round" stroke-linejoin="round"/>
<path d="M36.2852 28.5792C34.7805 28.0711 33.2029 27.8124 31.6148 27.8133C29.6046 27.8089 27.6147 28.2158 25.7676 29.0089" stroke="#D7D7D7" stroke-width="1.30769" stroke-linecap="round" stroke-linejoin="round"/>
</svg>
