<svg width="20" height="20" viewBox="0 0 20 20" fill="none" xmlns="http://www.w3.org/2000/svg">
<path fill-rule="evenodd" clip-rule="evenodd" d="M4.44921 0.899293C4.34776 0.945333 4.28538 1.0046 4.23558 1.10225C4.1486 1.27277 4.14774 1.38909 4.23213 1.57499L4.29755 1.71909L6.14206 2.64147L7.98657 3.56384L8.31941 4.56523C8.50244 5.11601 8.68175 5.62545 8.71784 5.69737C8.83453 5.92986 8.95077 5.95806 9.79563 5.95894C10.5937 5.95977 10.7387 5.93256 10.86 5.75927C10.8947 5.70971 11.0806 5.19547 11.2731 4.6165L11.6231 3.56384L13.4646 2.643C15.2511 1.74965 15.3081 1.71814 15.3753 1.58644C15.4632 1.41397 15.4629 1.27626 15.3741 1.10225C15.2952 0.947589 15.0974 0.834762 14.903 0.833497C14.8203 0.83295 14.2271 1.11582 12.754 1.85814L10.7193 2.88353H9.8187H8.9181L6.86427 1.85814C5.44243 1.14829 4.77689 0.832984 4.70145 0.833497C4.6415 0.833907 4.52799 0.863507 4.44921 0.899293ZM5.39937 4.97129C4.81261 5.08651 4.31382 5.59555 4.2001 6.19523C4.15205 6.4486 4.15205 16.8184 4.2001 17.0718C4.31652 17.6857 4.81226 18.1814 5.42613 18.2978C5.67855 18.3457 13.9312 18.3457 14.1836 18.2978C14.7975 18.1814 15.2932 17.6857 15.4096 17.0718C15.4577 16.8184 15.4577 6.4486 15.4096 6.19523C15.2932 5.58136 14.7975 5.08562 14.1836 4.9692C14.0824 4.95 13.6053 4.93431 13.1234 4.93431H12.2471L12.0645 5.48973C11.8507 6.14006 11.7509 6.33178 11.506 6.56252C11.3094 6.74778 11.0992 6.86262 10.8215 6.93655C10.5686 7.00389 9.04108 7.00389 8.78822 6.93655C8.51033 6.86259 8.31288 6.75328 8.09833 6.55463C7.85918 6.33321 7.75332 6.12605 7.52798 5.43846L7.36279 4.93431L6.45614 4.93807C5.95749 4.94012 5.48195 4.95505 5.39937 4.97129ZM9.50093 8.08164C8.72457 8.23408 8.16563 9.03334 8.29391 9.80758C8.39928 10.4433 8.90593 10.9776 9.50093 11.0803L9.65105 11.1062L9.36052 11.1637C8.18764 11.3955 7.34679 12.3272 7.25416 13.4974C7.23519 13.7371 7.24176 13.7903 7.30574 13.9157C7.35445 14.0112 7.42424 14.0824 7.51393 14.1282C7.6449 14.195 7.71145 14.197 9.80486 14.197C11.8983 14.197 11.9648 14.195 12.0958 14.1282C12.3554 13.9958 12.4233 13.7081 12.3167 13.1923C12.101 12.1479 11.312 11.3738 10.2492 11.1637L9.95866 11.1062L10.1088 11.0803C10.872 10.9485 11.4441 10.1322 11.3158 9.35791C11.1715 8.48701 10.3562 7.91368 9.50093 8.08164ZM6.48126 15.327C6.33695 15.4032 6.21599 15.6049 6.21599 15.7693C6.21599 15.9389 6.33688 16.1358 6.48854 16.2132C6.62085 16.2807 6.68377 16.282 9.80486 16.282C12.9259 16.282 12.9889 16.2807 13.1212 16.2132C13.2728 16.1358 13.3937 15.9389 13.3937 15.7693C13.3937 15.5997 13.2728 15.4028 13.1212 15.3254C12.9888 15.2578 12.9275 15.2566 9.79768 15.2581C6.69051 15.2595 6.60577 15.2613 6.48126 15.327Z" fill="#101010"/>
</svg>
