<svg width="330" height="1080" viewBox="0 0 330 1080" fill="none" xmlns="http://www.w3.org/2000/svg">
<g clip-path="url(#clip0_2305_44176)">
<g filter="url(#filter0_f_2305_44176)">
<path d="M-399.429 343.811C-535.513 270.211 -729.834 251.442 -788.867 260.152L-1430 1539.06C66.5374 1491.3 855.131 1909.44 743.002 1689.24C556.065 1322.14 -71.9408 922.815 -186.887 847.435C-301.833 772.056 -229.324 435.811 -399.429 343.811Z" fill="#F9EC00"/>
</g>
<g filter="url(#filter1_f_2305_44176)">
<path d="M33.6148 1171.21L83.7253 1675L-127.32 1690.75L-182.946 1521.53L-559.187 1103.24L-830.973 758.039L33.6148 1171.21Z" fill="url(#paint0_linear_2305_44176)" fill-opacity="0.6"/>
</g>
<g opacity="0.3">
<path opacity="0.54" d="M-56.4509 903.877C-50.5412 889.897 -31.5493 885.464 -17.4186 890.99C-3.28183 896.513 6.75196 909.128 15.051 921.843C23.356 934.555 30.8908 948.202 42.5995 957.859C66.8367 977.841 101.867 975.721 133 971.68C164.133 967.639 198.368 963.391 224.669 980.571C245.288 994.044 256.293 1017.85 272.515 1036.38C300.829 1068.74 347.116 1084.25 389.18 1075.45" stroke="white" stroke-miterlimit="10"/>
<path opacity="0.54" d="M-61.2636 910.504C-55.3878 896.536 -36.6005 891.93 -22.4133 897.133C-21.1442 897.6 -19.9062 898.124 -18.6967 898.698C-6.4035 904.553 2.79194 915.751 10.5749 927.09C12.0762 929.281 13.5506 931.496 15.0286 933.717C21.9615 944.139 28.9493 954.642 38.6574 962.475C41.8036 965.014 45.1268 967.201 48.6002 969.059C72.0218 981.608 101.971 979.37 128.955 975.443C130.914 975.157 132.889 974.871 134.864 974.585C164.155 970.374 194.967 967.374 220.08 981.237C227.419 985.285 234.073 990.22 239.951 996.53C246.899 1003.99 252.532 1012.97 257.951 1021.69C261.65 1027.63 265.304 1033.52 269.411 1039.03C271.347 1041.63 273.384 1044.13 275.557 1046.55C289.379 1061.95 308.319 1073.21 328.62 1078.98C348.963 1084.76 370.631 1085.26 391.239 1080.56" stroke="white" stroke-miterlimit="10"/>
<path opacity="0.54" d="M-66.0953 917.129C-60.2498 903.178 -41.6705 898.392 -27.433 903.276C-26.1561 903.714 -24.9199 904.207 -23.7027 904.752C-11.3286 910.326 -1.94035 921.228 6.06774 932.34C7.61321 934.482 9.12924 936.657 10.6488 938.838C17.7704 949.054 24.9271 959.388 34.6914 967.108C37.8539 969.605 41.1849 971.763 44.666 973.592C68.1809 985.967 98.0193 983.55 124.88 979.225C126.831 978.912 128.795 978.592 130.758 978.271C159.858 973.572 189.994 970.226 215.467 981.919C223.271 985.498 230.717 989.703 237.16 996.084C244.807 1003.63 250.521 1013.44 255.631 1022.86C259.116 1029.29 262.427 1035.67 266.272 1041.7C268.077 1044.54 270.016 1047.29 272.112 1049.96C285.486 1066.92 305.591 1079.33 327.111 1085.24C348.672 1091.17 371.57 1091.01 393.264 1085.7" stroke="white" stroke-miterlimit="10"/>
<path opacity="0.54" d="M-70.9037 923.757C-65.0921 909.818 -46.7148 904.849 -32.4234 909.419C-31.1484 909.826 -29.8949 910.293 -28.676 910.813C-16.2271 916.11 -6.63995 926.711 1.58982 937.591C3.17686 939.693 4.73704 941.818 6.29466 943.953C13.599 953.967 20.9245 964.131 30.7476 971.729C33.9265 974.184 37.2712 976.31 40.7636 978.117C64.3814 990.319 94.1029 987.727 120.833 982.992C122.776 982.651 124.722 982.301 126.674 981.946C155.577 976.763 185.16 972.975 210.876 982.59C219.176 985.697 227.379 989.169 234.394 995.617C242.73 1003.25 248.536 1013.88 253.339 1024.02C256.617 1030.93 259.587 1037.82 263.157 1044.35C264.835 1047.43 266.663 1050.43 268.692 1053.34C281.624 1071.87 302.887 1085.44 325.626 1091.49C348.403 1097.55 372.533 1096.73 395.314 1090.82" stroke="white" stroke-miterlimit="10"/>
<path opacity="0.54" d="M-75.7194 930.382C-69.9477 916.458 -51.7688 911.312 -37.4271 915.562C-36.1443 915.94 -34.8892 916.382 -33.6625 916.873C-21.1328 921.889 -11.3562 932.188 -2.89175 942.845C-1.26055 944.897 0.341212 946.982 1.93691 949.07C9.43346 958.885 16.9279 968.88 26.8001 976.352C29.9928 978.775 33.3479 980.863 36.8515 982.647C60.5686 994.671 90.1768 991.91 116.776 986.765C118.708 986.39 120.647 986.012 122.587 985.624C151.289 979.95 180.407 975.621 206.281 983.263C215.111 985.872 224.041 988.642 231.624 995.152C240.649 1002.88 246.546 1014.32 251.046 1025.17C254.117 1032.57 256.736 1039.95 260.039 1047.01C261.596 1050.32 263.306 1053.56 265.265 1056.72C277.748 1076.81 300.173 1091.54 324.134 1097.73C348.13 1103.93 373.495 1102.45 397.354 1095.93" stroke="white" stroke-miterlimit="10"/>
<path opacity="0.54" d="M-80.5428 937.011C-74.8049 923.098 -56.8246 917.775 -42.442 921.703C-41.1576 922.055 -39.8982 922.463 -38.6603 922.931C-26.0557 927.67 -16.0803 937.669 -7.39063 948.099C-5.72135 950.105 -4.07801 952.15 -2.44074 954.199C5.2385 963.812 12.9079 973.633 22.8327 980.986C26.0418 983.367 29.4046 985.426 32.922 987.178C56.736 999.033 86.2273 996.097 112.706 990.545C114.63 990.143 116.557 989.73 118.48 989.312C146.984 983.154 175.713 978.175 201.666 983.946C211.043 986.032 220.68 988.121 228.838 994.704C238.557 1002.51 244.547 1014.78 248.733 1026.35C251.595 1034.24 253.873 1042.11 256.908 1049.68C258.338 1053.24 259.937 1056.72 261.828 1060.13C273.863 1081.79 297.454 1097.67 322.64 1104C347.854 1110.34 374.451 1108.21 399.394 1101.07" stroke="white" stroke-miterlimit="10"/>
<path opacity="0.54" d="M-85.3656 943.635C-79.6616 929.734 -61.8857 924.238 -47.4467 927.842C-46.1546 928.166 -44.8874 928.545 -43.6418 928.985C-30.9599 933.437 -20.7881 943.145 -11.8768 953.342C-10.1599 955.305 -8.47844 957.304 -6.80309 959.306C1.0649 968.714 8.89709 978.369 18.8841 985.605C22.1096 987.945 25.4897 989.978 29.0148 991.701C52.9317 1003.38 82.3027 1000.27 108.654 994.311C110.571 993.881 112.486 993.434 114.398 992.982C142.71 986.336 171.079 980.604 197.076 984.611C207.017 986.147 217.347 987.588 226.073 994.232C236.481 1002.13 242.562 1015.22 246.449 1027.5C249.104 1035.87 251.034 1044.25 253.804 1052.33C255.107 1056.13 256.598 1059.86 258.419 1063.51C270.006 1086.74 294.761 1103.77 321.166 1110.24C347.599 1116.72 375.424 1113.94 401.452 1106.18" stroke="white" stroke-miterlimit="10"/>
<path opacity="0.54" d="M-90.1863 950.258C-84.5161 936.368 -66.9483 930.693 -52.4554 933.983C-51.1651 934.276 -49.8867 934.632 -48.6369 935.037C-35.8801 939.212 -25.5094 948.62 -16.3729 958.591C-14.6179 960.507 -12.8889 962.463 -11.1719 964.425C-3.11776 973.637 4.88937 983.118 14.9256 990.23C18.1674 992.528 21.5553 994.532 25.0916 996.233C49.1018 1007.74 78.3655 1004.45 104.59 998.092C106.495 997.627 108.402 997.153 110.297 996.671C138.412 989.541 166.449 982.964 192.471 985.301C202.986 986.248 213.995 987.072 223.293 993.784C234.39 1001.77 240.559 1015.67 244.14 1028.67C246.581 1037.53 248.174 1046.4 250.675 1055C251.848 1059.03 253.237 1063.01 254.985 1066.91C266.13 1091.7 292.044 1109.89 319.668 1116.51C347.32 1123.13 376.374 1119.68 403.488 1111.32" stroke="white" stroke-miterlimit="10"/>
<path opacity="0.54" d="M-94.9953 956.89C-89.3589 943.011 -71.9896 937.159 -57.4464 940.129C-56.1483 940.393 -54.8717 940.718 -53.6107 941.1C-40.7731 944.995 -30.2156 954.109 -20.8514 963.845C-19.0487 965.718 -17.2816 967.627 -15.5266 969.543C-7.28366 978.55 0.892342 987.861 10.9812 994.854C14.2395 997.11 17.635 999.086 21.1852 1000.75C45.2982 1012.09 74.4451 1008.62 100.539 1001.86C102.436 1001.36 104.326 1000.86 106.215 1000.34C134.133 992.725 161.842 985.213 187.882 985.965C198.966 986.286 210.663 986.537 220.532 993.317C232.324 1001.39 238.579 1016.11 241.859 1029.83C244.094 1039.17 245.336 1048.54 247.572 1057.64C248.618 1061.92 249.896 1066.14 251.573 1070.28C262.27 1096.64 289.349 1115.99 318.191 1122.74C347.062 1129.5 377.345 1125.4 405.546 1116.43" stroke="white" stroke-miterlimit="10"/>
<path opacity="0.54" d="M-99.8172 963.51C-94.2147 949.642 -77.0499 943.617 -62.4563 946.268C-61.1505 946.503 -59.8662 946.799 -58.6034 947.156C-45.6911 950.773 -34.9347 959.588 -25.3452 969.097C-23.5045 970.924 -21.6897 972.789 -19.9027 974.663C-11.471 983.464 -3.13219 992.609 7.01887 999.485C10.2874 1001.7 13.7029 1003.64 17.2643 1005.29C41.4767 1016.45 70.5102 1012.81 96.4739 1005.63C98.363 1005.11 100.242 1004.58 102.113 1004.02C129.833 995.926 157.205 987.405 183.273 986.646C194.929 986.306 207.306 986.013 217.748 992.86C230.228 1001.02 236.581 1016.56 239.545 1030.99C241.567 1040.82 242.474 1050.69 244.433 1060.31C245.358 1064.83 246.518 1069.29 248.129 1073.68C258.38 1101.61 286.621 1122.11 316.688 1129C346.772 1135.9 378.289 1131.14 407.575 1121.55" stroke="white" stroke-miterlimit="10"/>
<path opacity="0.54" d="M-104.638 970.143C-99.0695 956.287 -82.1127 950.082 -67.4627 952.41C-66.1552 952.62 -64.8632 952.887 -63.5927 953.216C-50.6056 956.555 -39.6502 965.07 -29.8331 974.343C-27.9447 976.126 -26.0979 977.949 -24.2632 979.78C-15.6489 988.379 -7.13162 997.357 3.07467 1004.1C6.35963 1006.28 9.78281 1008.19 13.352 1009.81C37.6612 1020.8 66.5804 1016.98 92.4206 1009.4C94.2983 1008.85 96.169 1008.28 98.0327 1007.7C125.551 999.115 152.557 989.535 178.679 987.324C190.891 986.293 203.969 985.492 214.978 992.401C228.148 1000.65 234.593 1017.01 237.25 1032.16C239.065 1042.47 239.628 1052.83 241.319 1062.97C242.117 1067.73 243.169 1072.44 244.709 1077.08C254.513 1106.57 283.919 1128.23 315.204 1135.26C346.506 1142.3 379.262 1136.88 409.626 1126.68" stroke="white" stroke-miterlimit="10"/>
<path opacity="0.54" d="M-109.452 976.764C-103.917 962.919 -87.1589 956.538 -72.4645 958.549C-71.1493 958.73 -69.8556 958.973 -68.5809 959.266C-55.5163 962.319 -44.3647 970.543 -34.3223 979.59C-32.3959 981.327 -30.5014 983.106 -28.6287 984.89C-19.8221 993.29 -11.1455 1002.1 -0.880515 1008.72C2.42083 1010.86 5.85522 1012.74 9.43817 1014.33C33.8502 1025.15 62.6527 1021.15 88.3623 1013.16C90.2321 1012.58 92.0914 1011.98 93.9377 1011.37C121.265 1002.3 147.87 991.599 174.076 987.99C186.833 986.235 200.62 984.954 212.204 991.935C226.072 1000.28 232.599 1017.45 234.953 1033.31C236.554 1044.11 236.773 1054.97 238.202 1065.62C238.873 1070.62 239.814 1075.58 241.287 1080.46C250.649 1111.52 281.21 1134.33 313.718 1141.5C346.239 1148.69 380.223 1142.61 411.671 1131.8" stroke="white" stroke-miterlimit="10"/>
<path opacity="0.54" d="M-114.279 983.396C-108.778 969.562 -92.2246 963.007 -77.4799 964.699C-76.1665 964.849 -74.859 965.059 -73.5791 965.334C-60.4397 968.109 -49.0892 976.033 -38.8252 984.847C-36.8571 986.544 -34.9185 988.274 -33.0042 990.018C-24.0149 998.216 -15.1634 1006.85 -4.84576 1013.35C-1.52803 1015.45 1.91409 1017.31 5.51433 1018.87C30.0258 1029.5 58.7088 1025.34 84.294 1016.94C86.1559 1016.34 88.0039 1015.7 89.8388 1015.06C116.968 1005.5 143.14 993.651 169.473 988.675C182.756 986.165 197.28 984.437 209.426 991.484C223.983 999.916 230.602 1017.91 232.649 1034.48C234.043 1045.76 233.918 1057.12 235.076 1068.28C235.62 1073.53 236.455 1078.72 237.855 1083.85C246.769 1116.48 278.495 1140.45 312.222 1147.76C345.958 1155.08 381.174 1148.35 413.709 1136.93" stroke="white" stroke-miterlimit="10"/>
<path opacity="0.54" d="M-119.089 990.017C-113.622 976.195 -97.2667 969.463 -82.4716 970.835C-81.1505 970.956 -79.8413 971.141 -78.5476 971.384C-65.3274 973.878 -53.784 981.506 -43.2948 990.094C-41.2826 991.741 -39.3024 993.431 -37.3561 995.132C-28.178 1003.12 -19.1542 1011.59 -8.78385 1017.98C-5.44974 1020.03 -1.99379 1021.86 1.60812 1023.39C26.2164 1033.86 54.7886 1029.52 80.2468 1020.72C82.0973 1020.08 83.9313 1019.42 85.7609 1018.74C112.693 1008.69 138.391 995.672 164.888 989.351C178.684 986.061 193.948 983.908 206.666 991.021C221.912 999.543 228.622 1018.36 230.365 1035.64C231.552 1047.4 231.08 1059.26 231.973 1070.93C232.393 1076.41 233.114 1081.86 234.444 1087.23C242.909 1121.42 275.806 1146.55 310.755 1154.01C345.71 1161.46 382.155 1154.08 415.777 1142.05" stroke="white" stroke-miterlimit="10"/>
<path opacity="0.54" d="M-123.904 996.649C-118.471 982.838 -102.324 975.927 -87.4747 976.985C-86.1519 977.082 -84.8349 977.238 -83.5335 977.451C-70.2385 979.669 -58.4962 986.996 -47.7818 995.358C-45.7281 996.965 -43.7037 998.605 -41.7193 1000.26C-32.3551 1008.06 -23.1658 1016.35 -12.7368 1022.61C-9.38631 1024.62 -5.92261 1026.42 -2.3034 1027.93C22.4042 1038.22 50.8596 1033.71 76.1908 1024.5C78.0334 1023.83 79.856 1023.14 81.6682 1022.43C108.403 1011.9 133.583 997.679 160.288 990.034C174.577 985.944 190.604 983.392 203.894 990.574C219.835 999.18 226.636 1018.82 228.068 1036.82C229.045 1049.07 228.231 1061.42 228.856 1073.61C229.149 1079.33 229.763 1085.02 231.021 1090.64C239.038 1126.4 273.101 1152.68 309.268 1160.28C345.442 1167.87 383.116 1159.83 417.822 1147.19" stroke="white" stroke-miterlimit="10"/>
<path opacity="0.54" d="M-128.733 1003.27C-123.33 989.478 -107.391 982.387 -92.4856 983.122C-91.155 983.19 -89.8339 983.311 -88.5273 983.506C-75.1514 985.442 -63.2162 992.473 -52.2802 1000.6C-50.1822 1002.16 -48.1224 1003.76 -46.0904 1005.38C-36.5374 1012.97 -27.1792 1021.09 -16.6976 1027.23C-13.3333 1029.21 -9.85925 1030.97 -6.22882 1032.46C18.5756 1042.58 46.9202 1037.89 72.1244 1028.28C73.9592 1027.58 75.7704 1026.85 77.5712 1026.11C104.114 1015.09 128.735 999.675 155.683 990.71C170.439 985.803 187.253 982.863 201.114 990.112C217.744 998.808 224.637 1019.26 225.765 1037.97C226.535 1050.71 225.371 1063.56 225.728 1076.27C225.894 1082.23 226.396 1088.16 227.588 1094.03C235.163 1131.35 270.384 1158.79 307.771 1166.53C345.163 1174.27 384.069 1165.57 419.859 1152.31" stroke="white" stroke-miterlimit="10"/>
</g>
</g>
<defs>
<filter id="filter0_f_2305_44176" x="-1580" y="108.179" width="2483.52" height="1795.56" filterUnits="userSpaceOnUse" color-interpolation-filters="sRGB">
<feFlood flood-opacity="0" result="BackgroundImageFix"/>
<feBlend mode="normal" in="SourceGraphic" in2="BackgroundImageFix" result="shape"/>
<feGaussianBlur stdDeviation="75" result="effect1_foregroundBlur_2305_44176"/>
</filter>
<filter id="filter1_f_2305_44176" x="-930.973" y="658.039" width="1114.7" height="1132.71" filterUnits="userSpaceOnUse" color-interpolation-filters="sRGB">
<feFlood flood-opacity="0" result="BackgroundImageFix"/>
<feBlend mode="normal" in="SourceGraphic" in2="BackgroundImageFix" result="shape"/>
<feGaussianBlur stdDeviation="50" result="effect1_foregroundBlur_2305_44176"/>
</filter>
<linearGradient id="paint0_linear_2305_44176" x1="-621.315" y1="1108.39" x2="-683.385" y2="1472.7" gradientUnits="userSpaceOnUse">
<stop stop-color="#B0A833"/>
<stop offset="1" stop-color="#222222" stop-opacity="0"/>
</linearGradient>
<clipPath id="clip0_2305_44176">
<rect width="330" height="1080" fill="white"/>
</clipPath>
</defs>
</svg>
