<svg width="1371" height="753" viewBox="0 0 1371 753" fill="none" xmlns="http://www.w3.org/2000/svg">
<g filter="url(#filter0_f_2716_82383)">
<path d="M-198.062 239.436C-345.185 186.685 -542.106 197.57 -599.731 215.27L-1045 1590.21C442.241 1314.33 1293.53 1611.66 1147.97 1408.86C905.317 1070.76 217.269 767.725 90.9839 709.974C-35.301 652.223 -14.1585 305.375 -198.062 239.436Z" fill="#F9EC00"/>
</g>
<g filter="url(#filter1_f_2716_82383)">
<path d="M346.333 1005.67L471.908 1496.13L265.657 1543.55L185.127 1384.66L-249.936 1027.95L-570.711 727.725L346.333 1005.67Z" fill="url(#paint0_linear_2716_82383)" fill-opacity="0.6"/>
</g>
<g opacity="0.3">
<path opacity="0.54" d="M-179.06 417.855C-167.429 390.341 -130.05 381.616 -102.238 392.493C-74.4146 403.363 -54.6664 428.192 -38.3325 453.217C-21.9867 478.235 -7.15709 505.095 15.8876 524.101C63.5906 563.43 132.536 559.258 193.812 551.304C255.087 543.35 322.468 534.989 374.232 568.804C414.812 595.321 436.473 642.171 468.4 678.654C524.127 742.344 615.228 772.86 698.018 755.533" stroke="white" stroke-miterlimit="10"/>
<path opacity="0.54" d="M-188.525 430.901C-176.961 403.409 -139.984 394.343 -112.061 404.583C-109.564 405.502 -107.127 406.534 -104.746 407.663C-80.5513 419.187 -62.4531 441.227 -47.135 463.544C-44.1802 467.857 -41.2782 472.216 -38.3693 476.587C-24.7242 497.099 -10.971 517.771 8.13632 533.188C14.3284 538.185 20.8691 542.489 27.7053 546.146C73.803 570.845 132.748 566.441 185.857 558.711C189.713 558.149 193.6 557.585 197.487 557.022C255.138 548.733 315.779 542.829 365.207 570.115C379.652 578.082 392.748 587.794 404.317 600.213C417.992 614.887 429.078 632.576 439.743 649.728C447.023 661.43 454.216 673.008 462.299 683.867C466.109 688.977 470.118 693.908 474.396 698.669C501.599 728.978 538.875 751.129 578.832 762.485C618.87 773.874 661.518 774.842 702.076 765.594" stroke="white" stroke-miterlimit="10"/>
<path opacity="0.54" d="M-198.052 443.938C-186.548 416.48 -149.98 407.061 -121.958 416.672C-119.445 417.534 -117.012 418.505 -114.617 419.578C-90.2623 430.549 -71.7846 452.005 -56.0233 473.877C-52.9816 478.092 -49.9978 482.372 -47.0071 486.665C-32.9905 506.772 -18.9049 527.11 0.312946 542.305C6.53732 547.22 13.0932 551.467 19.9446 555.068C66.226 579.423 124.953 574.666 177.819 566.154C181.66 565.537 185.524 564.907 189.389 564.277C246.663 555.028 305.974 548.442 356.109 571.457C371.47 578.5 386.124 586.776 398.806 599.334C413.856 614.189 425.103 633.486 435.159 652.038C442.02 664.697 448.535 677.252 456.103 689.123C459.656 694.698 463.472 700.122 467.598 705.368C493.919 738.759 533.489 763.186 575.844 774.818C618.281 786.482 663.347 786.157 706.046 775.711" stroke="white" stroke-miterlimit="10"/>
<path opacity="0.54" d="M-207.502 456.985C-196.063 429.549 -159.894 419.77 -131.766 428.764C-129.256 429.564 -126.789 430.484 -124.39 431.507C-99.8887 441.932 -81.0195 462.797 -64.8219 484.212C-61.6984 488.348 -58.6276 492.531 -55.562 496.733C-41.1859 516.443 -26.7679 536.447 -7.43447 551.4C-1.17784 556.233 5.40515 560.417 12.2787 563.973C58.7626 587.989 117.26 582.888 169.869 573.569C173.694 572.897 177.524 572.207 181.366 571.51C238.251 561.309 296.475 553.852 347.088 572.777C363.425 578.893 379.57 585.725 393.376 598.415C409.782 613.445 421.21 634.356 430.663 654.319C437.116 667.928 442.96 681.473 449.987 694.339C453.29 700.391 456.887 706.291 460.882 712.026C486.332 748.494 528.183 775.203 572.937 787.111C617.766 799.038 665.257 797.431 710.095 785.787" stroke="white" stroke-miterlimit="10"/>
<path opacity="0.54" d="M-216.989 470.024C-205.629 442.618 -169.85 432.491 -141.623 440.855C-139.098 441.599 -136.628 442.469 -134.214 443.435C-109.553 453.308 -90.311 473.578 -73.6514 494.552C-70.4409 498.591 -67.2884 502.694 -64.1478 506.805C-49.3933 526.123 -34.643 545.793 -15.2128 560.5C-8.929 565.269 -2.32567 569.378 4.57 572.89C51.2494 596.555 109.523 591.121 161.876 580.995C165.679 580.257 169.493 579.512 173.313 578.749C229.802 567.582 287.112 559.06 338.036 574.101C355.415 579.237 372.991 584.69 387.916 597.501C405.677 612.706 417.286 635.231 426.141 656.587C432.186 671.145 437.341 685.675 443.841 699.559C446.906 706.082 450.272 712.465 454.127 718.677C478.696 758.227 522.833 787.202 569.992 799.396C617.22 811.599 667.141 808.691 714.101 795.844" stroke="white" stroke-miterlimit="10"/>
<path opacity="0.54" d="M-226.468 483.069C-215.175 455.686 -179.786 445.211 -151.479 452.941C-148.951 453.635 -146.472 454.437 -144.036 455.358C-119.228 464.686 -99.5948 484.364 -82.492 504.893C-79.2066 508.841 -75.9722 512.866 -72.7498 516.898C-57.6357 535.818 -42.5411 555.147 -23.0073 569.62C-16.6913 574.307 -10.0727 578.359 -3.14986 581.807C43.7201 605.14 101.764 599.362 153.879 588.435C157.666 587.642 161.458 586.831 165.243 586.007C221.344 573.887 277.888 564.088 328.967 575.446C347.422 579.551 366.389 583.663 382.446 596.619C401.575 611.992 413.364 636.131 421.604 658.905C427.237 674.433 431.719 689.921 437.692 704.823C440.507 711.824 443.654 718.683 447.377 725.384C471.064 768.017 517.494 799.268 567.064 811.731C616.69 824.209 669.037 820.019 718.13 805.962" stroke="white" stroke-miterlimit="10"/>
<path opacity="0.54" d="M-235.961 496.108C-224.734 468.747 -189.749 457.93 -161.33 465.024C-158.787 465.661 -156.293 466.407 -153.841 467.272C-128.881 476.035 -108.861 495.142 -91.3224 515.213C-87.9432 519.075 -84.6339 523.009 -81.3365 526.951C-65.8509 545.467 -50.4359 564.468 -30.7796 578.712C-24.4313 583.317 -17.7788 587.318 -10.8407 590.709C36.2318 613.703 94.0389 607.568 145.904 595.846C149.675 594.999 153.445 594.121 157.208 593.231C212.931 580.151 268.766 568.867 319.933 576.755C339.497 579.777 359.829 582.613 377.003 595.69C397.489 611.238 409.458 636.99 417.107 661.17C422.332 677.647 426.132 694.132 431.582 710.034C434.148 717.512 437.082 724.858 440.666 732.037C463.471 777.753 512.194 811.279 564.162 824.018C616.188 836.772 670.952 831.287 722.179 816.021" stroke="white" stroke-miterlimit="10"/>
<path opacity="0.54" d="M-245.451 509.142C-234.291 481.803 -199.714 470.634 -171.19 477.11C-168.65 477.686 -166.134 478.387 -163.674 479.184C-138.567 487.401 -118.156 505.917 -100.174 525.543C-96.7194 529.314 -93.3163 533.163 -89.9371 537.025C-74.0851 555.156 -58.3257 573.817 -38.5727 587.814C-32.1922 592.336 -25.5243 596.281 -18.5642 599.628C28.6919 622.278 86.2879 615.802 137.903 603.287C141.652 602.373 145.406 601.44 149.134 600.49C204.469 586.457 259.651 573.513 310.868 578.113C331.562 579.977 353.23 581.599 371.53 594.809C393.371 610.532 405.513 637.886 412.56 663.477C417.365 680.911 420.499 698.367 425.423 715.287C427.731 723.231 430.465 731.058 433.906 738.733C455.84 787.525 506.844 823.334 561.212 836.349C615.635 849.378 672.819 842.599 726.185 826.135" stroke="white" stroke-miterlimit="10"/>
<path opacity="0.54" d="M-254.924 522.193C-243.831 494.877 -209.645 483.359 -181.022 489.206C-178.467 489.726 -175.954 490.365 -173.472 491.117C-148.206 498.782 -127.427 516.721 -108.996 535.882C-105.449 539.568 -101.971 543.326 -98.5163 547.098C-82.2929 564.824 -66.2011 583.151 -46.3445 596.913C-39.9317 601.354 -33.2487 605.242 -26.2613 608.526C21.1972 630.837 78.5632 624.016 129.921 610.694C133.655 609.725 137.374 608.733 141.092 607.709C196.038 592.723 250.576 577.939 301.827 579.418C323.641 580.05 346.663 580.545 366.088 593.888C389.296 609.779 401.607 638.753 408.063 665.75C412.461 684.133 414.905 702.573 419.307 720.493C421.366 728.915 423.88 737.218 427.182 745.37C448.234 797.245 501.531 835.33 558.297 848.62C615.12 861.925 674.721 853.852 730.227 836.19" stroke="white" stroke-miterlimit="10"/>
<path opacity="0.54" d="M-264.409 535.225C-253.382 507.931 -219.599 496.072 -190.876 501.289C-188.306 501.752 -185.779 502.335 -183.293 503.038C-157.879 510.157 -136.709 527.505 -117.835 546.221C-114.213 549.816 -110.641 553.488 -107.124 557.176C-90.5286 574.498 -74.1163 592.498 -54.1373 606.031C-47.7042 610.396 -40.982 614.214 -33.9726 617.453C13.6816 639.413 70.8245 632.26 121.925 618.131C125.643 617.108 129.341 616.049 133.025 614.965C187.582 599.026 241.454 582.254 292.761 580.76C315.702 580.092 340.063 579.516 360.613 592.991C385.177 609.057 397.681 639.639 403.514 668.042C407.493 687.382 409.278 706.805 413.134 725.738C414.955 734.63 417.238 743.416 420.408 752.057C440.585 807.027 496.168 847.377 555.345 860.935C614.554 874.523 676.586 865.148 734.225 846.276" stroke="white" stroke-miterlimit="10"/>
<path opacity="0.54" d="M-273.899 548.279C-262.939 521.008 -229.565 508.796 -200.731 513.377C-198.158 513.791 -195.615 514.317 -193.115 514.963C-167.554 521.536 -145.992 538.294 -126.67 556.546C-122.953 560.055 -119.318 563.643 -115.707 567.245C-98.7528 584.17 -81.9894 601.841 -61.9017 615.12C-55.4363 619.404 -48.6989 623.165 -41.6742 626.348C6.17045 647.976 63.0885 640.459 113.946 625.547C117.642 624.457 121.324 623.343 124.992 622.206C179.153 605.3 232.306 586.446 283.717 582.093C307.753 580.066 333.493 578.489 355.161 592.086C381.082 608.327 393.765 640.522 398.996 670.337C402.567 690.626 403.675 711.027 407.004 730.979C408.574 740.349 410.645 749.622 413.676 758.741C432.971 816.793 490.848 859.419 552.423 873.253C614.031 887.116 678.5 876.452 738.26 856.378" stroke="white" stroke-miterlimit="10"/>
<path opacity="0.54" d="M-283.383 561.311C-272.489 534.062 -239.506 521.502 -210.585 525.461C-207.996 525.818 -205.45 526.295 -202.941 526.873C-177.228 532.881 -155.28 549.067 -135.515 566.873C-131.723 570.292 -127.995 573.794 -124.309 577.305C-106.976 593.838 -89.8988 611.169 -69.6955 624.207C-63.1979 628.409 -56.4384 632.126 -49.3866 635.245C-1.33942 656.534 55.3486 648.672 105.95 632.954C109.63 631.81 113.289 630.629 116.923 629.432C170.707 611.566 223.071 590.51 274.649 583.406C299.756 579.951 326.892 577.43 349.692 591.171C376.987 607.592 389.832 641.396 394.465 672.604C397.616 693.85 398.047 715.229 400.861 736.192C402.181 746.039 404.033 755.788 406.932 765.397C425.357 826.525 485.507 871.422 549.488 885.543C613.495 899.682 680.382 887.724 742.276 866.44" stroke="white" stroke-miterlimit="10"/>
<path opacity="0.54" d="M-292.878 574.362C-282.051 547.135 -249.471 534.234 -220.45 537.563C-217.865 537.859 -215.292 538.272 -212.773 538.813C-186.913 544.275 -164.573 559.87 -144.371 577.219C-140.498 580.559 -136.682 583.964 -132.915 587.396C-115.222 603.531 -97.8009 620.522 -77.494 633.326C-70.9642 637.445 -64.1895 641.105 -57.1036 644.173C-8.86087 665.111 47.5922 656.923 97.9482 640.392C101.613 639.193 105.25 637.945 108.861 636.681C162.257 617.863 213.767 594.546 265.596 584.753C291.739 579.813 320.324 576.412 344.23 590.28C372.881 606.876 385.907 642.294 389.936 674.914C392.68 697.11 392.433 719.466 394.713 741.436C395.783 751.761 397.428 761.978 400.183 772.083C417.726 836.294 480.169 883.467 546.549 897.864C612.947 912.266 682.26 899.026 746.293 876.544" stroke="white" stroke-miterlimit="10"/>
<path opacity="0.54" d="M-302.346 587.394C-291.585 560.19 -259.395 546.941 -230.276 549.641C-227.676 549.88 -225.099 550.244 -222.553 550.721C-196.533 555.631 -173.814 570.642 -153.169 587.546C-149.209 590.788 -145.312 594.114 -141.481 597.462C-123.417 613.193 -105.657 629.861 -85.246 642.431C-78.6839 646.468 -71.882 650.065 -64.7928 653.083C-16.3596 673.689 39.8755 665.149 89.9815 647.824C93.6237 646.558 97.2333 645.263 100.834 643.925C153.841 624.153 204.42 598.525 256.57 586.083C283.723 579.609 313.765 575.37 338.796 589.371C368.802 606.143 382.009 643.174 385.441 677.187C387.777 700.332 386.847 723.685 388.605 746.654C389.431 757.438 390.851 768.151 393.467 778.732C410.128 846.027 474.876 895.469 543.661 910.153C612.458 924.83 684.189 910.297 750.363 886.616" stroke="white" stroke-miterlimit="10"/>
<path opacity="0.54" d="M-311.809 600.447C-301.115 573.265 -269.335 559.663 -240.109 561.746C-237.506 561.935 -234.914 562.243 -232.352 562.663C-206.186 567.027 -183.075 581.448 -161.987 597.906C-157.945 601.069 -153.961 604.298 -150.055 607.556C-131.625 622.901 -113.539 639.223 -93.0125 651.551C-86.4181 655.506 -79.601 659.047 -72.4778 662.014C-23.8489 682.269 32.1561 673.384 82.0122 655.264C85.6388 653.943 89.226 652.582 92.7926 651.184C145.41 630.459 194.97 602.475 247.53 587.429C275.652 579.379 307.198 574.356 333.354 588.49C364.728 605.429 378.115 644.074 380.932 679.505C382.855 703.62 381.253 727.932 382.484 751.919C383.06 763.181 384.268 774.381 386.745 785.44C402.524 855.817 469.565 907.536 540.749 922.495C611.945 937.448 686.094 921.62 754.401 896.73" stroke="white" stroke-miterlimit="10"/>
<path opacity="0.54" d="M-321.323 613.48C-310.689 586.332 -279.318 572.377 -249.982 573.823C-247.363 573.956 -244.763 574.195 -242.191 574.578C-215.865 578.39 -192.375 592.227 -170.851 608.227C-166.722 611.293 -162.668 614.45 -158.668 617.622C-139.866 632.562 -121.448 648.551 -100.818 660.644C-94.1965 664.536 -87.3591 668.001 -80.2137 670.924C-31.3944 690.847 24.3926 681.61 73.9988 662.695C77.6099 661.32 81.1747 659.892 84.7189 658.428C136.96 636.743 185.419 606.401 238.457 588.758C267.498 579.1 300.592 573.314 327.873 587.581C360.603 604.695 374.17 644.954 376.39 681.778C377.905 706.843 375.614 732.139 376.317 757.145C376.643 768.884 377.632 780.56 379.978 792.108C394.886 865.561 464.208 919.563 537.791 934.798C611.385 950.026 687.96 932.916 758.4 906.816" stroke="white" stroke-miterlimit="10"/>
</g>
<defs>
<filter id="filter0_f_2716_82383" x="-1245" y="0.692871" width="2609.05" height="1789.52" filterUnits="userSpaceOnUse" color-interpolation-filters="sRGB">
<feFlood flood-opacity="0" result="BackgroundImageFix"/>
<feBlend mode="normal" in="SourceGraphic" in2="BackgroundImageFix" result="shape"/>
<feGaussianBlur stdDeviation="100" result="effect1_foregroundBlur_2716_82383"/>
</filter>
<filter id="filter1_f_2716_82383" x="-670.711" y="627.725" width="1242.62" height="1015.82" filterUnits="userSpaceOnUse" color-interpolation-filters="sRGB">
<feFlood flood-opacity="0" result="BackgroundImageFix"/>
<feBlend mode="normal" in="SourceGraphic" in2="BackgroundImageFix" result="shape"/>
<feGaussianBlur stdDeviation="50" result="effect1_foregroundBlur_2716_82383"/>
</filter>
<linearGradient id="paint0_linear_2716_82383" x1="-310.575" y1="1042.42" x2="-316.949" y2="1411.92" gradientUnits="userSpaceOnUse">
<stop stop-color="#B0A833"/>
<stop offset="1" stop-color="#222222" stop-opacity="0"/>
</linearGradient>
</defs>
</svg>
