<svg width="24" height="24" viewBox="0 0 24 24" fill="none" xmlns="http://www.w3.org/2000/svg">
<path fill-rule="evenodd" clip-rule="evenodd" d="M2 12C2 6.47715 6.47715 2 12 2C17.5228 2 22 6.47715 22 12C22 17.5228 17.5228 22 12 22C6.47715 22 2 17.5228 2 12ZM12.8824 6.11765C12.8824 5.63034 12.4873 5.23529 12 5.23529C11.5127 5.23529 11.1176 5.63034 11.1176 6.11765V12C11.1176 12.3042 11.2744 12.587 11.5324 12.7482L15.0618 14.9541C15.475 15.2124 16.0194 15.0868 16.2776 14.6735C16.5359 14.2603 16.4103 13.7159 15.9971 13.4576L12.8824 11.511V6.11765Z" fill="#101010"/>
</svg>
