<svg width="26" height="24" viewBox="0 0 26 24" fill="none" xmlns="http://www.w3.org/2000/svg">
<g clip-path="url(#clip0_2282_638869)">
<path d="M6.34375 18.5H17.6449" stroke="#101010" stroke-linecap="round" stroke-linejoin="round"/>
<path d="M12.5118 14.9999L9.42969 15.5399L9.94338 12.4999L16.8576 5.78994C16.9531 5.69621 17.0667 5.62182 17.1919 5.57105C17.3171 5.52028 17.4514 5.49414 17.587 5.49414C17.7227 5.49414 17.857 5.52028 17.9822 5.57105C18.1073 5.62182 18.221 5.69621 18.3165 5.78994L19.4055 6.84994C19.5018 6.9429 19.5782 7.0535 19.6304 7.17536C19.6825 7.29722 19.7094 7.42793 19.7094 7.55994C19.7094 7.69195 19.6825 7.82266 19.6304 7.94452C19.5782 8.06637 19.5018 8.17698 19.4055 8.26994L12.5118 14.9999Z" fill="#101010" stroke="#101010" stroke-linecap="round" stroke-linejoin="round"/>
</g>
<defs>
<clipPath id="clip0_2282_638869">
<rect width="14.3833" height="14" fill="white" transform="translate(5.82812 5)"/>
</clipPath>
</defs>
</svg>
