<svg width="24" height="24" viewBox="0 0 24 24" fill="none" xmlns="http://www.w3.org/2000/svg">
<g clip-path="url(#clip0_2285_652431)">
<path d="M5.5 18.5H16.5" stroke="#101010" stroke-linecap="round" stroke-linejoin="round"/>
<path d="M11.5 14.9999L8.5 15.5399L9 12.4999L15.73 5.78994C15.823 5.69621 15.9336 5.62182 16.0554 5.57105C16.1773 5.52028 16.308 5.49414 16.44 5.49414C16.572 5.49414 16.7027 5.52028 16.8246 5.57105C16.9464 5.62182 17.057 5.69621 17.15 5.78994L18.21 6.84994C18.3037 6.9429 18.3781 7.0535 18.4289 7.17536C18.4797 7.29722 18.5058 7.42793 18.5058 7.55994C18.5058 7.69195 18.4797 7.82266 18.4289 7.94452C18.3781 8.06637 18.3037 8.17698 18.21 8.26994L11.5 14.9999Z" fill="#101010" stroke="#101010" stroke-linecap="round" stroke-linejoin="round"/>
</g>
<defs>
<clipPath id="clip0_2285_652431">
<rect width="14" height="14" fill="white" transform="translate(5 5)"/>
</clipPath>
</defs>
</svg>
