<svg width="126" height="15" fill="none" xmlns="http://www.w3.org/2000/svg"><g clip-path="url(#a)" fill="#101010"><path d="M17.32 14.725V1.521h3.935v13.204H17.32ZM29.014 15c-1.818 0-3.283-.422-4.405-1.278-1.123-.856-1.68-1.976-1.68-3.349h3.7c.011.57.236 1.014.685 1.342.438.327 1.059.486 1.86.486.653 0 1.155-.106 1.53-.328.374-.222.556-.538.556-.94 0-.433-.203-.74-.62-.919-.407-.18-1.027-.327-1.85-.444-1.562-.21-2.62-.422-3.198-.623-1.721-.591-2.577-1.711-2.577-3.359 0-1.32.524-2.366 1.583-3.148 1.048-.782 2.46-1.172 4.234-1.172 1.765 0 3.198.422 4.288 1.278 1.091.855 1.637 1.965 1.637 3.327h-3.572c0-.58-.203-1.024-.599-1.341-.396-.317-.94-.476-1.625-.476-.62 0-1.112.117-1.465.349-.353.232-.535.539-.535.908 0 .233.064.433.193.592.128.158.363.296.695.401.331.106.62.18.844.222.225.042.6.106 1.145.18.61.084 1.09.169 1.454.243.363.074.823.21 1.38.401.555.19.994.412 1.315.676.32.254.599.613.844 1.078.246.464.364 1.003.364 1.616 0 1.3-.567 2.345-1.69 3.137-1.133.75-2.63 1.14-4.49 1.14Zm14.596 0c-2.128 0-3.87-.645-5.24-1.923-1.358-1.278-2.042-2.936-2.042-4.965 0-2.028.684-3.676 2.053-4.943 1.358-1.278 3.112-1.912 5.24-1.912 1.807 0 3.347.486 4.609 1.447 1.272.961 2 2.218 2.203 3.75l-3.657.39a2.97 2.97 0 0 0-1.08-1.732 3.088 3.088 0 0 0-1.957-.686c-1.038 0-1.872.338-2.503 1.014-.63.676-.951 1.563-.951 2.672.01 1.11.331 1.997.973 2.673.63.676 1.454 1.014 2.47 1.014.738 0 1.39-.222 1.968-.676a2.938 2.938 0 0 0 1.112-1.711l3.657.422c-.16 1.521-.877 2.768-2.16 3.719C47.022 14.524 45.46 15 43.61 15Zm15.452 0c-2.257 0-4.064-.623-5.444-1.87-1.379-1.246-2.063-2.915-2.063-5.007 0-2.091.684-3.76 2.063-4.996 1.38-1.247 3.187-1.86 5.444-1.86 2.245 0 4.052.624 5.42 1.86 1.38 1.246 2.064 2.905 2.064 4.996 0 2.092-.684 3.76-2.063 5.007-1.38 1.247-3.187 1.87-5.422 1.87Zm-2.578-4.204c.663.676 1.519 1.014 2.578 1.014 1.058 0 1.914-.338 2.566-1.014.652-.676.984-1.564.984-2.673s-.332-1.996-.984-2.672c-.652-.676-1.508-1.014-2.566-1.014-1.06 0-1.915.338-2.578 1.014-.663.676-.994 1.563-.994 2.672 0 1.11.331 1.997.994 2.673ZM70.6 14.725 66.664 1.521h4.031l2.898 10.352h.182L76.63 1.521h4.075l-3.957 13.204H70.6Zm11.44 0V1.521h10.286v3.063h-6.48v2.219h6.127v2.524h-6.127v2.345h6.662v3.064H82.039v-.01Zm12.835 0V1.521h6.737c1.636 0 2.941.412 3.935 1.236.995.824 1.497 1.912 1.497 3.264 0 1.056-.31 1.944-.93 2.662-.62.718-1.433 1.172-2.427 1.352l-.15.042 3.935 4.648h-4.385l-3.314-4.352h-.952v4.352h-3.946Zm3.946-6.887h2.106c.631 0 1.156-.159 1.572-.475a1.56 1.56 0 0 0 .621-1.29c0-.527-.203-.95-.621-1.267-.406-.317-.93-.475-1.572-.475h-2.106v3.507Zm13.042 6.887v-4.5l-4.652-8.704h4.085l2.428 5.313h.181l2.278-5.313h4.149l-4.523 8.704v4.5h-3.946ZM9.1 1.532H0v13.183h9.1c3.69 0 6.673-2.947 6.673-6.592 0-3.634-2.984-6.591-6.673-6.591Zm2.727 11.672-8.063-1.553V4.616l8.063-1.553v10.141ZM125.24.2c.236.138.417.318.556.55.139.232.204.496.204.771 0 .285-.065.539-.204.782a1.544 1.544 0 0 1-1.358.76 1.504 1.504 0 0 1-1.336-.76 1.488 1.488 0 0 1-.204-.771 1.539 1.539 0 0 1 .76-1.331c.235-.138.502-.201.791-.201.289 0 .556.063.791.2Zm-.16 2.42a1.223 1.223 0 0 0 .609-1.088 1.27 1.27 0 0 0-.16-.634 1.124 1.124 0 0 0-.449-.444 1.315 1.315 0 0 0-.642-.158 1.21 1.21 0 0 0-.641.169 1.16 1.16 0 0 0-.45.454 1.27 1.27 0 0 0-.16.634c0 .232.053.443.16.634a1.233 1.233 0 0 0 1.08.623c.235 0 .46-.085.653-.19Zm.096-1.014a.646.646 0 0 1-.235.21l.374.56h-.46l-.32-.485h-.311v.486h-.46V.687h.749c.235 0 .417.052.545.158a.546.546 0 0 1 .204.433.599.599 0 0 1-.086.328Zm-.685-.053c.108 0 .182-.021.236-.064a.232.232 0 0 0 .085-.19.232.232 0 0 0-.085-.19.39.39 0 0 0-.236-.074h-.256v.528h.256v-.01Z"/></g><defs><clipPath id="a"><path fill="#fff" d="M0 0h126v15H0z"/></clipPath></defs></svg>